<?xml version="1.0" standalone="no"?>
<!DOCTYPE svg PUBLIC "-//W3C//DTD SVG 1.1//EN" "http://www.w3.org/Graphics/SVG/1.1/DTD/svg11.dtd" >
<svg xmlns="http://www.w3.org/2000/svg">
<metadata>
This is a custom SVG webfont generated by Font Squirrel.
Copyright   : Copyright c Typographer Mediengestaltung 2000 All rights reserved
</metadata>
<defs>
<font id="webfontPj1DFz4p" horiz-adv-x="301" >
<font-face units-per-em="1000" ascent="800" descent="-200" />
<missing-glyph horiz-adv-x="400" />
<glyph unicode=" "  horiz-adv-x="400" />
<glyph unicode="&#x09;" horiz-adv-x="400" />
<glyph unicode="&#xa0;" horiz-adv-x="400" />
<glyph unicode="!" horiz-adv-x="185" d="M26 67q-3 -32 28 -54q16 -12 37 -12q12 0 24 5q34 17 35 49q3 44 -28 65t-60 7q-32 -17 -36 -60zM46 678q0 -21 1.5 -39t3.5 -34l22 -254q1 -13 1.5 -26t1.5 -26q4 -45 10 -49q10 -8 20 -4q10 6 16 52q1 4 1.5 16.5t2.5 34.5l24 322q3 36 3 52q0 63 -26 83q-16 13 -36 4 q-45 -21 -45 -132z" />
<glyph unicode="&#x22;" horiz-adv-x="292" d="M31 738q4 -37 9 -52q10 -37 12 -58q2 -18 3 -32t1 -24q2 -20 4 -33.5t4 -19.5q7 -5 11 -5t12 5q1 5 1.5 10t0.5 10q1 26 1 45q0 20 1 34l8.5 42t5.5 28q4 15 6 28q-2 16 -3 23q3 18 3 21t-1 9.5t-3 14t-5 14t-6 9.5h-21l-15 1.5t-6 0.5q-9 -3 -12 -13q-1 -2 -1.5 -7.5 t-2.5 -13.5q-4 -22 -5.5 -31.5t-1.5 -5.5zM181 776q0 -1 0.5 -10l1.5 -28t2 -31.5t3 -20.5q2 -19 4 -33.5t4 -24.5q4 -24 6 -56q8 -42 9 -53q7 -5 11 -5q5 0 10 5q4 9 4 20q1 71 3 79q4 24 7.5 41.5t5.5 28.5q0 3 3 12t3 16q1 8 1 13v10q1 6 -1.5 12t-3.5 10q0 11 -2 21 q-2 20 -8.5 24.5t-21.5 4.5q-13 1 -21 -2q-17 -8 -20 -33z" />
<glyph unicode="#" horiz-adv-x="764" d="M21 233q8 -1 14.5 -1.5t10.5 -0.5q3 0 10.5 2t12.5 2t14.5 -2t14.5 -2q8 0 21.5 1.5t18.5 1.5q10 1 19.5 0.5t17.5 -1.5q-1 -8 -1.5 -13.5t-0.5 -9.5q-5 -15 -8.5 -26.5t-7.5 -19.5q-5 -14 -10 -25.5t-9 -19.5l1 -1q1 0 2 -1q3 1 9 5l1 -1q1 0 2 -1q-17 -26 -25 -33 q-10 -26 -17 -46.5t-12 -36.5q8 -2 13 -2.5t8 -1.5q-2 0 33 3q12 3 26 1q5 11 9.5 19t6.5 14q4 13 6 23.5t4 18.5q12 26 20 40q4 16 6.5 28.5t3.5 21.5q5 10 10 18t10 15q9 23 5 31h145q-5 -21 -6 -30q-4 -10 -7.5 -17t-6.5 -12q-5 -14 -8.5 -26t-5.5 -20q-9 -40 -12 -58 q-5 -8 -10 -15t-9 -12q-10 -30 -10 -39h81q6 17 13.5 35.5l15.5 38.5q11 22 21 37q5 19 7.5 32.5t3.5 23.5q5 14 9.5 24l7.5 17q2 16 3 22q23 -2 50 0q1 0 10 1l28 3q23 3 39 1q9 -2 15.5 -3t11.5 -2q10 1 15 10q5 23 6 37.5t2 22.5q-10 1 -21 1h-23q-6 0 -19.5 -1.5 t-21.5 -1.5q-5 0 -17.5 1.5t-18.5 1.5h-15q-8 0 -19 -1q9 12 15 29q5 16 8.5 28.5t5.5 22.5q2 7 12 25q4 8 5.5 13.5t2.5 10.5q1 8 2 13.5t2 9.5q8 1 17 1.5t19 0.5q4 0 11.5 -0.5t18.5 -1.5q10 -1 18 -1h14q7 0 20.5 1t18.5 1h8q5 0 12 -1q16 25 18 41q1 5 1 24h-46 q-21 0 -41 1q-5 0 -15.5 2t-15.5 1q-5 0 -14 -1t-20 -3q3 31 21 66q11 24 18 35l5 24t4 17l8.5 15.5l5.5 10.5q1 8 1.5 14t0.5 10q11 35 10 36q-15 4 -24 0q-19 6 -56 0q-5 -21 -6 -30q-5 -14 -9.5 -24t-8.5 -17q-9 -31 -12 -46q-5 -20 -6 -30q-11 -24 -20 -38l-11 -27.5 t-5 -15.5q-18 3 -26 3q-7 0 -22 -3t-22 -3q-9 0 -24.5 3t-21.5 3q-18 1 -31 -3q5 13 9.5 22.5l7.5 15.5l8.5 31.5t5.5 22.5l12 32.5l9 23.5q19 63 24 81q-27 6 -43 6q-12 0 -37 -6l-8.5 -12t-5.5 -9q-10 -25 -12 -41l-3.5 -28.5t-1.5 -20.5q-12 -29 -20 -43 q-5 -17 -8.5 -30.5t-4.5 -21.5l-7.5 -11.5t-7.5 -10.5q-29 3 -43 3q-4 0 -11.5 0.5t-15.5 0.5t-15.5 0.5t-12.5 0.5q-14 0 -29 -1.5t-30 -3.5q-11 -14 -12 -21v-20q-4 -10 -6 -16t-4 -9q25 3 37 3q4 1 9 0.5t12 -1.5q18 -3 23 -3q17 -1 34 -0.5t36 1.5q-2 -8 -2.5 -13 t-1.5 -9q-17 -41 -27 -63q-3 -17 -3 -26l-11.5 -26t-6.5 -14q-10 2 -17 3t-12 2q-6 1 -20.5 -2t-19.5 -3q-4 0 -11 2t-11 2q-5 0 -14 -3t-13 -3q-17 -1 -34 2q-4 -11 -5.5 -19l-2.5 -13q-4 -12 -10 -18q-6 -17 -6 -22zM284 304q17 30 27 59q8 26 9 37l12 27q4 18 6 29 q37 3 60 3q6 0 17.5 -2.5t16.5 -2.5q20 -1 48 2q-4 -8 -8.5 -18l-9.5 -22q-1 -2 -1 -5q0 -5 7 -5q2 -1 3 -1t2 -1l-4 -3.5t-9 -9t-10 -12.5t-7 -15q-9 -41 -12 -60q-74 8 -115 3z" />
<glyph unicode="$" horiz-adv-x="599" d="M25 172q0 -37 16 -68q25 -50 84 -76q14 -6 40.5 -13t66.5 -15l19 -9l1 -7l2 -6q0 -11 1 -13v-12q-1 -5 -1 -7v-5q3 -21 20 -27q16 -5 27 3q8 8 8 40q0 33 10 43q60 8 134 49q41 22 76 60q46 49 46 138q0 37 -10 64q-7 25 -33 61q-31 45 -73 71q-14 8 -30 15t-35 14 q-11 4 -28.5 9t-40.5 11q-7 7 -6 14q2 11 0 16q0 4 -1.5 13.5t-1.5 13.5l6 186q11 17 35 9q32 -3 38 -6q35 -17 38 -43q1 -8 -5 -14.5t-7 -13.5q-1 -13 6 -29q16 -26 51 -24q59 3 59 57q0 24 -13 43q-28 43 -93 58q-24 4 -48 7l-48 6l-16 9q-5 29 -9 32q-3 3 -33 8 q-11 -8 -11 -23t-10 -22l-49 -11q-49 -11 -88 -42.5t-58 -91.5q-17 -53 -6 -96q11 -41 37 -75q16 -23 36 -36q5 -4 15 -9.5l24 -13.5q13 -3 20 -10l20 -6l39 -12q13 -10 13 -49q0 -7 -0.5 -16.5t-1.5 -20.5t-1.5 -18t-0.5 -9v-107l2 -52v-17l-2 -26q-1 -19 -8 -22 q-93 0 -123 42q-17 22 -9 39q7 17 24 19q20 1 27 7q19 14 14 42q-4 23 -24 40q-4 3 -7.5 6t-7.5 5q-11 8 -19 8q-4 0 -6 -1l-6 5q-51 -7 -74 -41q-11 -22 -11 -48zM128 638q0 22 10 41q31 62 119 61q5 -5 5 -21q0 -4 1 -11t1 -11l-9 -184q-9 -7 -31 3q-9 3 -33 17 q-33 20 -50 55q-13 25 -13 50zM311 145v39l5 59v84q0 28 3 36q75 -7 112 -46q42 -44 42 -112q0 -67 -40 -107q-22 -22 -77 -43q-26 -10 -37 -4q-5 5 -6 14q-1 7 1 19.5t2 14.5z" />
<glyph unicode="%" horiz-adv-x="708" d="M28 465q0 -10 1 -21q8 -123 83 -161q18 -9 48 -9q43 0 65 16q49 34 63 90q6 25 6 94v34q0 70 -4 87q-9 52 -46 87q-36 35 -94 28q-44 -6 -63 -25q-59 -59 -59 -199v-21zM104 474l5 43v80q1 52 24 73q13 12 22 13q18 0 24 -2q39 -20 39 -92v-22q-1 -6 -1 -9v-4v-98 q0 -67 -1 -72q-4 -54 -28 -71q-7 -4 -23 -5q-19 -1 -25 3q-28 18 -34 88q-1 19 -1 37q0 19 -1 38zM157 -2q4 -9 18 -9q11 0 22 3l7 14l6 8l3 6q10 16 15 29l262 523q3 13 6 17q12 9 14 16l8 18q2 3 4 8.5t4 13.5q3 7 12 21q3 4 6 7l5 5l6 10q9 15 9 20q-6 2 -9 3.5l-3 1.5 h-34l-38 -66q-5 -12 -9 -23l-23 -38l-12 -32l-16 -33q-11 -8 -13 -12t-3 -8t-3 -8q-6 -11 -9 -15q-6 -12 -8 -14l-66 -145q-3 -3 -5 -9zM410 224q0 -60 15 -126q17 -75 80 -98q15 -5 40 -5q42 0 64 14q48 34 63 95q7 28 7 97v27q0 62 -8 96q-15 64 -62 93q-28 17 -61 17 q-31 0 -58.5 -14t-51.5 -57q-28 -49 -28 -139zM487 138q0 3 3 20q1 13 0 30v40q1 7 1.5 11.5t-0.5 8.5v49l1 25q11 24 10 27q1 7 2 13t2 13q5 18 21 25q1 1 19 1q3 0 9 -3l2.5 1.5t7.5 3.5q26 -26 28 -35q1 -7 5 -19t4 -18v-19l-1 -32v-25v-8q0 -4 1 -9v-15v-47 q0 -70 -1 -75q-4 -58 -32 -72q-5 -4 -22 -2q-20 2 -24 5q-12 9 -19 31l-12 47q-5 20 -5 28z" />
<glyph unicode="&#x26;" horiz-adv-x="828" d="M36 643q6 -55 19 -74q13 -18 69 -51q0 -4 -15 -25l-10.5 -14.5t-8.5 -11.5q-48 -78 -48 -165q0 -48 16 -81q23 -52 84 -116q76 -83 144 -96q46 -5 69 -3q60 -6 66 -6q53 5 70 10q52 20 94.5 48.5t77.5 72.5q43 38 50 51q1 2 4 14.5t10 36.5q19 70 19 95q0 26 -17 57 q-7 11 -21.5 31.5l-37.5 50.5q66 26 85 39q47 32 47 99q0 54 -51 89q-18 12 -44 13q-13 1 -21 -2q-17 -8 -29.5 -11t-26.5 -19q-17 -19 -22 -36q-5 -20 10 -35q9 -9 30 -11q20 -2 32 6v30q13 21 33 15q7 -1 18 -14q12 -11 14.5 -16.5t2.5 -13.5q0 -21 -15 -43 q-19 -28 -58 -42q-33 -12 -64 -9h-16q-20 4 -46 4q-93 0 -166 -56q-34 -25 -45 -52q-9 -24 -8 -65q2 -42 40 -66q25 -15 58 -15q23 0 40 7q19 8 24.5 15.5t8.5 26.5q3 15 0 26.5t-9 18.5t-13 10t-13 2q-14 -12 -15 -19q-15 -8 -22 -7q-18 1 -29 20q-6 10 -3 28q0 9 13 28 l9 2q3 13 8 18q1 1 19 9q50 22 97 22q29 0 49 -12q25 -16 53 -61q29 -46 31 -67q2 -14 -3 -25q-3 -11 -4.5 -17.5t-2.5 -8.5q-9 -49 -10 -50q-5 -13 -32 -46q-28 -34 -43 -46q-59 -48 -129 -48q-40 0 -94 17q-8 2 -62 36l-41 27.5t-19 13.5q-24 25 -43 62q-8 15 -15 30 l-15 31q-9 16 -9 53l-4 25v26q1 15 14 53l9 26q6 16 15 22q132 0 173 35q34 28 29 55q-4 28 -40 39q-15 5 -29 5q-56 0 -118 -59h-10q-62 51 -62 97q0 13 4 22q16 52 70 66q21 5 41 0q22 -11 23 -12q3 -2 13 -17q29 -32 60 -32q4 0 7 0.5t7 1.5q26 8 33 17l8 32 q-33 43 -66 51q-27 6 -59 6q-122 0 -195 -63q-48 -41 -41 -105zM236 556q26 30 49 41q18 8 54 10l17 -14q0 -11 -2 -17q-2 -3 -15 -12.5t-35 -15.5q-4 -1 -13 -1h-22q-27 0 -33 9z" />
<glyph unicode="'" horiz-adv-x="183" d="M24 758q0 -17 9 -32q15 -26 59 -26l8 -7v-10q-10 -17 -16 -23q-19 -19 -20 -21v-10q7 -10 16 -10q4 0 24 11q24 16 35 34q15 28 15 66q0 33 -19 59.5t-51 27.5t-52 -31q-8 -14 -8 -28z" />
<glyph unicode="(" horiz-adv-x="252" d="M21 342q0 -26 3 -45t3 -44v-32q0 -48 58 -198l5 -6l19 -44q7 -12 31 -41q7 -9 8 -12l8 -11l11.5 -11.5t6.5 -8.5q35 -29 41 -29l8 6l-14 27q-49 71 -69 122q-17 40 -30 123v43q0 11 -6 50v199q0 117 22 186q27 85 104 185v8q-1 1 -6 1q-11 0 -36 -14l-25 -19.5t-19 -15.5 l-10 -17q-109 -184 -109 -292v-18q0 -13 -1.5 -26.5t-1.5 -19.5v-17l-1 -6v-23z" />
<glyph unicode=")" horiz-adv-x="261" d="M21 -129q1 -3 7 -3q10 0 27 8.5t32 20.5q59 47 103 162q35 93 40 167l6 100q1 14 1.5 28.5t0.5 28.5q0 318 -201 435l20 -38l20 -44q4 -8 6 -13.5t4 -9.5l14 -24l10 -26q12 -36 15 -48l14 -31q0 2 0.5 -2t1.5 -14l-1 -4l1 -5l1 -6q0 -19 12 -31l3 -24q4 -9 4 -22v-23 q2 -6 0 -11v-6l-2 -4v-66q0 -6 -1 -17.5t-1 -15.5v-31l-13 -124l-6 -24t-17 -72l-10 -48q-11 -49 -25 -72q-1 -1 -56 -74z" />
<glyph unicode="*" horiz-adv-x="375" d="M22 692q0 -8 12 -12q23 -23 62 -24l33 -2q21 -2 27 -15q-5 -8 -17 -12l-4.5 -1.5t-12.5 -3.5q-23 -5 -34 -6q-18 -7 -35 -21l-15.5 -11.5t-7.5 -16.5l31 -46q47 18 62 41q22 33 51 52q12 -8 3 -26l-3.5 -14.5t-3.5 -11.5q-7 -17 -10 -30.5t-4 -23.5q-2 -29 9 -39 q6 -3 35 -3q26 0 33 10q-1 5 -1 7v5v7l-1 4v23l-9 21l-9.5 34.5t-6.5 30.5q4 2 7 2q12 0 30 -25l16 -21.5l12 -16.5q18 -18 40 -14q11 2 15.5 9l9.5 15q15 21 15 31l-40 22t-21 10q-20 6 -32 6q-22 0 -28 11v10q7 9 31 16l31 5q21 8 36 15t25 14q-4 10 -6.5 15l-3.5 7 l-11 12.5t-6 6.5q-8 10 -12 12q-4 1 -16 -3q-24 -4 -46 -32q-8 -10 -12.5 -16.5l-6.5 -9.5q-16 -19 -21 -19q-5 2 -3 14q1 11 1.5 15t0.5 0q0 15 9 29q13 28 12 58q0 15 -1 15q-1 5 -9.5 9.5t-24.5 4.5q-17 0 -24 -4q-12 -4 -13.5 -6.5t-4.5 -15.5q-6 -27 10 -65 q11 -9 12 -34q4 -9 7 -20q2 -7 -5 -11q-16 14 -30 27.5t-26 27.5q-16 19 -26 24q-13 7 -49 11q-3 -6 -13 -19q-6 -9 -9 -20q0 -3 -2 -9t-2 -9z" />
<glyph unicode="+" horiz-adv-x="619" d="M13 297q5 0 16 3q8 2 16 -1q5 0 52 -3q46 -3 57 -3h31q24 0 39 4h7t13 1q9 1 14 1h6q7 -4 12 -4v-6q0 -9 2.5 -17.5t2.5 -15.5l-6 -32l6 -58l-7 -67v-62h80q0 7 -4 16q-2 7 1 16q0 2 0.5 15.5t1.5 36.5q3 46 3 57v30q0 22 -5 40v46h84q9 0 19.5 -2.5t18.5 -2.5 q2 0 10.5 1.5t24.5 3.5h94q3 7 3 23v23q-1 9 -1 14v6q-6 0 -34 5l-23.5 3.5t-20.5 1.5l-77 -7h-16q-23 5 -41 5q-19 8 -37 8v83q0 8 3 18t3 19q0 4 -6 36v93q-8 3 -23 3h-8t-15 -1t-14 -1h-7q0 -4 -5 -32q-5 -26 -3 -45l5 -77v-15q-4 -20 -4 -42q-8 -24 -8 -42h-8 q-9 0 -17.5 -2.5t-15.5 -2.5l-32 6l-57 -6l-68 7h-62v-78z" />
<glyph unicode="," horiz-adv-x="188" d="M32 85q-14 -30 4 -58q10 -16 29 -23q13 -7 17 -4h25q0 -19 -13 -36q-1 -2 -5 -6t-11 -12q-5 -7 -5 -15q6 -8 16 -8q14 0 26 13q44 38 44 96q0 35 -16 58q-22 34 -57 32q-37 -1 -54 -37z" />
<glyph unicode="-" d="M32 153q0 -13 9 -13q13 -1 23 -1.5t18 -0.5q19 0 45.5 0.5t60.5 1.5l51 5q26 52 26 60q7 15 -7 21q-7 5 -14 5t-19 -4l-15 -5q-20 -2 -31.5 -3t-15.5 -1q-10 2 -27 2q-2 -2 -27 0l-13.5 2l-13.5 2q-18 2 -26 -6q-11 -21 -17.5 -37.5t-6.5 -27.5z" />
<glyph unicode="." horiz-adv-x="177" d="M29 55q8 -32 37 -45q15 -6 30 -4.5t27 9t19.5 20t7.5 29.5q1 31 -26 51q-21 15 -42 15q-13 0 -23.5 -7t-17.5 -17.5t-10.5 -24t-1.5 -26.5z" />
<glyph unicode="/" horiz-adv-x="309" d="M14 9q7 -9 20 -9q10 0 21 3l6 15l4 8l2 6q8 14 14.5 31t10.5 37q13 66 15 72l82.5 255l57.5 171l3 18q11 11 11 16l5 18l9 32.5l3 10.5q0 3 11 11l4 10q4 9 4 21q-5 4 -12 4h-34l-12 -21l-15 -45q-2 -12 -6 -22l-15 -38l-7 -33l-10 -33q-11 -8 -12 -12t-1 -8t-1 -8 q-6 -11 -6 -14l-3.5 -9t-3.5 -7l-42 -143q-2 -4 -2 -10z" />
<glyph unicode="0" horiz-adv-x="621" d="M30 326q1 -57 39 -147q44 -104 97 -138q75 -48 135 -48q42 0 96 24q81 37 136 145q46 86 55 167q2 16 3 32t1 33q0 175 -84 276q-41 48 -96 75q-50 24 -99 24q-33 0 -81 -17q-23 -8 -42 -17.5t-33 -20.5q-85 -63 -113 -192q-8 -38 -11.5 -86.5t-2.5 -109.5zM149 314v54 q0 241 80 326q22 23 62 31q5 1 10.5 1.5t10.5 0.5q47 0 84 -32q76 -67 76 -241v-90q0 -79 -18 -155q-25 -115 -82 -152q-28 -19 -68 -19q-31 0 -57 14q-55 30 -81 125q-17 66 -17 137z" />
<glyph unicode="1" horiz-adv-x="425" d="M27 36q-6 -11 1 -22q10 -19 72 -19l6 5q4 0 16 1.5t32 3.5q14 2 25.5 3t21.5 1q33 0 46 -5l29 -3.5t18 -2.5q90 -3 103 12q8 13 8 21q-3 8 -10 10.5t-14 4.5q-9 2 -44 -1q-27 -2 -41 9q-21 16 -25 56q-1 4 -1 18v37v56v27l12 417q3 12 1 52q-1 49 -13 58q-5 3 -12 3 q-16 0 -46 -10q-10 -4 -19 -7l-18 -6l-49 -12l-26 -6l-26 -6q-33 -11 -39 -21q-5 -11 0 -21q3 -5 16 -8l14 3q8 1 25.5 5.5t26.5 4.5q17 0 28 -10q27 -21 27 -80q0 -17 -3 -38q-1 -5 -1 -11t-1 -11l-5 -162v-20v-30q0 -2 -3 -14t-3 -22v-15l5 -55v-18v-36q0 -6 -2.5 -17 t-2.5 -16q0 -26 -4 -42.5t-11 -26.5t-16 -14.5t-21 -5.5q-11 -1 -23 -1.5t-23 -2t-19.5 -4t-11.5 -6.5z" />
<glyph unicode="2" horiz-adv-x="583" d="M33 26q0 -11 7.5 -18t32.5 -8q18 -2 45 0h26h17h43h23q-2 0 6 0t25 -1t33 -1h33q8 0 20 0.5t29 1.5t28.5 1.5t18.5 0.5q74 0 73 -1q14 11 23 48q10 43 24 90q4 19 3 46l-7 7h-9q-23 -23 -24 -31q-5 -11 -9.5 -19t-6.5 -13q-15 -18 -29 -22q-11 -4 -39 -5l-71 2h-196 q-4 -2 -13.5 1.5t-12.5 8.5q33 90 154 151l68 34q63 32 117 76q65 53 78 109q10 36 10 67q0 61 -50 123q-19 23 -44 41.5t-56 32.5q-74 33 -162 27q-72 -5 -111 -27q-41 -23 -71 -74q-11 -18 -21 -70q-10 -60 0 -88q18 -43 26 -51q10 -8 26 -14l11.5 -3l19.5 -5q5 -1 9 -1.5 t9 -0.5q39 0 61 22q28 28 24 60q-3 20 -14 31q-14 14 -30 14q-6 -2 -10.5 -10.5t-13.5 -15.5q-13 -10 -32 4q-27 22 -21 67q9 69 76 102q5 4 46 8q20 2 31 3.5t13 1.5q14 -2 42 -13q29 -10 47 -21q40 -25 54 -52q18 -37 17 -87q-2 -51 -10 -69l-27 -35t-22 -23 q-31 -40 -62 -70.5t-63 -52.5l-43 -29q-66 -44 -89 -72q-14 -17 -28 -48l-10 -25.5l-10 -25.5q-3 -8 -17 -31q-11 -18 -12 -28t-3 -20z" />
<glyph unicode="3" horiz-adv-x="588" d="M28 198q0 -65 28 -105q74 -104 259 -103q53 0 109 29q32 17 56.5 39t40.5 50q38 67 38 141q0 51 -19 86q-56 102 -166 108q51 26 65 37q39 26 61 65q21 36 21 73q0 32 -16 63q-43 84 -151 91q-15 1 -28.5 1.5t-26.5 0.5q-154 0 -218 -87q-26 -35 -26 -79 q0 -24 14.5 -44.5t37.5 -24.5q25 -4 43.5 10.5t19.5 39.5q1 24 -10 31h-10q-14 6 -14 24q-1 10 7 25q32 56 129 62q68 5 107 -47q29 -38 29 -85q0 -27 -11 -57q-28 -76 -159 -118q-38 -12 -44 -31q-5 -14 4 -22q10 -9 30 0q8 2 20.5 8l29.5 14q25 13 43 13q14 0 31 -6 q34 -13 64 -58q22 -36 29 -68q2 -11 3.5 -22t1.5 -22q0 -82 -67 -152q-39 -41 -123 -41q-8 0 -14.5 0.5t-11.5 1.5q-33 6 -72 26q-54 28 -67 62q-11 29 -7 41q9 27 23 37l25 -11q13 5 25 11t19 24q10 25 -10 51q-22 30 -71 25q-39 -5 -61 -53q-10 -20 -10 -54z" />
<glyph unicode="4" horiz-adv-x="609" d="M13 227q0 -25 54 -25q7 0 16.5 0.5t17.5 1t14.5 1t7.5 0.5h24q11 -4 40 -4h20q8 0 21.5 1t20.5 1h16q15 0 25 -1.5t24 -1.5h49q3 -3 8 -42q3 -32 3 -39q-2 -56 -24 -72q-14 -11 -46 -11q-7 0 -12 1h-10q-11 4 -23 -8q0 -8 5 -13.5t11.5 -9.5t13 -6t9.5 -2q3 -1 9.5 -0.5 t16.5 1.5q11 1 16 1h8h20q9 0 27.5 2t28.5 1q10 -3 27 -3q2 0 8.5 -1.5t19.5 -3.5h58q19 0 33 12v10q-6 14 -34 14q-32 5 -36 8q-24 13 -24 71q0 6 0.5 13.5t0.5 14.5q0 8 0.5 13.5t0.5 7.5l6 37l57 4q14 6 28 57q10 37 11 60q1 25 0 28q-3 12 -23 12q-12 -8 -12 -26 q-4 -18 -6 -29q-11 -18 -25 -21q-24 0 -29 4v27q0 4 -2 11.5t-2 11.5q1 10 0 21q0 18 -1 22t-1 13v4q-1 2 -1 6v5q0 6 1 17q1 7 1 12v9v44v19q0 7 -3 39q-3 30 -2 37l6 50l3.5 39.5t1.5 30.5q0 43 -10.5 55.5t-31.5 11.5q-21 -2 -53 -37q-2 -2 -12.5 -15.5t-30.5 -36.5 l-110 -135q-10 -14 -16.5 -24.5t-11.5 -17.5l-50 -76q-5 -8 -9 -13t-8 -8l-5.5 -7t-2.5 -3q-6 -6 -8 -10l-53 -62q-1 -1 -3 -4.5t-7 -9.5l-2 -8l-5 -6q-10 -12 -15 -18.5t-6 -7.5q-23 -29 -23 -44zM117 287q17 43 34 58q14 14 25.5 28.5t21.5 30.5l60 94l35.5 43l30.5 36 l40 46q10 -7 10 -30v-5t-1 -11v-18l5 -65v-43q-1 -6 -2.5 -12t-1.5 -7v-25l2 -29v-16q0 -1 -1.5 -10t-1.5 -11q0 -22 1 -24v-26q-18 -10 -27 -11h-5q-2 0 -7 1h-24q-5 -1 -8 -1h-5q-14 0 -25 -4l-71 7q-6 0 -20.5 -1t-21.5 -1q-36 0 -43 6z" />
<glyph unicode="5" horiz-adv-x="603" d="M28 116q0 -26 10 -45q39 -71 162 -81q11 -1 21 -1.5t20 -0.5q100 0 173 46q20 17 34 30.5l24 23.5l28 24.5t20 18.5q30 39 43 118q14 81 5 117q-27 116 -140 157q-34 12 -106 3q-44 -6 -81 -27l-16 -10l-16 -10q-20 -12 -36 -12h-5q-4 3 -6 11q-2 6 0 15q1 7 1 10v3v38 q0 90 15 104q3 3 162 3h57q80 -8 107 14q11 15 19 28t13 24l18 27q4 13 0 25q-7 4 -14 4q-5 0 -25 -14q-4 -1 -13.5 -2t-23.5 -2l-46.5 -3.5t-35.5 -1.5q-16 0 -37 1.5l-49 3.5q-17 2 -23 4l-23 1h-20q-9 0 -16.5 -2t-17.5 -2q-6 0 -17.5 1t-14.5 1q-55 2 -63 -4 q-18 -11 -10 -67v-28q3 -8 3 -34q-1 -1 -1 -33v-24l-5 -29v-41q0 1 0 -7q0 -7 -1 -23q-2 -24 0 -38q1 -19 8 -29q16 -22 34 -20q16 2 42 32l26 29t11 11q25 17 63 17q35 0 65 -12q49 -19 71.5 -47t31.5 -76q2 -11 -7 -84q-14 -110 -35 -137q-34 -43 -95 -67q-55 -20 -97 -17 q-21 1 -50 15q-31 15 -40.5 33t-0.5 32q7 12 21 12q9 0 12 4l1.5 3t3.5 10q6 17 -7 36q-21 28 -60 27q-40 -1 -61 -41q-10 -19 -10 -45z" />
<glyph unicode="6" horiz-adv-x="630" d="M29 293q2 -80 16 -118q19 -50 74 -105q42 -42 51 -47q34 -19 100 -33q16 -3 36 -3q52 0 113 19q58 19 73 31q27 27 36 40q18 20 31 47q4 8 9.5 21l12.5 31l12 40.5l8 28.5q3 39 -10 89q-14 52 -59 98q-43 43 -100 60q-56 18 -92 18q-35 0 -69 -17l-23.5 -14.5 t-37.5 -25.5q-35 -24 -54 -36q-8 11 1 29q0 5 2 14.5t2 13.5l6 29l3 14q1 3 1 12q4 10 27 58q12 23 20 37t12 19q22 28 67 52q44 24 71 22q26 -5 28 -8q8 -8 9 -13t1 -9v-6q14 -21 40 -20q36 2 57 37q13 22 1 45q-20 35 -73 39q-42 3 -117 -25q-84 -32 -130 -69 q-17 -14 -36 -35.5t-41 -50.5q-51 -69 -67 -143q-12 -56 -11 -166zM145 260q0 70 29 114q25 40 90 63q24 9 55 9q58 0 99 -29t54 -74q6 -20 9 -81q1 -22 -1.5 -46t-9.5 -51q-20 -76 -59 -108q-29 -25 -86 -25q-20 0 -38 5q-38 11 -74 44q-37 34 -51 74q-17 51 -17 105z" />
<glyph unicode="7" horiz-adv-x="579" d="M29 595q0 2 2 -6l6 -25q8 -2 11 -2q12 0 29 27q5 10 11 19t11 19q25 34 82 34q10 0 27.5 -1.5t23.5 -1.5h142q7 0 21 -2.5t20 -2.5l56 -6q-15 -42 -47 -70l-35 -30l-35 -30l-37 -38l-49 -51l-19 -20l-27 -36q-33 -44 -73 -116q-49 -87 -54 -101q-21 -56 -12 -108 q6 -38 34 -47q7 -4 79 -6q73 -2 81 4q10 6 9 15q-2 10 -12.5 13t-19.5 5q-31 0 -40 48q-10 53 11 110l29 60t23 44l20 41t14 30q43 66 106 135l35 38q41 44 73 98q37 61 37 92q0 23 -21 29q-8 2 -40 4q-18 0 -32 -1t-31 -1h-33q-4 0 -25 3t-23 3h-21h-10q-5 0 -12 1h-20 h-108q-49 0 -67 -5q-15 -5 -26 -29l-18 -37l-18 -37l-20 -38q-8 -16 -8 -24z" />
<glyph unicode="8" horiz-adv-x="592" d="M31 168q3 -39 18 -69q23 -48 71 -76q31 -18 97 -26q20 -2 38.5 -3.5t35.5 -1.5q139 0 222 95q49 56 49 155q0 23 -3 35q-5 18 -32 51q-24 30 -42 46q-27 24 -48.5 33.5t-25.5 10.5q-16 0 -20 15q13 8 25.5 17l25.5 18q36 23 49 38q58 61 58 106q0 16 -4 32 q-17 75 -108 108q-56 20 -144 10q-95 -11 -139 -43q-25 -18 -40 -31.5t-22 -21.5q-30 -38 -27 -102q2 -36 46 -91l18.5 -24l12.5 -17q17 -14 30 -23.5t23 -14.5q-35 -20 -57.5 -35t-32.5 -23q-28 -23 -58 -75q-21 -35 -16 -93zM123 197q0 5 0.5 8.5t1.5 7.5q6 17 10.5 27 t6.5 15q9 37 12 42q19 36 61 55q25 11 38 11q9 0 26 -9q25 -15 39 -21q11 -3 21 -6t20 -7q26 -8 42 -23q2 -2 31 -35q28 -34 33 -47q1 -3 1 -12q0 -27 -10 -61q-10 -38 -24 -55q-24 -27 -67 -43q-45 -17 -75 -13q-55 6 -83 24q-38 23 -63 76q-21 43 -21 66zM173 618 q1 32 31 65q28 31 66 40q27 7 54 7q60 0 101 -39q32 -32 32 -93q0 -9 -2 -19q-11 -43 -38 -70q-7 -7 -37 -29q-14 -10 -22 -15t-13 -7.5t-8 -2.5h-6q-22 0 -51 22l-30.5 22.5l-29.5 22.5t-25 22.5t-16 22.5q-8 19 -6 51z" />
<glyph unicode="9" horiz-adv-x="595" d="M28 506q0 -40 10 -64q20 -47 61 -81q52 -41 126 -56q25 -5 48 -5q109 0 172 66q5 -7 1 -20v-20q-1 -8 -1.5 -16.5t-0.5 -16.5v-9q0 -30 -10 -56l-19 -38l-15.5 -38l-15.5 -39q-23 -44 -67 -63q-27 -11 -43 -11q-15 0 -29 8q-20 14 -20 24q0 -3 1 3t3 20q2 6 2 10 q0 16 -19 28q-9 6 -30 8q-17 1 -30 -5q-32 -15 -38 -53q-6 -36 26 -63q13 -12 38 -15q15 -3 48 -3q68 -1 89 5q82 26 131 85q8 10 17 23t17 30l9 17.5l20 38.5q40 79 45 95q13 37 9 162q-5 133 -32 172q-47 67 -123 108q-69 37 -136 35q-41 -2 -102 -27q-71 -30 -96 -66 q-28 -40 -40 -106q-6 -38 -6 -67zM130 588q13 89 85 129q26 14 73 14q39 0 63 -11q40 -19 87 -92l3 -31v-15q1 -6 3.5 -18.5t7.5 -32.5q7 -27 7 -46q0 -40 -31 -78q-53 -65 -140 -61q-83 5 -138 88q-15 22 -13 78q1 21 -3 37q0 1 -1 6.5t-1.5 11.5l-1 12t-0.5 9z" />
<glyph unicode=":" horiz-adv-x="180" d="M35 41q11 -25 24 -32q11 -6 38 -9q39 26 47 43q10 21 -9 49q-20 29 -49 29q-26 0 -44 -26q-18 -25 -7 -54zM35 342q-10 -34 8 -57q20 -28 67 -23q14 6 16.5 8t8.5 12q14 20 14 43q0 25 -16 41q-23 22 -57 15q-29 -9 -41 -39z" />
<glyph unicode=";" horiz-adv-x="185" d="M33 53q8 -36 56 -53q-10 -16 -19 -23q-19 -13 -22 -20q5 -17 19 -17q33 -5 68 51q21 31 21 60q0 17 -7 31q-17 37 -51 42q-33 5 -53 -15.5t-12 -55.5zM34 312q5 -33 40 -50q26 -13 56 4q25 15 27 50q1 34 -26 54t-52 11q-22 -8 -35 -29.5t-10 -39.5z" />
<glyph unicode="&#x3c;" horiz-adv-x="644" d="M14 279l69.5 -41t52.5 -29q35 -14 61.5 -23.5t46.5 -14.5l54.5 -24.5t39.5 -18.5q9 -4 11 -2q-1 1 -3.5 4t-5 6.5t-0.5 3.5l8 -2q33 -14 44 -21q25 -11 45 -19t35 -13q27 -10 70 -31q36 -17 47 -17q20 0 20 32q0 18 -7 39q-86 52 -184 90q-10 4 -27 8t-42 8q-46 9 -68 17 l-50.5 25t-35.5 19l-85 29l147 57l95.5 37.5l83.5 33.5q25 11 43.5 20.5l31.5 16.5q2 1 15.5 4.5t38.5 8.5q29 6 35 16.5t6 26.5q0 17 -6 37q-29 -3 -67.5 -13.5t-89.5 -27.5l-51.5 -22l-39.5 -18q-29 -9 -52.5 -15.5t-40.5 -10.5l-54 -28t-39 -22q-39 -16 -59 -22 l-55.5 -29.5l-37.5 -20.5v-54z" />
<glyph unicode="=" horiz-adv-x="660" d="M35 175q1 0 18.5 -1l51.5 -3q30 -2 48 -2.5t23 0.5l43 7q5 2 62 -3q31 -2 50.5 -3t27.5 -1q9 0 10 1h255q2 10 2 24v12q-1 5 -1 7v5q-4 0 -13 1t-20 2.5l-23 3t-22 1.5l-326 4l-56 -6l-68 7h-62v-56zM35 380q2 0 6.5 0.5t9.5 1.5q7 2 16 -1l140 -6q47 -2 118.5 -3 t168.5 -1q2 0 11 1.5t25 3.5h94q1 3 1 54q-23 2 -42 2t-36 -1l-93 -6q-23 5 -41 5q-15 4 -46 0q-9 3 -25 3q2 0 -8.5 -0.5t-33.5 -1.5q-35 -3 -47 -1l-32 5l-56 -5l-68 6h-62v-56z" />
<glyph unicode="&#x3e;" horiz-adv-x="643" d="M34 69q0 -32 20 -32q11 0 47 17q43 21 70 31q17 6 37 14l43 18q19 8 32.5 13t21.5 7l54.5 19.5l40.5 14.5l60.5 22.5t45.5 15.5l74 41.5l50 28.5v54l-53 29.5t-40 20.5l-39.5 14.5t-30.5 10.5l-49.5 21l-35.5 15l-50 18t-38 13l-54.5 25.5l-40.5 20.5q-56 16 -95 26 t-62 15q-5 -22 -5 -37q0 -16 6.5 -26.5t35.5 -16.5q23 -5 36.5 -8.5l17.5 -4.5l43.5 -20t33.5 -17q61 -27 80 -30q7 -1 14 -1t14 -1q10 -1 10 -4v-2q-1 -1 -1 -3q0 -4 6 -5l127.5 -51.5l72.5 -30.5q-27 -10 -48 -17l-36 -12l-50.5 -25l-36.5 -19q-11 -4 -28 -8t-41 -9 l-39.5 -8.5t-26.5 -7.5q-147 -68 -186 -90q-7 -21 -7 -39z" />
<glyph unicode="?" horiz-adv-x="396" d="M26 642q-4 -51 41 -86q25 -19 53 -19q52 0 63 42q5 21 -12 38q-11 10 -24 15q-5 1 -12 -2l-12 -6h-4l-4 1l-6 5q-5 9 -9 15q-7 12 -5 30q5 39 61 76q36 3 47 -1q58 -21 73 -64q5 -18 5 -35q0 -66 -66 -162l-38 -55q-59 -86 -59 -137q0 -21 8 -42q5 -12 9 -15.5t15 -4.5 q20 0 28 18q5 12 5 50q5 38 10 50l40.5 54l34.5 43l13 19l33.5 49t21.5 33q31 47 36 62q6 18 1 67q-4 47 -23 69q-15 11 -27 19t-22 13q-42 22 -80 23q-58 3 -105 -23q-21 -11 -49 -48q-10 -16 -18 -27t-13 -19q-8 -29 -10 -45zM101 56q0 -24 16 -44q20 -25 56 -20 q32 5 47 39q5 15 5 23q0 16 -14 35q-27 34 -58 28q-14 -3 -29.5 -16t-19.5 -28q-3 -8 -3 -17z" />
<glyph unicode="@" horiz-adv-x="973" d="M31 298q1 -33 6 -76q7 -74 47 -152q54 -107 218 -182q4 -2 12 -7.5l20 -13.5q24 -17 37 -21q24 -7 57 -7q13 0 32.5 2t45.5 6q27 4 48 5.5t36 1.5q106 0 276 114l-26 33q-185 -104 -325 -104q-11 0 -22 0.5t-22 1.5q-95 7 -222 112l-25 19l-25 19q-30 23 -45 43 q-58 76 -58 169q0 13 1 33.5t3 49.5q1 29 27 76l20 34.5t21 34.5q71 119 189 167q92 38 157 39q88 3 161 -21q19 -9 34 -24q23 -24 32 -31q8 -6 48 -26q36 -19 43 -30q46 -67 46 -175q0 -74 -21 -123q-45 -109 -127 -122q-45 -7 -67 16q-19 20 -19 66q0 33 10 59 q13 33 13 50q0 14 -2 12l18.5 29.5l12.5 21.5q7 14 13.5 34t11.5 46q4 21 9 45q-27 16 -46 14q-12 -4 -20.5 -7.5t-13.5 -6.5l-25 -84q-5 14 -8 23.5t-5 13.5q-31 59 -104 64q-51 2 -121 -61l-41.5 -39t-20.5 -22q-33 -50 -43 -95q-5 -20 -7.5 -37.5t-3.5 -31.5 q-3 -69 9 -95q37 -77 117 -84q28 -3 51 0.5t44 14.5t40 30t40 47q18 -72 82 -88l36 -8t22 -3q49 0 118 63q37 49 51 78q58 86 62 131q3 30 -7 69l-15 60q-12 65 -29 88q-16 26 -48 55q-5 5 -20 16.5l-40 30.5q-10 8 -19 16.5t-19 16.5q-23 19 -45 27q-90 34 -199 34 q-105 0 -186 -34q-46 -18 -101 -63q-26 -20 -42 -34t-22 -21q-108 -119 -119 -244q-2 -25 -1 -58zM360 207q0 27 24 104q28 94 42 112q22 31 48 46q20 11 39 11q17 0 34 -9q37 -17 45 -66q1 -9 -9 -33q-12 -28 -16 -42q-10 -44 -15 -68t-7 -29q-17 -54 -40 -74 q-35 -30 -71 -30q-32 0 -53 23t-21 55z" />
<glyph unicode="A" horiz-adv-x="977" d="M18 23l14 -23h166q5 0 15.5 -1.5t14.5 -1.5q18 0 29 14v6q-8 17 -37 17q-27 9 -35 21q-14 24 5 55l30 51q3 5 9 18.5l16 34.5q15 33 24 42q18 16 49 15q17 -1 28.5 -1.5t17.5 0.5h46h33h47q21 0 25 -4h17q40 4 58 6t14 2q18 0 32 -11q13 -22 21 -44l16 -31.5l12 -23.5 q26 -55 31 -83q1 -30 -22 -44q-12 -8 -38 -3q-3 0 -19 6q-14 7 -17 7q-17 1 -25 -10q-6 -10 7 -26t67 -16q21 0 53 3l26 1.5t11 0.5h33q7 1 11 0q7 -3 23 -3h22q5 0 11.5 -3.5t12.5 -3.5h15q33 0 43 2q26 9 26 21q0 2 -2 10q-12 7 -33 7q-20 0 -33 4q-50 15 -81 108l-6 18 l-6 22q-4 15 -8 21l-14 36t-15 36l-24 48l-17 34l-41 107l-5 12l-1 6l-4 5q-31 73 -46.5 115.5t-23.5 62.5q-22 56 -22 66q0 21 54 57q0 21 -29 21q-20 0 -40 -14l-29 -20q-19 -11 -37 -23t-37 -23q-16 -13 -41 -66l-19.5 -40.5t-13.5 -29.5l-28.5 -54.5t-22.5 -39.5 l-58 -119l-42 -77l-29 -52q-30 -61 -37 -79q-40 -84 -60 -106q-21 -21 -87 -43zM319 327q-7 7 1 31q13 38 27 66.5t28 48.5q20 29 37.5 58t31.5 58l22 45q13 13 17 15q13 -13 16 -21l11 -23q6 -8 6 -22q3 -8 5 -14t3 -10l7 -17q4 -8 7 -15t6 -13l20 -47l7 -33l14 -33 q18 -44 21 -68q-11 -11 -27 -11l-29 -3h-49q-20 0 -28 -2h-49h-52q-44 0 -53 10z" />
<glyph unicode="B" horiz-adv-x="724" d="M28 30q0 -8 9.5 -17t33.5 -12q5 -1 66 -1h130q11 0 43 3q13 1 22 1h17q31 -2 53 -2.5t36 -1.5q47 -1 81 5q36 9 81 38l9 3q39 43 48 58q26 34 34 111q6 67 -2 91l-8.5 18.5t-11.5 19.5q-4 7 -23 32q-35 46 -63 60q-26 9 -46 15t-34 8q58 22 80 38q33 24 53 68 q10 21 10 52q0 58 -28 98q-32 46 -90 71q-67 29 -149 29h-26l-63 -3h-40q-8 -1 -30 -1.5t-57 -0.5h-17q-9 0 -20.5 1t-22 1.5t-18.5 1.5t-11 1q-14 0 -28.5 -9t-12.5 -22q3 -8 8 -10l10 -4q7 0 20.5 1t19.5 1q28 -3 38 -13q11 -9 12 -49q1 -11 1 -18v-7q5 -15 5 -26v-20 q-4 -12 -4 -24q0 -7 1 -12v-10v-16q-1 3 -1 -24v-65v-14t1 -22l6 -159q0 -4 -1 -12t-3 -22q-3 -27 -3 -28v-97v-44q-6 -57 -67 -44l-23 5q-14 3 -21 -4q-4 -15 -4 -17zM258 159v32l3 188l1 62q7 7 11 7l3.5 -1l10.5 -3q18 -5 27 -6q11 -2 24 -2t29 1q63 4 106 -15 q31 -15 63 -47q30 -30 38 -63q3 -11 1 -24q-2 -12 -3 -18.5t-1 -7.5l2 -25.5l2 -24.5q-1 -21 -15 -56q-7 -18 -21 -43q-6 -12 -17 -23.5t-24 -21.5t-27 -16.5t-26 -7.5q-17 -2 -38 -3t-44 -1q-72 0 -86 14t-14 53q0 14 -1.5 26.5t-3.5 25.5zM260 691q-2 7 3 18q4 47 36 61 q15 6 58 6q85 0 117 -24q53 -42 53 -107q0 -19 -6 -62q-4 -26 -27 -55q-23 -30 -55 -41q-18 -6 -72 -6q-71 0 -87 12q-18 13 -19 56q1 -12 1 2v56v32q1 3 1 35q0 3 -3 17z" />
<glyph unicode="C" horiz-adv-x="771" d="M31 372q1 -23 3.5 -40.5t6.5 -30.5q8 -19 14.5 -36.5l12.5 -33.5q15 -62 36 -96q22 -37 86 -78q56 -36 85 -47q42 -16 72 -19q8 -1 27 -1q20 0 49 2q44 1 64 8q26 6 82 37q76 42 115 105q14 23 32 64q22 48 23 64q4 28 -4 35q-10 10 -20 1q-13 -6 -32 -55 q-13 -32 -23.5 -54.5t-20.5 -36.5q-32 -47 -94 -79q-56 -29 -98 -27q-77 1 -106 16q-40 28 -51 44q-19 13 -27.5 18t-12.5 7l-7.5 5.5l-6.5 4.5q-14 14 -18 31l-11 40t-5 16l-6 11.5t-13 26.5q-7 13 -11 25t-6 23l-12 70.5t-4 24.5q-1 36 17 118q6 28 15 51.5t20 43.5 q19 25 34.5 43.5t26.5 30.5q64 73 241 64q27 -2 69 -27t54 -47q8 -15 7 -59q0 -19 -3 -28q-4 -11 -7.5 -18l-5.5 -11q-3 -18 7.5 -26.5t22.5 -2.5q22 10 35 52l6 26l6 27l12 49l6 18t11 31q10 28 9 34q-4 13 -18 16q-9 2 -15 -3l-12 -10q-20 -11 -28 -13q-1 0 -66 20 q-39 13 -67 14q-52 4 -85 5t-48 -1q-48 -6 -111 -30q-62 -22 -102 -56q-23 -19 -46 -51q-5 -8 -14.5 -22t-22.5 -35q-48 -79 -57 -106q-15 -44 -10 -142z" />
<glyph unicode="D" horiz-adv-x="952" d="M30 16q10 -10 22 -13q1 0 7.5 -0.5t17.5 -1.5q7 -1 18 -1h28h216q33 1 58.5 1.5t44.5 0.5q10 0 22.5 -0.5t28.5 -1.5q126 -4 202 36q66 35 125 93q44 42 59 71q43 80 43 213q0 112 -43 179l-30 40t-22 27q-6 6 -31 42q-18 25 -30 36q-20 17 -49 31q-18 8 -49 18 q-83 27 -115 30q-9 1 -22 0.5t-30 -2.5q-23 -2 -37 -3t-19 -1l-193 -6q-9 -1 -22.5 0.5l-32.5 3.5h-107q-39 0 -48 -9q-12 -21 6 -33q18 1 39 3q16 3 23 3q13 0 28.5 -8t19.5 -16q1 -2 2 -7t2 -13v-59q1 2 1 -35v-422q0 -142 -30 -161q-14 -10 -41 -7q-17 6 -41 6 q-15 -3 -21 -11q-3 -10 0 -23zM276 320q0 8 0.5 19.5t1.5 27.5q3 33 3 50v22q0 15 -1 37v55q2 51 3 73t1.5 43t1.5 42q10 61 47 77q21 9 123 9q100 0 141 -21q20 -13 35 -24t26 -20q36 -24 52 -52l20 -31.5l20 -31.5q33 -51 36 -62q8 -26 13 -56.5t7 -64.5q2 -35 0 -64 t-7 -52q-13 -53 -45 -100l-37.5 -43.5t-28.5 -29.5q-48 -48 -79 -62q-33 -14 -88 -15q15 0 -106 3q-89 1 -107 16q-20 17 -25 56v64q2 29 0 65q0 10 -4 33q-3 22 -3 37z" />
<glyph unicode="E" horiz-adv-x="762" d="M30 776q4 -13 22 -17q30 1 42 6q4 0 21 -6q17 -4 20 -7q24 -17 28 -67v-68v-58v-20q0 -11 -1 -27t-1 -28v-20v-113v-24q0 -13 -1 -32q-1 -18 -1 -31v-20q1 -30 2 -48.5t2 -25.5t1.5 -15t0.5 -16q0 -77 -37 -92q-17 -7 -51 -7q-18 -2 -26 -3q-12 -5 -12 -23q10 -14 38 -16 q4 0 10.5 0.5t12.5 0.5t11 0.5l5 0.5h41h6t13 1t12.5 1.5t3.5 0.5q5 0 18 1.5t18 1.5l344 -6h29t19 1q6 -1 12 -1t11 -1q12 -1 21 4q7 6 18 45l6 23l6 23l18 45q20 52 20 85q0 19 -6 31q-9 18 -19 18q-9 2 -17 -12l-13 -43l-27 -43l-25.5 -43t-33.5 -40q-37 -34 -89 -44 q-45 -9 -69 -8q-9 0 -30 3.5t-34 3.5q-20 -1 -31.5 -0.5t-16.5 1.5q-23 3 -37 20q-12 16 -12 77q0 16 1 39.5t3 54.5q4 54 3 64q0 5 1 9v7l-1 4l1 4l-3 8v52l26 24q54 0 67 -4q51 -14 69 -75q2 -7 3.5 -14t3.5 -15q6 -22 15 -23q11 -6 23 6t12 51q0 11 -1 24t-3 28 q-3 30 -3 27v27q0 4 -1.5 12.5t-1.5 11.5q3 6 3 25v17q0 27 -10 48t-15 25q-15 4 -23 1q-6 -8 -6 -24v-21q0 -20 -5 -42q-6 -22 -11 -27q-4 -5 -23 -10.5t-58 -5.5q-40 0 -49 6q-10 8 -11 17q-1 4 -1.5 8t0.5 9q1 8 1 11v4v100q0 9 -0.5 20.5t-0.5 22.5q0 12 -0.5 21 t-0.5 13q0 37 17 57q18 20 82 20q11 0 22.5 -0.5t23.5 -1.5h33q60 0 72 -4q23 -7 58 -48q15 -18 20 -55q1 -12 2 -19.5t2 -9.5q0 -14 14 -25h9q21 9 21 39q2 3 0 74q0 72 -1 73q-17 23 -71 17h-238q-5 0 -13.5 -1t-10.5 -1h-51h-8t-17 1t-20 1h-15h-49q-112 0 -123 -8 q-10 -7 -5 -18z" />
<glyph unicode="F" horiz-adv-x="670" d="M31 785q3 -15 16 -15q9 -3 42 -3q25 1 39 -11q7 -5 13 -50q1 -11 1 -24v-27q-4 -40 -6 -65q-2 -41 6 -111q0 -1 0.5 -5.5t1 -9.5t1 -9l0.5 -4v-34q0 -7 -1 -21.5t-1 -19.5v-21l5 -46v-58l-3 -18q0 -5 -1 -16.5t-1 -15.5v-97q0 -36 -19 -49q-11 -8 -47 -11q-10 -1 -16 -1 h-8q-16 0 -20 -12v-14q16 -16 25 -17l27 -3h29q5 0 14.5 1.5t13.5 1.5h23h35h27h23h24h15h31q18 4 30 16l14 24q-12 8 -20 6q-5 -1 -10 -1.5t-10 -1.5q-23 -1 -40 7q-25 12 -25 52v88l-4 48v15q5 10 5 20q0 11 3 20q0 -5 -3 40q-4 62 2 75q7 16 22 19h7q8 0 22 -1 q6 0 12 0.5t13 1.5t25 -2q40 -6 52 -42l2 -15.5l2 -15.5q5 -24 15 -28q6 -3 13 -0.5t13.5 9t11 17.5t4.5 25q0 15 -9 60v62v7q0 8 1 24q1 11 0.5 19.5t-1.5 14.5q-2 18 -6 22q-9 13 -21 9q-17 -5 -26 -42q-17 -65 -46 -74q-17 -6 -42 -6q-33 0 -49 12q-9 6 -17 40 q-6 28 -6 50q0 7 1.5 17.5t1.5 12.5v45q0 80 27 101q23 17 114 17q77 0 107 -8q46 -14 62 -38q19 -40 27.5 -64t6.5 -44q-3 -11 -3 -17q0 -14 18 -21q12 7 26 28q8 8 9 31q-1 23 -2 43.5t-2 37.5q1 27 0.5 44t-1.5 25q-5 26 -46 26q-9 0 -22.5 -1t-17.5 -1h-431 q-92 0 -93 -4q-10 -11 -5 -19z" />
<glyph unicode="G" horiz-adv-x="871" d="M31 355l39 -149q44 -92 120 -137q39 -24 150 -59l50 -15q44 -14 80 -14q75 0 196 76q24 15 44 12q36 -14 42 -12q2 14 2.5 28.5t-0.5 28.5q-3 40 -3 30l15 138q0 24 2 30q4 12 10 16.5t13 8.5q47 0 52 9q5 8 -1 21q-11 17 -53 20q-25 1 -61 -3q-36 -5 -56 -3 q-19 3 -33 5.5t-24 4.5q-5 0 -16 -2.5t-14 -2.5h-29q-23 -2 -31 -10q-14 -11 -14 -29q15 -20 40 -20l24 4h21q33 -8 43 -19q11 -11 11 -57q0 -59 -8 -91q-8 -31 -41 -67q-33 -38 -62 -47q-15 -5 -61 -9q-44 -4 -59 -1q-10 2 -61 21q-53 20 -59 24q-27 17 -42 41 q-20 31 -31 46.5t-12 17.5q-35 46 -43 107v22q-3 21 -11 47q-5 18 -5 33q0 5 0.5 12.5t1.5 15.5v5q0 4 1 9v13q2 5 3 12t2 16q0 4 -0.5 10.5t-1.5 16.5q-1 9 4.5 25.5t12.5 29.5q5 10 9.5 17t6.5 12q6 20 10 29l11 27q25 64 93 100q21 11 54 17q50 9 84 5q42 -5 94 -22 q28 -9 29 -10q11 -6 23 -24q22 -29 30 -57q5 -13 -1 -63q-1 -16 0 -31q1 -7 5 -16q2 -4 13 -11q16 0 32 10q12 12 16 32v16q11 58 21 89q1 2 8 13l20 31q20 32 20 44q0 17 -15 26q-14 6 -36 -6q-6 -2 -32 -18q-10 -7 -20 -7q-8 0 -32 8l-36 14q-41 16 -135 21q-96 6 -124 1 q-62 -11 -123 -57q-39 -29 -61 -59.5l-45 -62.5q-11 -14 -20 -29t-14 -32q-2 -7 -6.5 -24t-10.5 -44q-19 -91 -15 -148z" />
<glyph unicode="H" horiz-adv-x="990" d="M31 36q-5 -12 6 -23q14 -14 75 -14h18t21 1h25h135q27 -2 40.5 -3.5l13.5 -1.5q6 0 27 8q14 16 10 27l-15 6q-14 1 -27 1t-26 1q-36 1 -53 17q-11 9 -12 21q-1 2 -1 10q0 9 -1 23q-2 21 -2.5 34t-1.5 18l4 55q2 12 0 26l-3 51q1 14 1.5 27t1.5 26q5 42 16 52q17 14 46 14 q6 0 15 -1t18 -1.5t17.5 -1.5t12.5 -1l192 6q120 -9 129 -19q7 -8 8 -29q1 -8 0.5 -18t-1.5 -23t-1 -20v-8l6 -122q0 -2 -3 -17t-3 -16v-15q0 -7 -1 -17q-3 -50 -25 -63q-14 -8 -56 -5l-7 2l-7 3q-10 0 -13 1q-17 0 -26 -13q0 -13 3 -16q0 -2 13 -9l28 -9q19 -2 29 -2.5 t14 -0.5q12 -3 14 -3q17 -2 29 3q27 6 29 6q12 2 26 2.5t30 -1.5q2 -1 45 -7q31 -6 51 -6q34 0 54 15q14 4 10 20q-3 9 -23 14q-4 1 -22 -2q-8 -1 -13 -1.5t-7 -0.5q-29 0 -42 10q-20 15 -21 64q1 -12 1 2v56v114q0 1 3 21v78l-3 3v37q0 5 1 16.5t1 15.5v23q0 5 1 9v9v43 q-5 15 -5 21v17q5 13 5 29q6 17 0 29l5 41q1 11 1.5 21.5t1.5 21.5q2 27 15 37t42 12q35 2 41 4l18 12v8q-13 7 -21 10t-12 4q-2 1 -31 1h-49h-115l-60 5q-8 1 -18 0.5t-21 -1.5q-30 0 -39 -15v-10q7 -12 30 -12h30q22 -3 36.5 -7t23 -12.5t11.5 -21.5t3 -34 q-1 -13 -0.5 -20t1.5 -9q0 -27 -1 -26v-49q-1 -16 -1.5 -31t-1.5 -31q-5 -49 -17 -57q-20 -14 -48 -14q-10 0 -28 2t-26 2h-53h-8t-14 -1h-21l-81 5h-21q-8 -1 -12 -1h-6h-16q-2 0 -10 -0.5l-24 -1.5q-11 -1 -19.5 -0.5t-15.5 1.5q-18 2 -26 11q-11 13 -11 51q0 8 0.5 18 t1.5 22t1.5 18.5t0.5 8.5v50q0 18 2 31t3 28q1 43 22 55q9 5 27 7q7 2 14 1q7 -2 10 -2.5l3 -0.5q18 -1 27 2q7 4 13 7l12 6v10q-3 14 -19 15l-23 2h-45h-34q-16 0 -29.5 1l-26.5 2t-27.5 2t-32.5 1h-56q-17 3 -24 3h-25q-15 -7 -22 -16v-10q9 -13 21 -13h25q29 -1 46 -14 q22 -16 25 -57q1 -14 1 -29v-29l2 -29q-1 -14 -2 -24t-2 -17l2 -89q0 -5 1 -17t1 -18q-2 -23 -2.5 -40t-1.5 -29l3 -83q-2 -23 -3.5 -37t-3.5 -21l1 -5l-1 -5l-1 -8v-61q0 -93 -20 -110q-14 -11 -39 -11l-37 6q-20 -8 -24 -13z" />
<glyph unicode="I" horiz-adv-x="448" d="M27 21q-9 -28 43 -28q11 0 25.5 1t33.5 3q39 3 45 3h38q7 1 13 1h14q10 0 22.5 -1t25 -2.5t23.5 -2.5t17 -1q37 0 85 19q3 6 3 11q0 17 -26 17q-10 1 -28 -2q-20 -3 -27 -3q-20 0 -37 14q-22 19 -22 71q0 7 0.5 17t1.5 19.5t1.5 17t0.5 10.5v16l-2 25q0 4 1 12.5t1 13.5 v75l0.5 7.5l1.5 22.5v25q0 6 -1.5 17t-1.5 15v122q3 7 3 41v56v6t-1 15q-2 15 0 27q1 24 5.5 39t13 23.5t21.5 12.5t31 6q9 3 26 3q12 0 25 -5q17 1 22 12q5 10 -4 20q-5 8 -108 8h-51q-1 0 -11.5 1l-31.5 3h-71q-97 0 -104 -6q-11 -9 -8 -22q2 -12 21 -16q8 -2 47 0 q29 2 45 -14q13 -13 14 -67q1 -10 0.5 -21.5t-1.5 -25.5q-1 -8 -1 -15t-1 -15q-1 -26 -1 -47v-36v-45q0 -25 1 -58q0 -7 2.5 -21.5t2.5 -20.5v-32l-3 -5l1 -4v-7q-1 -23 -1.5 -40.5t-0.5 -30.5q0 -14 0.5 -33t1.5 -42q1 -5 1.5 -11t1.5 -11q1 -11 1.5 -20t-0.5 -17 q-5 -55 -34 -77q-17 -12 -31 -12q-6 0 -19 2.5t-21 2.5q-7 0 -11 -1q-22 -8 -23 -15z" />
<glyph unicode="J" horiz-adv-x="627" d="M19 255q0 -16 9 -43q10 -29 15.5 -50.5t7.5 -34.5v-16q0 -98 36 -110q14 -5 37 9q24 14 35 9l18 -6q48 -15 92 -15q78 0 130 49q31 29 39 53q5 19 11 37.5t11 37.5q8 23 12.5 38.5t6.5 24.5q3 18 3 68v40q7 24 7 36v22q0 34 3 42v21q0 15 1 17v19v16q-1 5 -1 15v18 q2 25 3.5 36t1.5 7v86q0 65 21 79q12 7 87 9v21q-12 16 -27 16q-9 2 -14 0q-5 -4 -13 -4h-119q-3 0 -7.5 -1t-6.5 -1l-74 6q-25 2 -42 -1q-33 0 -39 -19q23 -10 29 -10q10 -4 16.5 -6t10.5 -4l27 -3q19 -3 27 -11q5 -23 7.5 -43t3.5 -38l3 -30t1 -9q0 -7 -4.5 -20t-4.5 -20 v-20q3 -11 3 -30v-50q-8 -21 -8 -44v-111v-18q-1 -6 -1 -11v-6v-35q0 -2 -1.5 -11t-3.5 -24l-7 -17q-5 -12 -5 -17l-5 -49q-7 -75 -47 -102q-25 -18 -73 -4q-38 12 -82 83q-5 8 -18 33.5l-35 68.5l-9 18q-14 27 -24 36q-9 15 -33 15q-7 -3 -8.5 -9t-2.5 -12v-21z" />
<glyph unicode="K" horiz-adv-x="887" d="M33 41q-8 -11 3 -24q15 -19 81 -19h18q11 0 23 1t18 1h9h34q8 0 20 -0.5t28 -1.5t28 -1.5t20 -0.5q55 0 96 27v10q-5 14 -24 14q-5 1 -11.5 0.5t-14.5 -1.5q-41 -7 -53 -2q-20 8 -25 26q-4 9 -4 40v44q-1 6 -1.5 20.5t-0.5 37.5v58q0 10 -1 27.5t-1 25.5q0 33 20 58 q35 43 56 41q12 0 53 -48q16 -19 26.5 -33t17.5 -25l47 -74q4 -3 9.5 -9.5t8.5 -10.5l23 -36l12 -19.5t8 -14.5l67 -103q29 -44 64 -51q13 -4 85 -4h32q25 0 34 6q23 15 23 29q-13 17 -32 10q-16 -10 -32 -3q-41 7 -57 45l-7 16q-13 32 -37 59l-19 22q-9 12 -21 22l-19 22 q-14 26 -15 31q-5 9 -10 16.5t-10 13.5l-34 52q-5 11 -9 18.5t-7 12.5l-10 16q-44 63 -57 74l-26 33q9 49 113 138l71 60q10 10 20 19l21 19q24 23 44 31q15 6 44 6q25 -10 41 13v5q-6 11 -26 19q2 -1 -30 -1h-51q-26 0 -54 1.5t-58 5.5h-15q-16 0 -26 -3q-13 0 -22 -13v-7 q1 -7 14 -12l8 -2l8 -2q22 -5 31 -6q18 -10 19 -22q0 -18 -37 -45l-25 -18l-27.5 -28l-19.5 -20l-20 -19q-8 -5 -13.5 -9.5t-9.5 -6.5q-20 -14 -21 -15l-50 -53q-18 -19 -22 -22q-18 -11 -24 -15l-24 -22t-21 -13q-8 -3 -20 6q-5 7 -5 24q0 -4 9 85v30q0 11 -1 26.5t-1 25.5 v20q0 68 22 86q22 17 47 16q33 -4 44 -1l16 12q0 23 -22 23q-2 1 -34 1h-18l-6 -1l-18 -3h-94q-2 -1 -21 1q-17 3 -18 3h-67q-34 0 -76 -14v-20q3 -8 12 -12q9 -3 15 0q8 4 33 4q51 -6 61 -19q4 -26 6.5 -50t4.5 -47q1 -8 1.5 -14t0.5 -11q0 -11 -4.5 -29t-4.5 -42v-23 l2 -27v-147q0 -35 -0.5 -57t-1.5 -32v-28v-36v-46q0 -43 -11 -81q-11 -32 -40 -32q-9 0 -26 4t-24 4q-24 -2 -25 -10z" />
<glyph unicode="L" horiz-adv-x="716" d="M28 790q0 -11 15 -20q20 -3 26 -2q39 -5 52 -13q9 -7 11 -24v-32v-66v-17q1 -3 1 -11q1 -23 1 -41v-31q0 -10 2.5 -32t2.5 -35v-16t-1 -24t-1 -24v-16v-24q0 -13 1 -32v-54q0 -10 -0.5 -21.5t-1.5 -25.5q-3 -32 -3 -40q-2 -35 0 -60q0 -48 -17.5 -66.5t-67.5 -18.5 l-15 -14l10 -26q70 -5 78 -3q23 1 38 3q28 3 38 3l148 -6q13 -1 22 -1h15h203q41 0 55 24q8 15 17 68q7 10 7 19l5 21l6.5 23t12.5 42q11 36 11 52q0 6 -2.5 14t-6 14t-8.5 9t-11 0q-19 -3 -37 -46q-6 -14 -6 -15l-3 -14q-4 -10 -7.5 -17t-5.5 -12q-13 -22 -21 -28 l-12 -15.5t-8 -11.5q-8 -11 -21.5 -22t-30.5 -22q-15 -10 -28.5 -16t-25.5 -10q-16 -4 -94 -3q-79 1 -93 10q-30 19 -30 117v89q-1 5 -1 8v7v34l-3 6l3 4v8q1 -1 1 19v146q3 28 2 45q-1 11 -3.5 22t-2.5 24v49q0 10 1.5 22.5l3.5 28.5q6 40 14 52q22 25 69 25h17l9 14l-3 5 q-6 10 -36 10h-6q-4 0 -12 1h-21h-208q-8 3 -11 2l-7.5 -1.5t-4.5 -0.5q-15 0 -21 -10z" />
<glyph unicode="M" horiz-adv-x="1086" d="M30 20q0 -9 11 -17q4 -3 38 -3h93h15q11 0 25 -1q13 -1 22 -1h15q19 2 26 6q11 11 11 19q0 6 -15 14q-6 0 -17 1.5t-15 1.5q-22 3 -32 15q-18 18 -18 54q0 2 2 20l6 52v102q0 1 2.5 18.5l7.5 51.5l5 34q2 14 3 22t1 12q1 -1 1 32v31q4 24 9 39v76q0 -4 -0.5 2t-1.5 20 q-2 15 3 21l5 -5l3 -5l5 -13q3 -8 4.5 -13.5t2.5 -7.5l8 -23l20 -73l10 -24q8 -14 14 -26q4 -19 9 -28l8.5 -16.5l5.5 -10.5q7 -9 11.5 -15.5l7.5 -10.5q6 -16 10.5 -30t8.5 -25l8.5 -15.5t5.5 -11.5q13 -23 16 -26l52 -138l12 -27.5t13 -27.5q22 -50 28 -54q9 -5 19 1 q16 9 52 85l17.5 38l19.5 44l80 188q0 5 6 10l8 11q4 7 6.5 12t3.5 9l9 24l11 20l28 68q16 14 20 33l8 18q5 10 7.5 17t3.5 11q3 10 5.5 17t4.5 12l15 27q12 -5 12 -27q1 -10 0 -29q-1 -8 -0.5 -15.5t1.5 -13.5q1 -8 1.5 -15t0.5 -14v-15q3 -10 1 -22q-1 -9 -1.5 -14.5 t-0.5 -7.5v-16q2 -9 3 -16t2 -12v-50q0 -5 -3 -21q-1 -9 2 -21v-104l3.5 -13.5t2.5 -9.5v-30q-2 -8 -2 -19q-3 -9 -3 -16v-36q0 -51 -17 -70q-12 -12 -49 -14q-11 -1 -17 -1h-8q-14 0 -23 -12q0 -27 29 -27h40h20q67 7 135 0h37h7q6 0 14 -1t14 -1h8q18 0 23.5 3.5t5.5 18.5 q-7 19 -39 19q-17 2 -27.5 4t-14.5 4q-22 13 -22 68l-6 61q0 5 -1 16t-1 14q-1 11 -1.5 18.5t-0.5 11.5q-3 72 -5 133.5t-3 115.5q1 23 1 40t1 28q-2 40 -4 68.5t-4 46.5q-5 62 9 76q9 9 45 15l26.5 6.5t17.5 4.5l3 6q0 20 -16 24h-30h-31q-11 0 -19.5 -0.5t-16.5 -1.5 q-12 -2 -35 0q-62 2 -69 -2q-28 -11 -47 -96v-15q-10 -24 -10 -31q-6 -26 -9 -30q-9 -19 -17 -34t-15 -26l-94 -206l-13.5 -23t-9.5 -14l-10 -20l-26 -69l-9 -21q-5 -23 -15 -30q-17 34 -25.5 61.5l-16.5 54.5q-6 20 -23.5 48t-30.5 68l-6 18l-9 13q-2 5 -4 8t-3 5 l-8.5 15.5l-5.5 10.5l-11 26q-5 13 -5 25q-3 10 -9 24l-28 49l-12 20q-11 19 -20 39t-14 41q-18 69 -28 77q-10 10 -34 13q-8 1 -19 1.5t-24 -0.5q-19 -1 -27 -1.5t-6 -0.5h-15q-6 0 -18 1.5t-16 1.5h-20h-16q-6 0 -10 -1q-18 -6 -25 -16l-2 -12q0 -15 19 -15h28 q29 0 52 -20q29 -26 29 -77v-39q0 -41 1 -37l-11 -64q0 -17 -1 -16l-30 -334q-2 -14 -3.5 -29t-3.5 -29q-3 -23 -7.5 -36.5t-11 -21t-15.5 -10.5t-21 -4h-18t-19 -1q-6 -11 -6 -17z" />
<glyph unicode="N" horiz-adv-x="967" d="M31 27q-4 -10 4 -20q13 -15 69 -10l14 3h12q12 2 26 0l25 -2q17 -1 26 -1t26 -3q19 -2 39.5 3t34.5 20l-11 22q-43 0 -55 5q-31 18 -33 86q-1 21 -1 37v28q0 7 0.5 17t1.5 24t1.5 25t0.5 19q0 6 -1 15t-1.5 18.5t-1.5 17.5t-1 12q-1 16 -0.5 31.5t2.5 29.5l7 38v24 q-6 49 -6 72v26q0 5 1.5 13t3.5 21q0 25 9 31l17 -14q16 -19 26 -32t15 -21q6 -5 9.5 -8.5t5.5 -4.5l5 -6l5 -7l24 -24l14 -16q3 -3 9 -8.5t13 -11l14 -11l11 -8.5l23.5 -27t13.5 -18q5 -4 10 -9l12 -12q16 -17 23.5 -35.5t21.5 -33.5q34 -33 51 -51l16.5 -22l11.5 -16 l33 -32.5l24 -22.5l34.5 -37.5t19.5 -21.5q24 -25 47 -64l9 -15q32 -51 78 -50q23 1 34 1q12 0 10 0q38 9 41 13q0 17 -4 21.5t-22 11.5q-18 13 -20 15q-2 5 -5 11t-5 11q-16 32 -16 86v51q0 26 -4 35v36q5 33 6 64q1 19 1 33v23l5 55t4 37v7q-1 2 -1 7q1 4 0 15v59 q4 13 4 32v57q0 57 18 74q12 5 21.5 8.5t16.5 4.5q23 0 35 18l-1 14q-8 9 -28 9l-6 1h-8h-6q-3 -1 -6 -1h-14q-5 -1 -8 -1h-5l-28 -3l-81 5q-11 1 -20.5 0.5t-17.5 -1.5q-23 0 -34 -17q0 -16 16 -16q8 -2 21 -2q29 -5 44 -15q30 -23 30 -59q0 -8 -2 -25.5t-2 -27.5 q-1 -23 -1.5 -40t-0.5 -29q0 -3 0.5 -10.5l1 -15.5l1 -16t0.5 -14q-3 -50 -6 -74q-2 -65 -3 -83q1 -17 2 -30t2 -23q-4 -9 -4 -26q0 -23 -1 -25v-26l-7 -10q-15 0 -39 31l-26 34l-6 6l-6 5l-8 11l-18 24l-26.5 28.5t-16.5 16.5l-17 15q-8 14 -14.5 24t-10.5 17l-46 49 q-8 9 -14.5 15.5l-10.5 10.5l-12 14l-5 7l-55 50q-38 35 -52 53l-20 28.5l-20 28.5l-16 17l-48 63q-24 31 -60 36q5 -1 -24 -1q-4 0 -12 -1t-12 -1q-5 0 -16.5 1t-29.5 3q-23 2 -34.5 3.5t-12.5 1.5h-24q-13 -5 -20 -17q0 -11 11 -22q8 0 21 -4l31 -9.5t13 -4.5 q54 -32 54 -114v-16q-5 -17 -5 -41v-125v-7t1 -12v-17l-6 -97q1 -4 1 -23v-41q0 -156 -37 -194q-18 -19 -34 -22q-12 -6 -35 2q-13 -1 -18 -14z" />
<glyph unicode="O" horiz-adv-x="915" d="M28 398q0 -27 21 -97l13.5 -47l9.5 -34q15 -35 36 -60q26 -31 48.5 -53t42.5 -35q21 -14 76 -36q2 -1 22 -8l58 -21q11 -4 33 -7.5t54 -5.5l48.5 -3.5t38.5 -1.5q69 2 174 62q47 40 65 63q61 63 75 90q20 38 29 67q14 47 14 100v35q0 22 -30 150l-9 38q-7 32 -29.5 56.5 l-46.5 48.5q-31 34 -49 47q-17 14 -56 34q-33 17 -70 22l-67 8q-72 8 -119 2h-29q-66 0 -139 -35q-54 -25 -77 -47q-37 -45 -57 -74q-14 -20 -24 -36.5t-16 -29.5q-9 -21 -15 -44q-2 -7 -4 -19.5t-5 -29.5q-2 -12 -5 -24t-5 -25q-6 -29 -6 -50zM158 410q-1 49 0 74 q-1 34 3 61q8 45 43 102q19 29 38.5 51.5t40.5 36.5q15 10 60 24q20 6 35 10t26 6q7 1 13 1.5t12 0.5q8 0 16.5 -1t18.5 -3q16 -4 25.5 -5.5t14.5 -2.5q13 -2 25 -3.5t25 -3.5q8 -2 21 -10t30 -21q11 -8 60 -65q47 -55 55 -70q2 -4 6 -21l11 -49q13 -57 15 -71v-35 q-1 -9 -0.5 -18t2.5 -17q3 -12 4.5 -21l2.5 -15q3 -38 -5 -71q-10 -38 -26 -73.5t-39 -69.5q-30 -44 -99 -76q-39 -17 -57 -17q-6 0 -21 1.5t-28 1.5q-80 3 -125 27q-14 8 -29.5 18l-32.5 21q-23 16 -29 25q-3 17 -16 31l-17 20l-8.5 11.5t-5.5 8.5q-17 30 -18 40 q-10 21 -13 40q-10 36 -12 40q-8 22 -14 43.5t-8 43.5z" />
<glyph unicode="P" horiz-adv-x="695" d="M28 17q-2 -9 15 -17q7 -3 68 -3q21 0 48.5 0.5t62.5 1.5t52 1t15 0h20q43 0 64 10l7 14q-16 13 -25 13q-6 1 -15 0h-12q-39 2 -53 14q-23 20 -23 99v22q0 13 1 27t1.5 22.5t0.5 10.5v29q0 5 1 13t1 12l-3 26l1 25q1 18 9 26q66 -30 129 -30h38q47 0 118 24q55 20 77 43 q17 27 23 41q16 43 19 68q11 65 -2 118q-24 97 -129 144q-57 26 -103 30q-14 2 -30 2t-35 -1l-42 -1.5t-15 -0.5h-45q-6 0 -19 -1t-18 -1q-6 0 -18 2t-17 2h-38q-99 0 -110 -8q-13 -10 -11 -18q2 -6 8 -10q2 -1 4.5 -1.5t7.5 -2.5q9 -3 34 0q19 3 34.5 -10.5t13.5 -52.5 q-2 -17 3 -52v-93q-2 -6 -2.5 -10.5t-1.5 -6.5v-31q0 -7 1 -20.5t1 -18.5v-24q0 -5 -1 -16.5t-1 -18.5v-26q0 -5 2 -15.5t2 -14.5v-60q0 -3 -1 -9.5t-3 -16.5t-3 -17t-1 -11v-23q0 -12 0.5 -24t1.5 -24q1 -10 1.5 -17.5t0.5 -12.5q-6 -42 -12 -78q-12 -19 -36 -22 q-10 -1 -19 -1.5t-18 -1.5q-22 -7 -24 -17zM250 486q0 4 0.5 12t0.5 17t0.5 17.5t0.5 14.5v65l3 63q1 49 17 65q24 25 82 25q24 0 66 -6q35 -4 54 -17l20.5 -17t40.5 -36q27 -55 26 -86l0.5 -10.5t2.5 -32.5q1 -17 0.5 -28t-2.5 -16q-22 -62 -33 -79q-22 -33 -75 -50 q-41 -12 -74 -12q-56 0 -96 32q-34 28 -34 79z" />
<glyph unicode="Q" horiz-adv-x="923" d="M25 436q0 -32 11 -90l13 -61.5t7 -27.5q31 -65 48 -87l16 -30q11 -19 31 -36q5 -4 14.5 -11l25.5 -18q27 -19 48.5 -32t37.5 -20l60 -23.5t42 -14.5l33 -13q15 -19 36 -35t47 -30q25 -13 47 -21t42 -10h33q8 0 15.5 -2.5t12.5 -3.5l45 -7q27 -4 54 -5t53 1q27 1 54 14 q11 1 26 16q11 8 11 23q-10 17 -38 7q-19 -13 -40 -13q-17 -3 -35 -3q-47 0 -107 30l-55.5 29l-55.5 30l24 9q39 10 63 17t32 11q45 20 84 65l81 90q28 37 38 87v25q8 55 12 86.5t4 40.5q0 37 -14 71l-10 23q-8 20 -15 40t-15 40q-11 26 -44 62q-54 59 -66 68q-22 19 -71 42 q-91 42 -206 41q-116 -2 -201 -36q-43 -18 -119 -97q-89 -94 -100 -153q-9 -59 -9 -88zM153 391q-10 99 10 161q29 85 49 109q13 16 39 33q2 2 46 27q51 30 62 33q50 15 86 11q29 -8 50.5 -14.5t35.5 -11.5q61 -25 94 -51q19 -15 27 -27l10 -19.5l10 -19.5q13 -24 25 -38 q4 -4 8.5 -8l10.5 -9q3 -2 6 -7l7 -12q3 -14 6 -24q4 -15 6 -24q1 -4 4 -11t6.5 -14t6 -13.5t4.5 -9.5q10 -27 10 -42q0 6 -2.5 -8t-7.5 -49v-44q0 -51 -1 -53q-1 -14 -20 -54q-7 -16 -13 -31.5t-13 -31.5q-10 -24 -33 -44q-32 -17 -61.5 -31t-55.5 -25q-41 -18 -75 -18 q-21 0 -45 6q-20 5 -68 30q-23 13 -40.5 24t-28.5 19q-4 1 -54 62t-54 69q0 6 -4 19.5t-4 20.5q-7 8 -7 20l-5 20q-6 17 -13 32q-13 33 -14 48z" />
<glyph unicode="R" horiz-adv-x="837" d="M30 774q1 -10 26 -18q4 -1 13.5 -1.5t25.5 0.5q21 1 37 -17t17 -53v-58v-55q-2 -8 -2 -28v-32q0 -5 1 -14.5t1 -14.5v-40q0 -6 -1 -17t-1 -15v-35v-8q0 -7 1 -22v-44l-4 -40v-47l3 -23v-32q-1 -14 -1 -27t-1 -27q-2 -21 -5.5 -33t-9.5 -18t-13.5 -8t-16.5 -2 q-14 -1 -24 -1t-17 -1q-15 -5 -21 -12q-11 -14 -2 -21q15 -8 22 -9h21q-2 -1 43 -1h17q40 4 61 3q40 -3 60 -3h60q32 0 37 1q25 0 34 20l-6 18l-13 5q-28 -1 -42 -1q-13 0 -12 0q-25 2 -39.5 16.5t-13.5 49.5q0 5 0.5 13.5t1.5 19.5q3 22 3 34q0 7 -1 15.5t-2 16t-2 13 l-1 5.5v49q1 8 1.5 15t0.5 13q0 10 -2 22t-2 17q0 15 12 44q11 -2 14 -3l12 -6q12 -6 24 -6q32 -12 51 -26q30 -33 38 -48l25 -22q4 -4 6 -7.5t4 -5.5l3 -7l3 -5q5 -9 9.5 -15.5t6.5 -11.5q10 -20 14 -23l44 -50l27 -28.5l18 -18.5l36 -40l24 -27q42 -33 112 -36q51 -3 61 9 q8 8 4 21q-5 12 -27 16q-5 -2 -15 -1q-15 2 -21 4q-15 5 -17 6l-7 9l-7 9l-14.5 22.5t-7.5 13.5q-4 4 -25 33l-45 64l-9 12l-6 10l-23 32q-16 22 -29.5 37t-24.5 25q-5 4 -16.5 11.5l-29.5 18.5q52 6 102 34q52 28 62 38q26 38 35 58q18 35 24 71q4 26 -17 87q-19 55 -37 75 q-32 35 -93 64q-59 28 -115 31q-14 1 -40 0t-64 -4l-97 -7h-112q-90 0 -97 -7q-11 -10 -7 -18zM260 557v28q1 22 1.5 43t1.5 43q8 59 46 77q20 4 35 5.5t26 1.5q67 8 78 4q14 -4 30.5 -12.5t35.5 -21.5q16 -12 42 -66l14.5 -31.5t11.5 -22.5q6 -21 2 -57q-3 -25 -8 -39 q-5 -10 -11 -20t-11 -21q-17 -31 -24 -38q-9 -9 -42 -22q-29 -13 -69 -13q-79 0 -127 39q-23 20 -26 62l-1.5 21.5t-0.5 8.5q-5 29 -4 31z" />
<glyph unicode="S" horiz-adv-x="648" d="M28 240q0 2 1.5 -9.5t3.5 -35.5v-46q0 -9 0.5 -18t1.5 -18q1 -13 0 -34q-5 -62 3 -70q15 -13 31 -6q15 10 18 17q9 9 16 11q11 3 36 -10l39 -15q64 -24 139 -24q53 0 141 25l23.5 8.5t16.5 5.5q30 13 32 15q88 76 88 192q0 41 -12 85q-36 132 -152 176q-28 8 -49.5 13 t-36.5 7l-43 8q-50 9 -51 10q-71 29 -91 65q-11 20 -11 47q0 23 7 38q12 26 49 51q33 23 58 27q19 3 41 3q105 0 167 -60q35 -35 51 -73q5 -11 8.5 -20l6.5 -17q18 -23 34 -23q15 4 15 23q2 12 -1 26q-12 59 -18 85v43q0 34 -6 42q-12 15 -30 8q-14 -8 -18 -13t-7 -7l-7 -4 q-11 -5 -31 4l-18 8q-50 22 -118 22q-66 0 -137 -25q-56 -20 -66 -29q-69 -59 -69 -163q0 -67 45 -113q49 -51 164 -78l55 -13q130 -32 165 -126q11 -31 11 -61q0 -57 -32 -97q-29 -23 -43 -30q-48 -33 -88 -38q-20 -2 -41.5 -1t-45.5 5q-60 11 -78 19q-7 4 -14 9t-14 12 q-3 3 -9 9.5l-16 17.5q-26 29 -33 47q-12 42 -18 74q-8 34 -9 36q-14 24 -34 24q-13 -12 -16 -20.5t-4 -20.5z" />
<glyph unicode="T" horiz-adv-x="867" d="M24 574q1 -19 2.5 -29.5t5 -15.5t9 -6t14.5 -1q6 4 10.5 9.5t8.5 12.5q4 6 7 18q0 28 6 42q17 63 35 84q14 17 24.5 27.5t15.5 14.5q19 13 54 13h34h52q39 3 54 -14q9 -11 9 -26l2 -50t2 -36q0 -6 -1 -18.5t-1 -19.5v-26q-9 -69 -4 -110q4 -27 1 -55q-3 -38 -3 -55v-28 q0 -17 -1 -30t-1 -20v-77v-60q0 -17 1 -9q-2 -39 -17 -54.5t-41 -15.5h-39q-14 5 -21 -10q-2 -6 -1.5 -11t5.5 -9.5t17 -7.5t33 -5q33 -4 52 -1l39 5h32q5 0 8 1h16q4 -1 7 -1h20q6 0 32 -3q25 -3 32 -3l65 10q12 9 9 22q-7 19 -36 19q-7 0 -21.5 -1.5t-22.5 -1.5 q-20 0 -30 9q-16 13 -14 58q0 13 -2 29t-2 26q-1 25 -1 44v34q0 5 0.5 14t1.5 21t1.5 21t0.5 15v65q0 28 -1 47q2 38 4 66.5t4 46.5q2 47 0 86v52q1 37 15 49q20 17 70 20q57 3 102 -9q39 -11 58 -52q8 -15 13.5 -27l9.5 -20l5 -8l1 -6l2 -8l4 -6q2 -8 3 -14.5t2 -11.5 q11 -47 25 -55q9 -6 24 4t16 55q-1 -19 -1 -6v61v56q0 7 3 48q2 21 -4 29q-9 15 -55 16q41 -1 25.5 -1.5t-87.5 -0.5h-28q-9 0 -22 1.5t-20 1.5h-27q-19 0 -46.5 -1.5t-62.5 -5.5h-32h-40l-40 5h-46h-13q-5 -1 -8 -1h-5h-129l-22 3h-36q-96 0 -109 -13q-6 -6 -6 -104v-33 q0 -6 -1 -15.5t-1.5 -19.5t-1.5 -19t-1 -14z" />
<glyph unicode="U" horiz-adv-x="869" d="M24 778q5 -13 21 -17q17 -5 22 -3q13 -2 23.5 -4l20.5 -4q27 -15 22 -92v-30q9 -72 9 -109v-20q0 -24 -4 -47q-3 -18 1 -45l9 -62l6.5 -44.5l3.5 -23.5q1 -2 2 -14.5t3 -34.5q3 -33 9 -52q19 -65 48 -102q16 -21 52 -44q33 -20 97 -32q79 -16 140 -3q36 6 57 16 q34 15 75 60q23 26 40 53.5t27 56.5q10 39 16 68.5t9 49.5l9 48l10 245q4 15 4 21q0 5 1 12.5t1 9.5v16v50q1 19 13 32q7 8 41 19l23 8q9 4 9 16l-22 22l-8 -4h-42q-18 0 -29 -4q-25 0 -27 -1h-15q-22 0 -74 3q-29 1 -33 -3q-13 -10 -10 -20q0 -9 17 -17q19 0 30 4 q16 0 30 -10q30 -21 30 -109v-83v-14q0 -6 1 -13q1 -10 0 -23l-6 -83q-2 -35 -3.5 -50t-1.5 -10v-32q0 -22 -16 -85q-20 -75 -37 -105q-16 -29 -53 -55q-17 -7 -30 -11t-24 -6q-56 -15 -71 -15q-38 0 -77 18q-65 30 -82 84q-9 46 -12 72l-9 27l-12 72v36q-7 42 -6 55 l1.5 41.5t0.5 11.5v90q-1 3 -1 23l-1.5 5t-3.5 15v43q-2 19 1 51q2 21 5.5 32.5t8.5 17t11 7t13 1.5t22 -3t22 -3q24 1 30 12q7 11 -1 22q-6 7 -54 12l-27 2l-26 2h-24l-46 -3h-20q-1 0 -8 0.5l-20 1.5q-26 3 -27 3h-61q-17 0 -23 -11v-11z" />
<glyph unicode="V" horiz-adv-x="866" d="M20 776q3 -9 12.5 -12t17.5 -5q39 -13 53 -24q8 -7 30 -46q37 -65 48 -96l36 -99q7 -18 10 -25q11 -22 12 -23l18 -72q19 -57 30 -78l30 -63q13 -26 13 -33l35 -98l27 -54l24 -50q10 -6 23 2q13 23 23.5 45t18.5 44l28.5 58.5l18.5 37.5l10 30l8.5 15.5l5.5 10.5 q4 8 6 14t4 10l12 26q0 -3 10 36l10 25l12 22l6.5 14.5t3.5 7.5l12 30l10 26.5l6 15.5l29 78q20 44 30 59l10 20l16 39l16 39q11 21 58 43h11l5 3l6 1q6 0 12 6q10 3 11 4v20l-8 10h-209q-34 0 -43 -12q0 -28 26 -28q4 -2 9 -2.5t10 -1.5q10 -2 19 -7l14 -11q4 -58 1 -67 q-1 -3 -7 -12t-13.5 -22t-15.5 -29t-14 -34l-13 -37q0 -7 -7 -24l-14.5 -37.5l-11.5 -28.5l-16 -35.5l-12 -26.5l-30 -78l-25 -59t-15 -33q-10 -24 -16 -25q-11 23 -19 38t-13 23l-19 52q-7 16 -10 20l-1 6l-2 4q-3 6 -3 10l-30 85q-10 27 -10 41q-5 14 -9.5 24.5l-6.5 15.5 l-30 58q-5 11 -6 16l-1 6l-3 8l-12 28l-8 30q-4 10 -7.5 20t-7.5 20q-13 32 -13 45q0 15 41 29q24 0 33 23q-9 14 -25 14h-169q-90 10 -100 0q-8 -8 -6 -20z" />
<glyph unicode="W" horiz-adv-x="1334" d="M23 779l8 -5l-4 -8l6 -16l21 9q61 0 80 -11q13 -7 36 -53q9 -18 14.5 -30.5t8.5 -21.5t4.5 -16.5t1.5 -14.5q1 -9 9 -27l25 -53l6 -18q6 -34 10 -42l23 -56q2 -8 5 -15t5 -14l8 -29l13 -25q33 -65 36 -77l11 -50q5 -16 9.5 -27l7.5 -18l32 -70q20 -80 29 -85q11 -6 23 0 q11 4 28 45q6 15 10 27.5t6 22.5v20q5 14 7.5 22t4.5 12q7 11 12 20t7 15l8 20q10 26 12 35q8 27 8 35l7 21l8.5 18.5l5.5 11.5q9 18 12 27l8 19l9 29l12 30l21 42l18 34q7 24 12 36q8 26 22 36l13 -35l13.5 -59t9.5 -37l12 -36q4 -11 7.5 -19.5l5.5 -13.5l41 -112 q5 -14 8 -24t5 -15l17 -43q3 -17 4.5 -29.5t2.5 -19.5q7 -12 18 -49l6.5 -28.5t3.5 -19.5l0.5 -6l1.5 -18q8 -15 16 -20q17 0 28.5 9.5t18.5 24.5q13 39 15 53l10 20l13 25l22 50l8 23l7 11l3 12l50 98l101 257q11 15 22 42l22 60q16 45 37 55q7 4 64 9l16 27q-8 12 -22 12 q-4 0 -13 -1.5t-12 -1.5h-172q-15 -4 -20 -11v-12q6 -8 16 -11t19 -5q22 0 35 -11q2 -8 2 -11q0 -5 -4 -12q-2 -5 -4 -9l-3 -6l-9 -38l-6 -15l-9 -21t-7 -15l-44 -114q-4 -10 -5.5 -16t-2.5 -9l-16 -43q-13 -22 -15 -29q-1 -5 -5.5 -14.5t-6.5 -14.5l-40 -72l-8.5 -21 t-5.5 -15q-12 -32 -21 -35q-5 1 -13 15l-11 40q-4 9 -6.5 15.5t-4.5 10.5l-8 20q-6 28 -12 42l-9 23q-19 48 -30.5 80.5t-16.5 52.5l-10 65q-5 29 -18 56l-9 18q-15 30 -15 48q0 38 52 48h23q13 3 22 15q0 20 -22 20q-3 0 -11.5 -1t-16.5 -1h-65q-6 0 -18 -1t-18 -1h-26 q-3 0 -11 1t-13 2t-8.5 1.5t-11.5 0.5h-34q-35 0 -30 1q-23 0 -27 -10v-11q18 -15 25 -16q19 0 27 -3q35 -8 46 -32q5 -12 5 -23q0 -9 -23 -76l-9 -26l-6 -24q-7 -17 -12.5 -28.5l-9.5 -19.5l-32 -74l-8.5 -23.5t-5.5 -15.5l-65 -162q-9 -23 -15 -24q-6 0 -17 20l-6 23 q-5 21 -8.5 32.5t-4.5 13.5q-13 23 -13 25l-13 23q-13 33 -15 47l-5 16l-10 21.5l-9 18.5l-9 20l-8 31l-6 19q0 3 -2.5 9t-5.5 12t-6 11t-3 7l-17 52q-7 22 -21 59q-9 22 -9 31q0 31 52 43q7 1 14 1h14q21 1 27 7q6 11 0 19t-37 9q-22 1 -58 0q-20 -1 -29 -1.5t-7 -0.5h-85 q-7 0 -17.5 1.5t-19.5 1.5h-29h-7q-4 0 -10 1h-18q-8 -2 -32 -2z" />
<glyph unicode="X" horiz-adv-x="1004" d="M30 30q-5 -11 5 -20q10 -10 108 -10h135h41q30 8 38 20q0 22 -23 22q-4 0 -6 -1q-21 8 -37 8q-29 8 -33 25q-4 16 33 59l25.5 27t24.5 24l33 36q7 7 11.5 12t8.5 8q6 7 10.5 11.5t7.5 8.5l17 20q6 6 20 27l4 8l6 7l9 14l20 20l20 -7l1 -6l2 -2q4 0 9 -5l28 -37 q7 -12 12 -18l18 -18l13 -18q7 -13 30 -44l12 -16q1 -1 14.5 -17l39.5 -47q26 -32 26 -46q0 -17 -20 -28q-11 -7 -39 -7q-5 0 -20 3q-8 1 -18 -2q-17 -5 -18 -12q-4 -10 9 -23q13 -12 94 -6h32l31 1q11 2 18.5 3t12.5 2l46 -6q14 -2 26.5 -3t24.5 -1q54 0 74 20q13 13 7 23 q-5 12 -28 12q-10 -2 -40 -2q-8 1 -12 2t-8 3t-8 6l-10 10l-33 40q-13 14 -21 24t-13 15l-18 25l-19 24.5l-13 17.5l-41 59l-12 22l-14 19l-52.5 67.5l-49.5 63.5q-1 19 31 56l29 32l29 32l34 40q14 13 21.5 19t8.5 7l11 15q36 51 75 77q29 20 41 20q20 13 41 13l18 16 l-3 11q-23 10 -30 9q-8 0 -14 -1t-13 -1h-18q-10 0 -21.5 -1t-25.5 -3q-20 -3 -45 0l-46 6q-11 0 -24 -1t-20 -14v-9q7 -9 21 -18q12 -4 23 -4q19 -7 20 -20l-23 -37l-17 -26.5t-7 -10.5q-23 -26 -40 -43t-27 -26l-21 -23l-31 -40l-18 -15l-45 48l-30 33l-19 21l-30 38 l-22 26l-22 26q-21 24 -23 36q-3 11 8 19q26 6 38 5q28 0 35 13v8q-7 12 -19.5 14.5t-14.5 2.5q-1 0 -7 -2h-35h-8q-5 0 -15 1h-35h-110q-8 0 -17.5 0.5t-20.5 1.5l-30 6q-20 2 -31 -14q-6 -7 -4 -15q4 -12 4 -16q11 -4 26 -4q4 0 12.5 1.5t11.5 1.5q33 -2 55 -17 q8 -6 20 -17.5t26 -28.5l16 -24q7 -6 17 -18l16 -19l24 -30l6 -7l2 -5l6 -13l5.5 -7t13.5 -15l13 -15t7 -8l8.5 -12t5.5 -9q4 -6 45 -43q24 -23 27 -46q3 -20 -41 -70q-22 -24 -36 -41t-21 -27l-138 -144q-57 -60 -78 -73q-23 -14 -38 -16q-17 -2 -27.5 -3t-14.5 -2 q-7 -2 -16 -8t-10 -10z" />
<glyph unicode="Y" horiz-adv-x="940" d="M19 782q0 -23 32 -23q9 4 42 -7q48 -18 81 -57l90 -107q11 -14 20 -24t16 -17l35 -48l41 -51l41 -51q9 -17 9 -105v-126q-5 -8 -5 -26v-10t-1 -16q-1 -41 -13 -53q-9 -9 -47 -14q-9 -1 -15 -1h-8q-15 -6 -21 -15q0 -25 19 -25q12 -6 31 -6h172l29 1q25 0 29 -1q21 1 27 6 q19 4 19 20q-8 17 -39 17q-22 0 -40 8q-21 15 -21 63v58q0 5 1 8v14q-1 3 -1 7v51l5 23v20q0 19 -1 40t-1 25q0 19 10 35q4 6 45 63l143 197q47 65 68 79q22 16 81 21q15 -6 25 9q5 8 -4 19q-8 11 -110 11h-67q-7 0 -12 1h-13h-20q-24 0 -26 -1q-16 0 -16 -18q20 -15 26 -16 q9 -2 16 -2t12.5 -1.5t10 -6t9.5 -14.5q2 -11 -28 -43q-16 -21 -17 -24q-4 -7 -6 -12t-4 -9l-60 -73l-38 -54.5t-23 -28.5l-26 -33q-13 0 -30 20l-24 29q-28 35 -36 41q-15 10 -19 20q-9 22 -10 23l-41 42l-41.5 50.5t-19.5 34.5q0 7 4 15q0 11 15 16q13 8 22 8q14 0 24 2 q10 7 14.5 10.5t5.5 4.5v10q-10 8 -17 8q-7 1 -12 1q-4 0 -6 1h-34h-28q-6 0 -19.5 -1.5t-19.5 -1.5l-176 6q-5 0 -14.5 -1t-14.5 -1q-18 -6 -25 -14z" />
<glyph unicode="Z" horiz-adv-x="848" d="M34 585q-6 -22 5 -42q6 -8 16 -8q13 0 23 10q7 12 12 22t8 18t7 21l9 30t9.5 30t6.5 23q21 24 32 31q19 16 50 16q10 0 36 -3q25 -3 38 -3h15q6 0 17 2t16 2h78l26 2h24q21 -8 42 -8q-2 0 22 3q11 2 19 -5q14 -11 15 -22q2 -14 -32 -55l-45 -54l-11 -16q-5 -9 -8.5 -16.5 t-5.5 -13.5q-11 -20 -18 -27l-22 -25l-9.5 -10l-21.5 -22q-13 -13 -23 -31l-17 -32l-36 -51l-42 -46q-17 -19 -45 -64l-13 -21q-7 -11 -13 -23l-12 -23q-8 -14 -30 -34l-18 -16q-57 -63 -57 -97t76 -34q11 0 25 1l14 1h147q1 0 24 3q11 1 17 1.5t7 0.5h26q4 -1 17 1l18 -1 q-5 0 4 -0.5t32 -1.5l179 -8q64 -3 80 11t20 37l8 47l11 42t11 43l14 42q5 23 5 48q0 1 0.5 3.5l1.5 7.5q2 5 -3 11q-5 11 -20 11q-14 -10 -19 -18q-4 -8 -6.5 -13.5t-4.5 -9.5q-4 -16 -9 -22q-9 -17 -12 -24q-22 -38 -36 -60t-19 -29q-38 -47 -97 -59q-20 -3 -99 -3h-49 q-8 0 -21 -1t-25 -1h-37q-32 -4 -45 2q-19 13 -23 18q-3 16 -2 22l14 32l14 32q6 10 42 57l13.5 19t9.5 13q4 4 17 12q3 2 11 15l9 16.5l7 13.5l10 18.5l6 11.5l16 21l7 7t12 15q4 4 6.5 6t3.5 3q5 10 6 11l46 75l18 25.5t11 13.5q24 34 28 36l22 27q22 29 33 38l17 21 q68 85 68 124q0 6 -2 12q-7 19 -99 19h-106q-19 0 -22 -1q-21 0 -24 1l-97 -5q-11 4 -44 4h-21q-3 -1 -13 -1q-11 0 -13 1h-179q-51 0 -60 -10q-9 -11 -5 -75q0 -9 -13 -77q-4 -26 -6 -41z" />
<glyph unicode="[" horiz-adv-x="276" d="M33 422q0 -4 2.5 -12.5t2.5 -11.5l1 -229q-5 -18 -5 -26q-1 -5 -0.5 -11t1.5 -13q3 -21 0 -50q-1 -8 -1.5 -14.5t0.5 -12.5q2 -8 3 -13.5t2 -9.5v-25q-4 -13 13 -23h22l14 6q27 -8 48 -8l6 4q7 0 61 -6l15 6q5 2 12 -4q11 0 26 12q0 25 -5 32h-31l-11 -3q-25 10 -38 9 q-24 -16 -35 1q0 6 1 19.5t1 18.5v16q0 5 -2.5 16.5t-2.5 16.5v34q0 5 1 14.5t1 13.5v72q0 6 2 19.5t2 20.5l-9 15q2 15 3.5 27.5t1.5 22.5v19q0 12 -2 20t-2 19v8t1 12v19v34v6q0 5 1 11v18v133v5t-1 12t-1 12v5v59q0 18 5 26h19q9 -4 27 -4l14 2q5 3 8 5t5 4q8 -11 25 -11 q17 11 25 21l-10 30h-20l-8 -5l-22 5l-20 -5l-9 5l-10 -2l-10 5q-5 0 -15 -2.5t-14 -2.5h-17l-23 3q-19 0 -23 -6l-9 5h-5l-5 -3l-1 -6q-5 -5 -5 -11q0 -5 1 -10.5t1 -11.5l-2 -44l6 -169v-64q0 -12 -5 -25q-1 -3 -1 -22v-23z" />
<glyph unicode="\" horiz-adv-x="447" d="M21 20q-3 -8 3.5 -15t14.5 -7q-2 0 2.5 -0.5t15.5 -1.5q6 -1 15 4h153q22 -2 31 -3t7 -2q26 0 36 16v6q-9 13 -37 13t-37 6q-17 12 -17 91v93q0 8 1.5 44.5t5.5 103.5v114v46q0 14 -1 8q5 45 18 91q17 55 51 83q16 13 33 13q9 0 24 -5q42 -19 53 -19q9 0 18 6 q20 13 19 28q-1 18 -17.5 28t-35.5 10q-39 0 -66 -15q-39 -22 -61 -38q-41 -32 -63 -77q-16 -33 -30 -95l-8.5 -33t-5.5 -24l-13 -65q-1 -3 -1 -31q-1 -2 -1 -16q0 -7 -5 -15q-5 -4 -43 -4q-7 0 -21 2t-20 2l-17 -21q14 -14 20 -15h6q6 0 17 1q34 2 45 -5q21 -13 14 -89 q0 -5 0.5 -16.5t1.5 -30.5q3 -38 3 -44q-2 -16 -5 -22l-1 -8t-1 -15l-2 -23.5l-2 -22.5q-4 -6 -17 -9q-3 -1 -11 -2t-22 -3q-4 1 -11 0q-9 -3 -14 -3l-14 -7t-8 -7z" />
<glyph unicode="]" horiz-adv-x="277" d="M16 4q0 -21 10 -31h17l8 5l23 -6q1 1 4.5 2.5t5.5 3.5h11q5 0 13 -1.5t9 -1.5l8 -4q7 0 14.5 3.5t9.5 3.5q11 5 22 -3q5 -1 10.5 -1.5t11.5 -0.5q18 0 22 2h20q9 14 6 22q0 3 -1.5 11t-1.5 11v114q0 5 1.5 13.5t1.5 15.5v20q-3 34 -3 92v22q3 21 3 82v241v8t1 9v15v116 q0 20 -1 23q-3 7 -5 12.5t-4 9.5q-61 9 -120 -2l-15 7q-2 1 -13 1q-9 3 -24 -6h-21l-16 -7v-26l15 -9l5 2l10 -2h3q4 0 10.5 2.5t8.5 2.5q16 -9 30 -9q3 1 14 3q7 1 15 6l5 -45q0 -7 3 -20q1 -5 1.5 -10t0.5 -11v-131q0 -25 -5 -37l3 -388v-38q0 -6 1.5 -18t1.5 -18 q-3 -12 -3 -36q-17 -5 -36 1q-27 0 -35 -7l-15 5q-7 3 -13 1q-12 0 -27 -19z" />
<glyph unicode="^" horiz-adv-x="324" d="M23 686l1 -9q11 1 18 1.5t11 0.5q8 9 28 17q12 7 14 9l8.5 3.5t5.5 2.5q4 3 13.5 7.5t12.5 9.5q10 4 17 6q8 7 16 10q82 -66 130 -69q1 4 -5 13l-26 37l-7 1l-3 4l-1 8l-3 6q-11 12 -14 18l-6 5l-6 3l-2 7l-5 4l-4 7l-2 6l-4 4l-5 4q-4 7 -7 14q-2 2 -10 2q-21 0 -23 -1 q-8 -1 -15 -1t-15 -1q-4 -1 -21 -25q-17 -23 -28 -30l-21 -27l-31 -36l-5 -2l-1 -5z" />
<glyph unicode="_" horiz-adv-x="615" d="M34 -70v-52h547v52h-547z" />
<glyph unicode="`" horiz-adv-x="243" d="M26 755l6 -4l4 -2q4 -2 6 -4l4 -4l130 -61q22 -11 51 -9l-71 70l-28 19q-13 19 -21 22q-37 31 -53 32q-19 0 -28 -13q-10 -12 0 -46z" />
<glyph unicode="a" horiz-adv-x="404" d="M35 206q7 -11 16 -15q2 -1 17 -1q29 -2 43 20q6 10 6 30q-2 27 0 32q1 9 8 18.5t16.5 18t20.5 14t20 6.5q30 4 52 -19q21 -23 11 -59q-6 -23 -58 -50l-34 -16.5l-34 -16.5q-20 -11 -31 -18.5t-15 -10.5q-33 -28 -34 -64q-1 -22 9 -41q8 -13 26 -27q22 -15 46 -15 q13 0 72 18q11 11 23 11q8 5 14 8t8 5q16 -11 18 -18q22 -21 46 -21q17 0 35 9q27 14 35 30q6 11 7 37l-6 6q-10 -11 -15 -20q-10 -15 -20 -18q-16 0 -16 20q0 5 1 14.5t1 11.5q5 50 3 79q-1 20 -3 31q-2 26 -3.5 41t-1.5 19q0 55 -16 72q-35 39 -89 39q-27 0 -77 -26 q-42 -22 -65.5 -42.5t-35.5 -45.5q-11 -23 0 -46zM121 82q-4 48 37 74q36 23 77 34q8 -8 8 -31q3 -8 2 -35q-2 -31 -4 -37q-4 -15 -21 -32q-23 -19 -51 -19q-44 0 -48 46z" />
<glyph unicode="b" horiz-adv-x="478" d="M27 738l8 -24q29 3 38 -6t9 -37v-137v-14q1 -4 1 -14q1 -33 1 -59v-45q0 -10 -0.5 -25.5t-1.5 -35.5q-1 -23 -1.5 -39t-0.5 -27q1 -38 1 -66t1 -46q-1 -38 -2 -62.5t-2 -35.5q0 -6 -9 -27q-7 -21 -6 -28q10 -11 18 -13q15 -2 49 37l24 -12t17 -9q40 -17 84 -18 q60 -3 113 31q39 25 53 49q25 42 23 118q-1 48 -13 77t-33 47l-25 15.5t-19 10.5q-44 23 -88 23q-46 0 -98 -33q-8 12 -7 25l1 26v83l7 26q-3 38 -4.5 68t-0.5 52q2 23 3 40t2 28q2 31 3 44.5t1 11.5q0 43 -18 43q-14 0 -51 -12q-11 -4 -21 -7t-21 -7zM159 159q1 26 2 45.5 t2 30.5q1 73 53 88q3 1 13 1q50 0 76 -23q24 -22 33 -37q22 -37 22 -85q0 -21 -4 -37q-4 -20 -8 -34t-8 -21q-35 -63 -96 -63q-29 0 -58 23q-28 24 -27 112z" />
<glyph unicode="c" horiz-adv-x="407" d="M29 165q-2 -30 3 -45q13 -39 31 -62q14 -13 25.5 -22.5t19.5 -14.5q33 -21 80 -26q59 -5 109 15q18 8 31 16.5t21.5 19.5t13.5 25t8 33l-7 6q-12 0 -30 -36q-16 -19 -54 -31q-39 -11 -57 -7q-49 9 -79 53q-13 19 -16 28q-11 24 -10 86l25 86q28 46 77 46q44 0 64 -26 q7 -10 6 -23q-8 -17 -15 -21q-8 0 -14 2.5t-8 2.5q-5 0 -13 -5q-11 -8 -7 -29q5 -29 34 -40q31 -12 64 11q33 22 30 63q-5 53 -58 83q-25 14 -69 14q-70 0 -112 -24q-35 -19 -51 -40q-17 -23 -28.5 -57.5t-13.5 -80.5z" />
<glyph unicode="d" horiz-adv-x="509" d="M19 170q-1 -39 16 -75q10 -22 28 -41q46 -52 98 -59q2 -1 39 5q34 7 39 7q29 5 40 11q6 4 15 11t20 18q6 -6 6 -20q5 -19 6 -20q13 -19 39 -17q22 1 68 37q8 6 18 11q6 4 16 16q16 19 16 35q-3 3 -7 3q-3 0 -28 -14q-23 -14 -27 -14q-5 0 -9 3q-12 9 -12 105v18l-3 33 q-2 33 -3 58.5t-1 44.5q0 13 1 30.5t3 40.5v7q-1 4 -1 8q4 4 4 14q2 42 0 80q0 7 -0.5 17.5t-1.5 24.5t-1 24v18q0 16 0.5 37t1.5 47q3 52 3 57q-3 42 -21 51q-12 5 -22 5q-11 0 -30 -8q-28 -11 -34 -12q-3 -1 -8 -2t-12 -3q-13 -3 -20.5 -4t-12.5 -2q-19 -2 -30 -13l2 -14 q8 -5 23 -5h4q3 0 7 1h12q36 5 44 0t10 -19q1 -3 1 -11q0 -7 1 -20q0 -3 1 -12t1 -14q4 -11 3 -24l-6 -77q0 -6 1.5 -17.5t1.5 -16.5v-32q0 -4 -1 -12t-1 -12q0 -20 -1 -21v-100l-7 -8l-27.5 14l-27.5 14q-22 10 -54 8q-55 -4 -113 -52q-27 -22 -45 -52q-20 -35 -22 -91z M111 193q2 32 6 53q11 44 56 65q31 14 61 14q61 -24 78 -62q11 -27 8 -99q-1 -23 -3 -37.5t-4 -22.5q-5 -14 -15 -27q-29 -32 -81 -32q-35 0 -60 22q-23 21 -33 40q-15 28 -13 86z" />
<glyph unicode="e" horiz-adv-x="394" d="M28 150q5 -37 12 -53q29 -63 98 -90q34 -12 70 -12q25 0 48 6q26 11 42.5 19t24.5 13q25 15 34 28q10 19 6 33q-9 0 -22 -10q-8 -10 -20 -14q-44 -30 -84 -30q-32 0 -66 20q-18 11 -42 50q-9 15 -12 27q-6 11 5 25q57 -5 75 -3q41 4 85 21q13 5 22 9.5t16 8.5l8 3 q24 24 27 28q8 13 7 37q-2 25 -20 50q-18 27 -38.5 38t-55.5 13q-31 2 -61.5 -5t-66.5 -25q-15 -8 -35 -27q-22 -21 -37 -47q-19 -34 -20 -63q-2 -30 0 -50zM111 216q0 14 5 32q10 36 39 63q13 12 37 21.5t40 6.5q31 -6 45 -38q15 -36 -7 -69q-30 -47 -102 -48q2 2 -49 2 q-8 5 -8 30z" />
<glyph unicode="f" horiz-adv-x="448" d="M21 20q-3 -8 3.5 -15t14.5 -7q-2 0 2.5 -0.5t15.5 -1.5q6 -1 15 4h153q22 -2 31 -3t7 -2q26 0 36 16v6q-9 13 -37 13t-37 6q-17 12 -17 91v93q0 92 12 103q4 4 55 2q4 0 14 -1.5t14 -1.5h7q2 -1 6 -1q6 1 9.5 2t5.5 2v24q-23 12 -30 12q-5 0 -15.5 -1.5t-14.5 -1.5h-15 q-5 -1 -9 -1h-6q-18 0 -26 11v114v46q0 14 -1 8q5 45 18 91q17 55 51 83q16 13 33 13q9 0 24 -5q42 -19 53 -19q9 0 18 6q20 13 19 28q-1 18 -17.5 28t-35.5 10q-39 0 -66 -15q-39 -22 -61 -38q-41 -32 -63 -77q-16 -33 -30 -95l-8.5 -33t-5.5 -24l-13 -65q-1 -3 -1 -31 q-1 -2 -1 -16q0 -7 -5 -15q-5 -4 -43 -4q-7 0 -21 2t-20 2l-17 -21q14 -14 20 -15h6q6 0 17 1q34 2 45 -5q21 -13 14 -89q0 -5 0.5 -16.5t1.5 -30.5q3 -38 3 -44q-2 -16 -5 -22l-1 -8t-1 -15l-2 -23.5l-2 -22.5q-4 -6 -17 -9q-3 -1 -11 -2t-22 -3q-4 1 -11 0q-9 -3 -14 -3 l-14 -7t-8 -7z" />
<glyph unicode="g" horiz-adv-x="452" d="M25 -104q0 -22 11.5 -37t32 -24t48 -12t59.5 0q30 2 55.5 8t46.5 14t60 35q19 12 46 41q30 31 28 67q-2 32 -38 52q-18 11 -63 19q-37 6 -59 5q-21 0 -40.5 -3t-25.5 -3q-14 0 -56 15q0 18 19 22q7 4 14.5 6.5t15.5 3.5l30 4q5 1 9 1q5 0 7 1q5 2 8.5 2.5t5.5 1.5 q82 22 120.5 56t38.5 91q0 47 -29 73q-19 18 -71 36l-5 7q6 15 25 19q7 1 26 -6q24 -16 28 -17l26 -2q10 7 19 14t9 16q0 19 -15 32.5t-33 13.5q-42 0 -80 -26l-26 -21l-26 -21q-11 -8 -48 -15q-60 -12 -102 -39q-63 -41 -65 -95q-2 -44 12 -65q7 -11 21.5 -25t37.5 -31 q-14 -8 -23 -14.5t-14 -11.5q-11 -15 -10 -30q1 -30 41 -59l-34.5 -33t-15.5 -16q-21 -26 -21 -50zM96 -83q2 44 41 65q10 6 67 5q67 -2 77 -3q29 -7 40 -12q21 -11 21 -24q2 -17 -34 -46q-29 -19 -48.5 -29.5t-30.5 -15.5q-17 -5 -63 -3q-33 1 -48 12q-27 19 -22 51z M111.5 226.5q-1.5 12.5 0.5 21.5q7 36 27.5 58.5t65.5 26.5q18 2 50 -9q33 -7 44.5 -22.5t14.5 -46.5q3 -33 -1 -44q-9 -29 -31 -45q-12 -10 -45 -19q-22 -6 -46 -5q-28 1 -50 19q-8 6 -14 17t-10 23.5t-5.5 25z" />
<glyph unicode="h" horiz-adv-x="517" d="M26 718q7 -6 18 -4l19 3q17 5 35 -2q3 -12 5.5 -24.5t3.5 -29.5t1.5 -40t0.5 -54v-141q1 -13 1.5 -22.5t0.5 -17.5q1 -38 1.5 -65t-0.5 -44q-2 -39 -3 -49q-3 -32 -6 -57v-22q0 -3 1.5 -18t1.5 -24q1 -49 -16 -60q-8 -5 -27 -3q-19 1 -27 -10t-2 -23q7 -9 54 -7 q20 1 33.5 1.5t19.5 0.5h27q7 0 20 -1.5t18 -1.5q23 0 39 14q0 13 -4.5 16t-20.5 7h-17q-4 1 -14 13q-3 6 -3 34v38v12t-1 21q-2 20 0 31q2 17 4 27.5t4 15.5q11 42 83 69q33 12 52 -4q11 -8 14 -20q1 -4 1 -11q0 -6 1 -17t1 -18q0 -6 1 -9q0 -4 -2.5 -12.5t-2.5 -11.5v-17 q0 -8 1.5 -13.5t1.5 -11.5v-36v-7t1 -14v-30q0 -55 9 -62q19 -3 35 -3q18 -2 31.5 -3t23.5 -2t20 0q7 1 9 1q3 0 2 0q22 4 25 16q3 10 -8 18q-4 4 -24 2t-27 3q-12 7 -15 24v9t-1 23v30v6q0 5 1 10v14v63q0 24 -1 43t-3 33q-8 48 -32 61q-14 6 -29 6q-20 0 -55 -11 q-23 -8 -40.5 -15t-28.5 -14l-26.5 -17t-15.5 -11v38l-6 31l2 11t2 20v292q0 4 0.5 11t1.5 18t1.5 19.5t0.5 13.5q0 43 -25 43q-11 0 -38 -11l-26 -11q-13 -8 -25 -8l-26 -10q-20 -8 -23 -11q-8 -5 -8 -21z" />
<glyph unicode="i" horiz-adv-x="267" d="M19 301q5 -8 22 -8q5 0 19 3.5t21 3.5q9 0 13 -4q9 -7 10 -35q1 -17 0 -39q-1 -14 -1 -20t0 -4v-47q1 2 1 -22v-48q0 -31 -7 -38t-62 -7l-11 -10q0 -23 36 -23q4 0 11.5 -1.5t11.5 -1.5h6l5 6l2.5 -1.5l7.5 -4.5h97q18 0 26 3q12 0 23 14q-4 13 -11 15q1 -1 -14 -1h-5 q-3 0 -10 1q-10 0 -14 4q-12 9 -13 22q1 -15 1.5 -9.5t0.5 31.5v108v20q-1 6 -1 10v8v86q0 40 -3 43q-7 7 -16 7q-2 0 -23 -6q-20 -7 -35 -11.5t-26 -8.5q-17 -5 -32 -9l-29 -8q-9 -10 -1 -18zM90 720q1 -23 24 -36q22 -13 43 -1q27 11 29 40q3 13 -2 24t-14 17t-21.5 7.5 t-24.5 -2.5q-37 -13 -34 -49z" />
<glyph unicode="j" horiz-adv-x="259" d="M12 -133q1 -20 24 -34q19 -10 42 -10q40 0 72 22q41 27 63 94q19 57 20 109q0 11 -1.5 28.5t-1.5 23.5v74q0 5 -2 14.5t-2 13.5v80v40q0 12 1 5q-2 20 -16 29q-9 6 -19 6q-11 0 -35 -11q-16 -8 -29 -13.5t-23 -8.5l-19 -6q-19 -6 -23 -12q-4 -13 3 -20q8 -3 16 -2 l10.5 1.5t4.5 0.5q12 4 31 4q10 -5 12 -14l4 -18v-16q-1 -6 -1 -10v-6q0 -16 2.5 -34t2.5 -33q-1 -25 -1 -44v-33v-37t1 -47v-93q0 -23 -4 -30q-12 -19 -26 -24q-7 7 -12 13.5l-9 11.5q-14 18 -22 23q-23 12 -43 -1q-21 -14 -20 -36zM124 709q0 -4 2 -12q6 -30 32 -39 q9 -2 28 1q22 5 25 8q19 13 19 46q-2 16 -9 28t-17.5 18.5t-22.5 8t-23 -3.5q-34 -16 -34 -55z" />
<glyph unicode="k" horiz-adv-x="493" d="M26 733q5 -15 10 -18q12 -4 18 -2q4 -1 15.5 3t17.5 4q3 0 6.5 -0.5t6 -5t4 -13.5t1.5 -26q0 -7 -3 -20q-2 -6 3 -20v-78q0 -21 2 -29v-13q-1 -5 -1 -8v-5q-1 -32 -1.5 -57t-0.5 -43v-17q0 -9 1 -22q1 -15 1 -25v-15q1 -32 0 -60v-93q1 -2 1 -19v-19q0 -80 -8 -90 q-8 -8 -34 -9q-23 8 -33 -10q0 -12 12 -19q5 -4 21 -4q21 -2 42 0h59q6 0 21.5 -1t20.5 -1q29 0 42 16q3 9 -5.5 14.5t-18.5 5.5q-14 -5 -16 -3q-6 0 -17 8q-6 5 -7 13q-2 5 0 14q1 5 1 8v3q0 40 -1 38q1 6 2 9.5t2 5.5l8 6.5t5 4.5l17.5 17t7.5 7q9 4 15 2q3 -4 6 -7.5 t7 -7.5q12 -14 22 -32q8 -18 13.5 -32l9.5 -24q5 -11 9.5 -18.5l7.5 -12.5q15 -23 24.5 -29t28.5 -6q10 1 20 1t20 1h33q27 0 33 13q3 13 -14 21q-8 1 -13.5 0.5t-10.5 -1.5q-20 4 -42 37q-14 23 -22 35t-9 14q-8 14 -14.5 26.5l-11.5 22.5l-33 60q0 11 7 18l11 12.5t6 6.5 l15 12q13 10 21 18q11 10 20.5 15.5t17.5 7.5q9 3 34 3l12 8v12q-7 10 -13 12q-4 1 -7.5 2t-7.5 2q-1 1 -27 1h-95q-23 0 -30 -12q0 -19 21 -19q22 0 30 -5q4 -11 -18 -36l-27 -24q-24 -22 -30 -31l-32 -30q-5 -3 -8.5 -5.5t-5.5 -4.5q-4 -7 -10 -10q-5 3 -5 27v62l-3 25v22 l3 38v56q1 29 1.5 58.5t0.5 58.5v23q0 14 -1 31q-1 18 -1 30v21v54q0 1 0.5 7t1 13.5l1 15.5t0.5 14q0 34 -11 42q-4 4 -14 4q-16 0 -47 -12l-26 -10.5l-26 -10.5l-25 -5q-9 -5 -14 -12z" />
<glyph unicode="l" horiz-adv-x="291" d="M25 700q7 -6 34 -6q25 7 33 4q15 -9 15 -64v-80q2 -18 3 -30t1 -17q3 -41 3 -61v-39q-1 -14 -1 -25v-16v-18t1 -25t1 -25v-16q-1 -25 -2 -40.5t-2 -21.5v-32v-68q0 -59 -8 -70t-19 -14q-5 -2 -17 -3q-2 -1 -4 -1t-4 1h-8q-8 0 -18 -9q0 -17 13 -24q3 -2 27 0q16 -2 54 3 q39 1 66 0.5t42 -2.5q31 7 34 16q5 12 -4 19q-5 5 -27 5q-15 -4 -26 2q-14 7 -18 24q-1 3 -1 11t-1 21v37q0 15 1 20q-1 23 -1 40v30v25t1 31q-1 9 -5 20q2 27 2.5 54t-0.5 54q0 11 -3 52q-1 16 -1.5 28.5t-0.5 20.5q2 32 3 46t4 20v92l-3 36.5t-1 14.5t3 16q1 5 1.5 9 t0.5 8q0 22 -20 22q-12 0 -39 -13q-38 -18 -65 -23.5t-32 -9.5q-20 -12 -12 -29z" />
<glyph unicode="m" horiz-adv-x="718" d="M31 31q0 -17 21 -27q9 -4 34 -4h24h67q26 -2 34 0q9 2 17.5 4.5t13.5 11.5l-1 14h-20q-21 -6 -31 1q-4 26 -5.5 44.5t-1.5 29.5v57v9q0 6 -1 14v22q0 59 41 85q28 18 54 18q13 0 20 -4q14 -7 19 -21q3 -9 3 -34l0.5 -7.5l1.5 -21.5l2 -29v-73v-18q-1 -5 -1 -9v-6v-32 q0 -13 -3 -16.5t-16 -8.5h-3t-7 1q-7 1 -11 0q-3 -1 -9 -7v-8q7 -16 38 -16h8q5 0 12 1h20q5 3 20 2l16.5 -1.5t3.5 -0.5l20 -1q12 0 18 -2q28 0 33 6q5 11 -2 19q-4 5 -25 7q-18 1 -23 3q-16 10 -18 58v60v30q0 32 0.5 49.5t1.5 22.5q7 33 50 53q25 11 36 11q17 0 48 -31 l-1 -20v-16q0 -1 0.5 -7.5t1.5 -18.5t1.5 -18.5t0.5 -7.5l-6 -74v-47q0 -58 20 -73q10 -6 19 -6q5 1 9 1t9 1h36l25.5 -1.5t9.5 -0.5q10 2 20 3t15 9q0 21 -29 23q-2 0 -7 -0.5t-13 -1.5q-11 -2 -18 3q-14 7 -15 21v24l-3 45v76q0 3 1 11.5t2 18.5t1.5 20t0.5 16 q-1 29 -20 57q-26 39 -57 39q-20 0 -53 -13q-23 -8 -34 -12.5l-11 -4.5q-25 -13 -38 -29q-15 31 -27 43q-18 18 -46 18q-61 0 -137 -67q-5 6 -3 18q1 11 1.5 15t0.5 2q-6 21 -20 26q-7 3 -35 -5q-19 -7 -34 -11l-35 -9q-20 -4 -31 -20v-10l4 -4q15 -5 26 0q3 0 15 4 q7 2 12 -1q13 -8 18 -45q3 -30 3 -72v-45v-52q-1 -39 -13 -49q-11 -8 -18 -8q-9 4 -16 5q-17 5 -16 5q-8 0 -15 -10z" />
<glyph unicode="n" horiz-adv-x="511" d="M30 16q6 -13 25 -13q6 -2 12 -2q12 3 13 3q5 1 17.5 1.5t33.5 0.5h38q41 -6 47 -5q11 1 23 6t21 16v10q-13 12 -30 7q-1 0 -14 -3q-10 -2 -15 2q-12 5 -17 38q-2 13 -1.5 27t2.5 30q1 26 1.5 46t0.5 34q10 64 60 91q22 11 38 11q12 0 20 -5t12 -21q4 -11 5 -31 q1 -9 1.5 -29t0.5 -52v-43q0 -23 0.5 -39t1.5 -26q5 -47 19 -58t106 -11q22 3 26 5q8 8 8 23q-17 9 -26 5h-26q-11 5 -15 10q-1 1 -6 16q0 20 -5 30v100v60t-1 27q-5 44 -7 51q-8 21 -31 33q-16 8 -35 8q-31 0 -73 -20q-47 -30 -69 -48q-2 5 -2.5 9.5t-1.5 6.5l3 9v7 q-5 20 -19 30q-12 8 -49 -7q-19 -7 -31.5 -12l-19.5 -8h-16q-18 -6 -21 -10q-6 -12 1 -21l4 -2l5 -1h7l5 1l4 2h7q-4 0 0.5 0.5t15.5 1.5q8 1 16 -5q7 -6 7 -49q0 -5 1 -13.5t1 -9.5v-24v-31v-34q0 -16 -1 -33q-2 -55 -16 -65q-21 -6 -36 -4q-25 0 -25 -23z" />
<glyph unicode="o" horiz-adv-x="449" d="M29 196q-2 -29 3 -41q1 -20 17 -56q19 -46 54 -70q44 -31 133 -31q40 0 64 9q24 10 58 36q28 22 42 48q8 16 16 53q8 44 -4 91q-14 53 -43 81q-22 20 -78 40q-62 21 -95 15q-65 -22 -83 -34q-31 -20 -54 -53q-29 -41 -30 -88zM111 208q0 32 14 66q9 20 20.5 32.5t24.5 20 t26 10.5t24 3q24 0 48 -15q8 -8 14 -15.5l10 -12.5q25 -32 36 -63q8 -24 8 -56q0 -35 -3 -51q-11 -57 -47 -83q-13 -7 -23.5 -12t-18.5 -8q-2 -1 -44 7q-61 23 -80 110q-9 39 -9 67z" />
<glyph unicode="p" horiz-adv-x="470" d="M25 266q0 -19 8 -24h10q12 8 13 11q3 4 14.5 14t26.5 10q4 -12 6 -21v-36q0 -7 2 -20.5t2 -18.5v-20v-39v-178q0 -76 -14 -90q-9 -9 -35 -9h-20q-7 -2 -11 -10v-6q3 -7 8 -9q15 -3 17 -4h14q5 1 8 1h5h29q6 2 16 2h9l5 1l4 1h50q4 0 9.5 -0.5t12.5 -1.5q10 -2 21 0 q16 1 24 6q8 0 14 15q-11 17 -39 7q-29 2 -44 22q-8 14 -7 69q1 20 1 29t0 7q0 25 10 32q3 0 23 -5q16 -4 23 -4q12 3 23 3q15 -3 22 -3q15 1 33 6.5t35.5 14t32.5 18.5t26 22q10 16 16 28t10 21q7 18 6 75q-3 75 -29 107q-14 13 -24.5 21.5t-18.5 13.5q-47 34 -95 41 q-39 8 -92 -3q-6 6 -6 34q0 6 1.5 17t1.5 15v19q0 23 -14 31q-16 0 -25 -4q-4 -4 -12 -9.5t-11 -8.5q-16 -16 -17 -54v-26t-1 -27q-5 -24 -23 -34q-35 -23 -38 -26q-16 -16 -16 -23zM180 282q2 53 54 53q42 0 81 -36q13 -12 31 -44q18 -35 18 -73q0 -113 -74 -142 q-17 -7 -42 -7q-29 0 -43 11q-21 15 -24 63q1 -5 1 11v54v48l1 31z" />
<glyph unicode="q" horiz-adv-x="488" d="M21 186q0 -76 22 -110q20 -30 53 -49q17 -8 30.5 -13l21.5 -8q43 -14 63 -12q31 3 88 29l3.5 -58.5t0.5 -42.5q1 -47 -1 -49q-8 -20 -34 -27q-5 -2 -18.5 -3t-19.5 -7v-9q10 -7 38 -7h97l28 -1h19q23 0 31 2q17 6 17 15q0 5 -4 10q-12 4 -27 4q-25 0 -26 1q-16 9 -16 59 v181q-3 6 -3 24v95q0 78 39 131l-1 11q-19 4 -31 4q-13 0 -24 -8l-9 -9l-20 -20q-74 40 -140 40q-48 0 -91 -23q-32 -18 -52 -42q-10 -12 -21 -40q-13 -33 -13 -68zM102 184q0 29 5 54q12 52 51 77q14 8 40 12q23 3 51 -5q30 -10 47 -30q9 -11 11 -25v-47q0 -2 0.5 -10 t1.5 -22q3 -29 2 -43q-5 -45 -10 -60q-12 -31 -48 -49q-12 -5 -28 -5q-33 0 -52 12q-13 11 -22.5 20t-14.5 16q-25 27 -30 50q-4 15 -4 55z" />
<glyph unicode="r" horiz-adv-x="386" d="M27 11q0 -7 14 -10t25 -1q16 -1 20.5 -0.5t12.5 1.5h9q24 1 45 1t40 -2h19h30q20 0 20 17q-4 13 -11 14q3 -1 -15 -1q-11 -3 -15 -3q-5 1 -8.5 1.5t-5.5 0.5q-21 0 -28 18q-1 5 -1.5 18.5t0.5 35.5q1 13 1 23t1 17v39q4 41 8 50q11 23 31 42q16 15 42 15q11 -11 11.5 -19 t6.5 -17q15 -17 34 -18q25 0 39 20q16 25 3 62q-7 12 -18 22q-15 14 -28 15q-25 4 -58 -15q-11 -7 -17.5 -10.5t-8.5 -5.5l-23.5 -22t-15.5 -16l-7 54q-7 13 -14 14q-1 1 -17 0l-13.5 -6t-13.5 -5q-14 -5 -23.5 -8l-15.5 -5l-5 -1h-4l-5 -1l-4 -2l-4 -1h-4l-8 -1 q-14 -5 -16 -8.5t-2 -17.5l6 -8q43 7 56 -5q5 -5 5 -67v-11t1 -14q1 -10 1 -16v-10v-17t-1 -20t-1 -16t0 -4v-54q-10 -14 -13.5 -16.5t-13.5 -5.5q-22 -1 -32 0q-11 -2 -11 -20z" />
<glyph unicode="s" horiz-adv-x="346" d="M30 138l2 -71q2 -4 -1 -36q0 -30 8 -33h10l25 20q5 -3 10.5 -6t12.5 -6q11 -5 19.5 -8.5t14.5 -5.5q11 -2 49 1q47 3 85 29q43 32 47 75q3 27 -9 53q-19 43 -89 70q-44 15 -63 21q-32 15 -43 35q-9 20 4 37q21 28 63 24q8 -1 16.5 -3.5t16.5 -6.5q28 -13 43 -29t29 -45 l12 -20t5 -9q10 -3 17 10q1 1 1 20q0 10 -1.5 19.5t-1.5 19.5q-2 8 -2 40q0 30 -18 30l-24 -20q-72 26 -100 26q-53 0 -88 -26q-21 -16 -31 -40q-7 -15 -7 -34q0 -33 15 -55q17 -18 27 -25.5t21 -14.5q40 -16 61 -26q52 -22 64 -33q23 -21 22 -40q-5 -27 -39 -43 q-20 -9 -39 -9q-23 0 -45 13t-45 47q-10 14 -10 26q-3 10 -5 16t-4 10q-11 17 -21 17q-14 -5 -14 -14z" />
<glyph unicode="t" horiz-adv-x="331" d="M19 343q0 -20 20 -20q-1 -1 16 -1h14q18 -11 18 -55q0 -11 -1 -26.5t-1 -18.5v-70q0 -6 -0.5 -14.5t-0.5 -17.5t-0.5 -17t-0.5 -12q0 -60 39 -85q14 -8 38 -8q54 0 109 28q28 14 32 24q10 10 10 18t-8 16q-75 -35 -95 -35q-11 0 -18 4q-15 9 -18 28q-1 8 -1 15v16l-2 32 l-3 31v51q0 7 2 19t2 17q4 22 6 35v19q26 8 34 7q20 2 34 0l28 -1.5t7 -0.5q20 0 31 12v23q-9 9 -31 9q-26 -5 -31 -4q-58 -3 -62 1q-17 9 -18 67q1 -12 1 5v64v28q-8 2 -10 2q-11 0 -18 -19l-5 -23l-2 -8l-2 -5l-3 -11q-5 -16 -9.5 -28.5t-9.5 -20.5q-13 -22 -39.5 -38.5z " />
<glyph unicode="u" horiz-adv-x="544" d="M24 344q0 -7 4 -19q51 -12 55 -15q10 -8 15 -54l7 -61q4 -35 9.5 -61t12.5 -43q20 -50 68 -80q26 -14 54 -14q26 0 52 10q35 15 64 47q7 -22 6 -31q9 -23 25 -23q5 -1 9.5 -1.5t9.5 -0.5q27 0 64 31l16.5 16t10.5 10q11 19 11 30l-16 7q-6 -5 -10.5 -9.5t-8.5 -7.5 q-17 -11 -23 -8q-11 5 -12 11q-2 5 -3 11t-3 11q4 5 2 19q-1 11 -1.5 15.5t-0.5 2.5v79q0 12 1 28.5t3 37.5q5 51 -4 62q-8 12 -28 12l-33 -3h-30q-4 0 -14.5 1t-15.5 1q-29 -6 -30 -9q-5 -11 5 -20q15 -7 26 -9h15q7 1 14 -4q12 -10 14 -79q1 -59 -3 -87q-3 -41 -10 -56 q-11 -26 -41 -40q-14 -6 -26 -6q-20 0 -40 14q-30 23 -45 77q-2 9 -5.5 28.5l-8.5 48.5l-10 69q-6 43 -7 44q-6 19 -24 27h-55q-64 0 -54 2q-11 0 -11 -11z" />
<glyph unicode="v" horiz-adv-x="513" d="M20 341q3 -9 11.5 -11.5t16.5 -4.5q16 0 27 -15l15 -33l12 -20t6 -9l64 -138q5 -11 8.5 -18t5.5 -12q5 -5 17 -31t14 -28q7 -10 31 -10q20 0 29 9q2 2 17 29l112 201q27 48 32 53q1 1 15 8l40 21v11q-11 12 -43 12h-43q-17 2 -27 3t-15 2q-29 2 -40 -15v-10q9 -10 29 -10 q21 -8 25 -18q2 -6 2 -8q0 -7 -20 -45q-9 -17 -14 -28q-5 -8 -6 -12q-4 -5 -6 -8.5t-3 -4.5l-58 -107q-16 19 -20 30l-8 16l-7 19l-5 13l-53 108q-10 19 -10 31q4 7 11 9q3 1 10 -1t10 -2q24 0 30 10q0 16 -20 25q-9 3 -30 3h-26l-40 1h-56q-36 0 -40 -10v-5z" />
<glyph unicode="w" horiz-adv-x="737" d="M23 329q49 -4 64 -21q2 -3 11 -20.5t23 -49.5l99 -221q9 -12 11 -13q26 0 32 2q3 1 16 28l38 85l12 18t5 7q5 8 9.5 14l7.5 10l9 20q17 30 20 33l7 -14.5l5 -10.5l39 -96q6 -20 10 -29q8 -24 12 -28q5 -14 11.5 -28.5t23.5 -14.5q18 -2 42 39q7 13 13 26t13 26l65 117 q2 5 4 9.5t3 7.5q5 11 8 16l18 40q12 26 32 35q6 2 12 4.5l11 4.5q4 1 4 17q-8 15 -36 15h-39q-18 1 -28 1h-10l-20.5 -4t-16.5 -11l1 -14q9 -5 14.5 -6l11.5 -2q12 4 20 -10q2 -6 2 -10q0 -44 -78 -161l-20 -30l-32 75l-16.5 39.5t-6.5 15.5q-5 14 -8.5 33t-5.5 43 q15 10 30 5q20 0 28 11v9q-7 16 -38 16h-33l-46 5h-21q-18 0 -30 -4q-21 0 -25 -12l4 -14q37 -7 43 -26q2 -4 2 -8q0 -29 -78 -158l-15 -25l-16 29q-8 17 -13 29t-7 20l-15 32l-20 35l-9 16q-3 13 -4.5 21t-2.5 12q4 13 26 13q5 0 15.5 -2.5t14.5 -2.5l16 10q0 10 -5 15 q-4 2 -8 5t-9 6q-10 4 -18.5 5.5t-15.5 2.5q-11 0 -33 -3q-4 -1 -31 -1h-26q-6 0 -20 2t-21 2l-41 -6v-26z" />
<glyph unicode="x" horiz-adv-x="550" d="M32 33q0 -11 0.5 -16.5t4.5 -8.5t13 -4l26 -3q15 5 37 5q13 4 35 -3q21 -3 38 0q26 0 31 17q-3 8 -9 10.5t-13 4t-13.5 4t-10.5 8.5q0 14 13 30l23 28q40 49 55 49l15.5 -12t14.5 -11l21 -30l29 -28q14 -14 17 -27l-5 -7q-8 -3 -32 -3t-30 -12v-8q10 -15 21 -15 q4 -1 9 -1h14h24h23h50h45q12 0 41 17v16q-37 6 -38 7q-14 6 -33 29l-25 32q-19 24 -28 29l-14.5 19.5t-7.5 9.5q-32 35 -32 44q0 6 3 12q2 6 80 82q19 19 23 21t20 5q21 -3 28 3.5t12 10.5l-8 19q-7 2 -11.5 4t-8.5 3h-9q-5 -1 -10 -1h-93q-24 0 -31 -5q-18 -11 -8 -30h29 l9 -12v-4l-63 -79l-30 23.5t-17 16.5l-17 23l-18 24q3 10 17 10q22 7 23 8v9q-13 16 -23 19q-6 2 -22 2q-7 0 -14.5 -2t-9.5 -2h-9q-5 -1 -15 -1h-21q-94 0 -95 -1q-10 -7 -10 -19q0 -16 14 -16l6 -1l4 1h9q5 -2 8 -1q2 -1 4.5 -2t4.5 -2q11 0 17.5 -8l13.5 -16l33 -30 q17 -26 26 -32l16 -14q18 -17 26 -26q3 -9 -16 -25q-14 -17 -22 -25l-45 -48q-32 -33 -47 -43q-22 -13 -53 -13z" />
<glyph unicode="y" horiz-adv-x="555" d="M26 345q0 -6 6 -13q17 -4 26.5 -5.5t11.5 -1.5h6t12 1q6 1 18 -7q21 -24 26 -36q23 -21 29 -35l10 -18l16.5 -27t11.5 -18l50 -88q44 -79 44 -102q0 -5 -2 -13q-11 -30 -33 -55q-26 -33 -50 -37q-9 -2 -39 9q-27 10 -34 10q-30 -3 -39 -28q-8 -15 5 -32q19 -28 66 -23 q61 6 105 59q13 16 75 121l34 58l17.5 39t8.5 22l48 103q16 35 28 68q8 13 12 16.5t18 10.5l16.5 6t8.5 13q-3 7 -11 10q0 1 -12 4q-3 1 -23 1h-32q-28 0 -31 1q-26 0 -32 -2q-20 -8 -14 -25q10 -8 27 -6q16 -5 24 -18q-6 -46 -24.5 -88.5l-38.5 -87.5l-24 -37l-34.5 53 t-16.5 27l-24 42q-10 17 -14.5 26t-5.5 10l-25 39q-12 15 -12 22l8 10q11 4 26 -1q15 0 23 9v6q-39 27 -78 27q-12 0 -61 -6h-21q-24 0 -70 10q-16 -16 -16 -23z" />
<glyph unicode="z" horiz-adv-x="441" d="M31 217q2 -10 11 -15q13 0 22 14l6 24q0 1 -0.5 6.5t-1.5 15.5t7 23q22 36 85 36q10 0 27 -1t23 -1h17q27 0 34 -10q0 -7 -10 -18l-16 -19l-12 -21l-9 -16l-13 -17l-12 -18l-22 -24l-9 -14.5l-7 -11.5l-9 -16l-14.5 -24.5t-10.5 -15.5l-19 -21t-13 -14q-18 -23 -18 -36 q0 -25 23 -25q5 0 13.5 1t12.5 1q7 -1 13 0h13h12h11h132q1 0 9 -0.5t21 -1t22 -0.5q40 1 46 7q8 8 12 50l2 26l2 26v15q0 29 -10 39q-12 0 -25 -19q0 -14 -7 -27q-13 -46 -21 -55q-17 -21 -37 -27q-15 -3 -46 -2h-41q-24 6 -41 6l-4 6q-5 5 6 19l12 15l21 32l15 20l18 18 l14 21q1 3 3.5 7.5t6.5 10.5l5.5 7t2.5 3l4.5 6t2.5 3l12.5 19.5l10.5 16.5q2 4 10 11.5t21 18.5q15 12 20 35q4 20 -8.5 32.5t-55.5 12.5h-6q-3 0 -8 1h-15l-28 -1q-20 -1 -35 -1.5t-26 -0.5t-27 0.5t-36 1.5q-53 2 -55 1q-26 -5 -32 -15q-1 -1 -1 -67v-35v-18z" />
<glyph unicode="{" horiz-adv-x="458" d="M13 284q93 -21 119 -38q41 -28 52 -69q4 -13 4 -75v-88q0 -5 -1 -14.5t-3 -23.5q-2 -12 -2.5 -21t0.5 -16q4 -35 49 -81q34 -34 105 -50q52 -12 97 -12v27q-77 16 -111 39q-48 41 -54 62q-5 18 -2 40q1 11 2 20.5t3 19.5q2 19 3 33.5t1 25.5q0 16 -4 36q-1 7 -13 26 q-11 20 -11 26q-1 16 3.5 36t4.5 26q0 10 -5 18q-23 36 -78 52q-17 5 -46 10.5t-71 11.5q114 16 162 52q8 5 15 10t15 10q20 14 22 25l2 9l6 27q7 27 7 36l2 128q2 82 4 89q6 21 17 36t28 25.5t42 17t60 11.5v31q-14 0 -39 3q-23 3 -37 1q-21 -3 -48 -14q-7 -3 -17.5 -8.5 l-24.5 -13.5q-15 -9 -26 -22.5t-20 -26.5q-36 -50 -36 -134v-90q0 -41 -23 -95q-20 -44 -65 -56q-2 0 -40 -13q-29 -10 -48 -11v-48z" />
<glyph unicode="|" horiz-adv-x="126" d="M34 -70q29 2 56 0v1059h-56v-1059z" />
<glyph unicode="}" horiz-adv-x="458" d="M21 779q75 -10 107 -33q43 -28 43 -95v-12v-22q0 -10 1 -18q1 -75 5 -124.5t12 -74.5q3 -10 23 -24l14 -10.5t15 -10.5q44 -32 161 -52q-86 -12 -116 -22q-54 -16 -79 -53q-24 -35 -20 -131q0 -8 -2 -19t-2 -17q0 -4 1 -16.5t3 -34.5l3.5 -38t1.5 -27q0 -8 -0.5 -13.5 t-1.5 -9.5q-8 -27 -56 -62q-24 -18 -49 -25q-7 -2 -22 -5.5l-38 -8.5v-28q45 0 96 13q71 16 105 50q45 45 50 81q1 6 -0.5 16l-3.5 24l-3.5 28t-1.5 21q0 24 3 74q3 71 4 75q10 42 51 69q10 7 24 12.5t33 10.5l63 15v48q-60 13 -88 24q-47 14 -66 56q-5 11 -10.5 22 t-10.5 22q-13 33 -10 63l9 78q1 6 1 12v11q0 61 -37 111q-28 39 -46 49q-54 32 -91 36q-24 -1 -42.5 -1.5t-32.5 -2.5v-31z" />
<glyph unicode="~" horiz-adv-x="309" d="M29 706h22q7 24 11 30q9 13 28 13q15 0 44 -13q35 -17 49 -18q40 -7 66 17q3 8 4 9h5l4 4l6 8q0 8 1 9q6 4 13 22v27h-18q-14 -41 -46 -42q-5 0 -16.5 4t-18.5 4l-11 5q-10 10 -29 10q-9 10 -26 10q-7 1 -30 -2q-23 -4 -31 -9q-27 -26 -27 -88z" />
<glyph unicode="&#xa1;" horiz-adv-x="182" d="M30 88q0 -64 25 -83q16 -12 36 -4q46 19 46 132q0 41 -6 73l-22 254l-3 51q-3 46 -10 50q-10 8 -20 4q-11 -6 -15 -52q-1 -4 -2 -16.5t-3 -34.5l-24 -322q-1 -18 -1.5 -31t-0.5 -21zM32 756q-3 -45 28 -66t60 -6q31 15 36 60q3 32 -28 54q-17 12 -37 12q-12 0 -24 -5 q-32 -17 -35 -49z" />
<glyph unicode="&#xa2;" horiz-adv-x="383" d="M22 518q0 -35 3 -45q13 -39 31 -62l25 -22.5t19 -14.5q35 -25 65 -25v-19q1 -5 1 -13v-12q-1 -5 -1 -12q0 -19 20 -27q7 0 18 3q8 8 8 41l1.5 14t1.5 25q41 0 77 14q36 15 51.5 35.5t20.5 58.5l-6 6q-7 0 -19 -16q-11 -16 -11 -20q-18 -19 -55 -31q-37 -11 -56 -8v19 q0 11 1 22t1 17v6l-5 46v39q0 3 5 25v84v4q0 4 1 12v26q38 0 58 -27q5 -8 5 -22q0 -21 -14 -21q-8 0 -14 2.5t-8 2.5q-5 0 -12.5 -4.5t-7.5 -29.5q0 -27 34 -40q30 -12 61 9q32 23 32 65q0 51 -57 83q-22 13 -76 13v19q0 10 1 19l-2 16l-2 16q-2 5 -29 8q-11 -8 -11 -21 q0 -3 -0.5 -10.5t-1.5 -20.5l-1.5 -20t-0.5 -9v-1q-20 -4 -34 -9t-24 -10q-17 -9 -29.5 -18.5t-21.5 -21t-16 -26t-13 -33.5q-13 -39 -13 -79zM110 556l26 86q13 21 37 35q0 -7 -1 -18t-3 -28q-3 -33 -3 -39v-73l2 -52v-17l-1 -40q-13 9 -30 32q-13 18 -17 27q-10 21 -10 87 z" />
<glyph unicode="&#xa3;" horiz-adv-x="491" d="M27 75q0 -56 73 -75q20 -5 33 -5q43 0 98 52q80 -59 134 -59q11 0 23 5q24 11 59 80q10 19 11 42q6 15 6 22q0 13 -6 18l-36 -21.5l-36 -21.5q-26 -14 -49 -14q-21 0 -60 9l8 26q7 21 13 42t13 41q3 15 3 81q10 7 16 12t9 7q4 0 7.5 0.5t8.5 1.5q7 2 10 1l27 2q16 1 24 3 l13 26v4q-2 8 -21 8h-29q-9 -3 -14 -1q-5 1 -9 1.5t-6 0.5h-26h-10q-5 -1 -11 -1l-6 2l-3 4l-5 5l-2 4l-11 17q-9 7 -10 16l-10 18l-28 39.5l-28 39.5q-27 40 -27 76q0 5 0.5 10t1.5 10q8 39 56 60q12 4 36 3q23 -2 32 -9q16 -9 27 -27.5t11 -32.5l-9 -40q1 -19 12 -40 q13 -11 18 -11q5 -2 20 -1q25 1 37 12l23 32q-8 69 -89 130q-39 30 -104 30q-25 0 -41 -6q-38 -13 -70.5 -42t-43.5 -64q-8 -27 -8 -46q0 -30 20 -72q8 -14 24 -39.5l40 -61.5l8 -17h-26q-22 -1 -37 -0.5t-24 1.5q-27 -2 -31 -4q-2 -1 -10 -29l-6 -8q0 -8 19 -12q1 0 12 2 t12 1h17q22 2 35.5 3t20.5 1q39 0 50 -12q23 -26 23 -84q0 -49 -13 -100q-57 39 -101 48q-10 2 -15 2q-27 0 -46 -22q-27 -29 -27 -73zM70 64q1 -1 1 40q12 18 34 18q19 1 36 -3q11 -3 51 -40q-5 -15 -11 -20q-9 -5 -20 -13q-24 -16 -41 -13q-41 8 -50 31z" />
<glyph unicode="&#xa7;" horiz-adv-x="456" d="M28 -81q-4 -16 16 -29q5 -5 13 -10.5l18 -12.5q28 -18 67 -18q29 0 92 15q48 12 101 63q52 49 75 107q24 58 11 151q-6 46 -16 67q-13 30 -49 84l-91 133q-33 48 -39 79q-3 15 -3 43q0 29 3 35q14 29 50 31q19 1 41 -12q5 -5 10 -9.5t10 -9.5q6 -7 20 -11q9 -3 16 -3 q16 0 41 31q3 35 -16 54q-25 20 -71 20q-39 0 -76 -12q-155 -50 -197 -226q-9 -36 -9 -69q0 -58 30 -119q22 -48 80 -125l20 -27l10 -22l41 -63q10 -23 16 -40.5t9 -28.5l-4 -7q-1 -7 -1 -13t-1 -11l-6.5 -16.5t-4.5 -9.5q-20 0 -27 -7q-5 -5 -11 -9.5l-11 -8.5 q-30 3 -52 20q-25 19 -27 23q-5 18 -21 22q-15 6 -32 -5q-25 -16 -25 -44zM130 450q0 70 35 117q10 -27 10 -79l27 -77l45 -68q19 -20 19 -39q0 -10 10 -17q8 -3 14 -16l19 -23q43 -82 43 -135q0 -7 -0.5 -14t-1.5 -15q-7 -34 -11 -49t-11 -23q-8 -12 -21 -12q-12 4 -12 27 q0 11 -5 28l-6.5 39.5t-4.5 18.5l-39.5 75t-23.5 41l-15 26q-71 91 -71 195z" />
<glyph unicode="&#xa8;" horiz-adv-x="334" d="M31 772q-2 -34 20 -47q19 -16 44 -6q28 11 32 33q6 27 -14 47q-17 17 -43 12q-38 -8 -39 -39zM201 769q0 -46 40 -56q24 -7 44 13t13 51q-4 18 -25 28q-5 1 -36 9q-24 -21 -26 -23q-10 -10 -10 -22z" />
<glyph unicode="&#xa9;" horiz-adv-x="756" d="M32.5 389q-3.5 -37 0.5 -82q11 -133 81 -209q28 -32 99 -69q79 -41 156 -41q51 0 111 16q12 2 24 5l24 6q15 4 26.5 8t19.5 9q38 24 80 70q8 10 10 19q1 1 1 19q0 5 1 9t4.5 10t9.5 15l16 24q15 20 20 40q11 47 11 112q0 53 -7 80q-26 96 -49 130q-47 66 -176 109 q-90 31 -143 31q-86 0 -186 -78q-85 -66 -120 -167q-10 -29 -13.5 -66zM72 314q-2 16 6 54q4 14 7 27.5l6 27.5q7 32 12.5 54t10.5 33q19 42 66 78q61 46 135 63q16 3 22 2q8 1 17 1.5t19 0.5q27 -1 56 -6.5t60 -16.5q102 -36 143 -88q34 -43 55 -134q4 -17 4 -42 q0 -56 -30 -135q-5 -14 -11 -29t-11 -30q-15 -32 -36 -55q-36 -38 -84 -60q-31 -11 -54.5 -18l-40.5 -12q-44 -14 -103 0q-23 5 -44.5 12.5t-40.5 18.5q-58 31 -100 78q-54 61 -64 176zM177 352q0 -74 32 -129q57 -98 164 -98q61 0 102 25t78 88l-22 13q-26 -40 -42 -56 q-17 -17 -47 -29q-28 -3 -43 0q-52 -3 -72 10l-27 18q-19 13 -23 19q-10 14 -10 38q0 7 1 20.5t1 20.5q0 6 -1.5 14t-4 16.5t-4 16t-1.5 11.5q0 -2 -0.5 8t-1.5 33q-1 14 -0.5 25.5t2.5 19.5q7 14 13 20q11 25 25 43.5t31 29.5q22 16 53 16q21 0 44 -9q42 -17 68 -65 q20 -36 28 -79h20q4 22 6 38.5t2 28.5q0 13 -4 30q-2 12 -3.5 20t-2.5 12q-1 11 -0.5 21.5t2.5 21.5h-21l-6 -21q-6 -12 -21 -12q6 0 -33 14q-27 15 -31 15q-26 10 -63 8q-48 -1 -63 -8q-60 -24 -102 -104q-23 -44 -23 -104z" />
<glyph unicode="&#xaa;" horiz-adv-x="404" d="M35 206q7 -11 16 -15q2 -1 17 -1q29 -2 43 20q6 10 6 30q-2 27 0 32q1 9 8 18.5t16.5 18t20.5 14t20 6.5q30 4 52 -19q21 -23 11 -59q-6 -23 -58 -50l-34 -16.5l-34 -16.5q-20 -11 -31 -18.5t-15 -10.5q-33 -28 -34 -64q-1 -22 9 -41q8 -13 26 -27q22 -15 46 -15 q13 0 72 18q11 11 23 11q8 5 14 8t8 5q16 -11 18 -18q22 -21 46 -21q17 0 35 9q27 14 35 30q6 11 7 37l-6 6q-10 -11 -15 -20q-10 -15 -20 -18q-16 0 -16 20q0 5 1 14.5t1 11.5q5 50 3 79q-1 20 -3 31q-2 26 -3.5 41t-1.5 19q0 55 -16 72q-35 39 -89 39q-27 0 -77 -26 q-42 -22 -65.5 -42.5t-35.5 -45.5q-11 -23 0 -46zM121 82q-4 48 37 74q36 23 77 34q8 -8 8 -31q3 -8 2 -35q-2 -31 -4 -37q-4 -15 -21 -32q-23 -19 -51 -19q-44 0 -48 46z" />
<glyph unicode="&#xab;" horiz-adv-x="399" d="M19 200l40 -34l35 -32q15 -13 26 -19l31 -30l11.5 -15.5l10.5 -14.5q16 -13 28 -13l7 7q-1 5 -1.5 11t-1.5 11q-1 2 -4 7t-9 14l-19 28l-8 10q-2 4 -3.5 6.5t-3.5 4.5q-6 7 -9 9l-3 9l-14 22l-10 7l-4 8q-1 6 11 21q5 5 9 10.5l8 10.5l8.5 12t5.5 9q11 15 14 18l9 16 q5 8 9.5 14t6.5 10q9 16 9 26l-9 10q-16 0 -25 -13l-12 -14t-7 -11l-37 -31l-18 -15l-6 -5l-25 -28l-14 -5l-12 -11q-11 -5 -24 -20zM175 199l72 -65l19.5 -14l14.5 -10l24 -23q12 -13 14 -17q7 -13 12 -16q9 -12 14 -12q9 -3 16 -1q5 13 -1 27l-5 12q-7 10 -12 13l-10 22 q-6 8 -12 13.5t-17 23.5l-9 14q-10 14 -14.5 23l-5.5 11q41 52 53 71l15 23.5l9 14.5q16 20 11 36l-17 5q-11 -2 -20 -18l-39 -37q-11 -10 -20 -19l-17 -17l-18 -17q-14 -12 -16 -13l-4 -1h-4l-6 -8q-2 -3 -13.5 -9.5t-13.5 -11.5z" />
<glyph unicode="&#xac;" horiz-adv-x="370" d="M11 734q0 -8 7 -21l5 -10q9 -7 11 -12q7 -16 11 -26.5t5 -15.5l6 -19l3 -6t9 -9q6 -14 6 -18l103 -242t73 -184q1 -5 21 -72q6 -20 14 -37t18 -31l3 -7l4 -7l7 -15q5 -1 10.5 -1.5t10.5 -0.5q14 0 19 8l-128 319v4l-2 4q0 6 -2 10l-56 143l-9.5 24l-8.5 22q-1 4 -13 12 l-12 33l-10 33l-19 38l-3.5 12t-3.5 9l-20 46l-13 21h-33q-6 0 -13 -4z" />
<glyph unicode="&#xad;" d="M32 153q0 -13 9 -13q13 -1 23 -1.5t18 -0.5q19 0 45.5 0.5t60.5 1.5l51 5q26 52 26 60q7 15 -7 21q-7 5 -14 5t-19 -4l-15 -5q-20 -2 -31.5 -3t-15.5 -1q-10 2 -27 2q-2 -2 -27 0l-13.5 2l-13.5 2q-18 2 -26 -6q-11 -21 -17.5 -37.5t-6.5 -27.5z" />
<glyph unicode="&#xae;" horiz-adv-x="755" d="M32 367q-6 -80 8 -132q28 -108 125 -183q100 -78 188 -78q48 0 141 30q127 43 176 110q16 22 30 60q3 10 7.5 27l11.5 42t7 77q0 69 -12 116q-2 10 -7 19.5t-12 19.5l-17.5 24.5t-8.5 14.5q-8 26 -6 37q-2 17 -39 50q-28 27 -52 41q-59 21 -93 27q-62 18 -111 18 q-80 0 -156 -42q-72 -39 -99 -69q-72 -79 -81 -209zM71 358q11 119 64 178q42 47 100 78q22 11 43 19t41 12q62 12 104 0q76 -21 95 -30q42 -20 83 -61q21 -21 36 -55l12 -29t11 -30q31 -78 31 -135q0 -11 -1.5 -21t-3.5 -20q-22 -93 -55 -135q-40 -50 -143 -88 q-57 -22 -117 -23q-5 0 -10.5 -5.5t-11.5 -4.5q-11 4 -19.5 7.5l-15.5 6.5q-53 12 -117 63q-89 69 -114 190q-14 65 -12 83zM183 134q46 4 82 3q7 0 18.5 -4t16.5 -4q17 0 40 1.5l53 3.5v22q-49 3 -56 7q-9 7 -11 21q-3 28 -4 31q-6 13 -6 23q0 9 6 29v63q28 1 42 -0.5 t21.5 -5t11 -9.5t10.5 -14q1 -1 5.5 -3.5l9.5 -5.5t9 -6t4 -6q1 -19 0.5 -33t-2.5 -24q5 -54 34 -79q19 -18 55 -18q16 0 31 5q30 12 43 43q4 8 6.5 22.5t4.5 34.5h-24q-8 -57 -24 -69q-12 -7 -22 -3q-8 4 -12 18q0 3 -7 32q-11 49 -33 77.5t-70 49.5l22 2l22 2q28 3 48 15 q15 9 39 51q4 6 2 19q-1 6 -1.5 12t-1.5 11q-1 2 1 18q2 11 -3 17q-38 65 -203 65h-157v-23q43 0 52 -4q17 -11 17 -46v-45l-3.5 -19t-0.5 -14q0 1 -0.5 -14.5l-1.5 -46.5q-2 -41 6 -84q4 -68 -6 -81t-63 -13v-24zM322 355v55q0 1 1 7.5t2.5 14.5t3 17t1.5 15q0 17 1 34 t8 23q11 6 42 4q16 -1 28 -3.5t20 -6.5q36 -17 41 -62q5 -54 -31 -81q-23 -17 -117 -17z" />
<glyph unicode="&#xaf;" horiz-adv-x="328" d="M35 776q0 -13 3 -20q27 -8 34 -4h21q4 0 10 1t8 1h41h17q2 0 7 -1t6 -1l13 5q20 -5 25 -6q18 0 24 3q21 3 48 -2q3 25 3 57q-19 4 -26.5 6t-5.5 2h-181l-44 -6v-20q-8 -6 -3 -15z" />
<glyph unicode="&#xb1;" horiz-adv-x="628" d="M16 390q3 0 7 0.5t9 1.5q8 2 16 -1q5 0 52 -3q46 -3 57 -3h31q21 0 39 5h7t13 1h20q15 -3 30 -3l1 -35l-8 -68v-61h57q0 2 -0.5 6.5t-1.5 9.5q-2 7 1 16q0 3 3 50q3 48 3 58q-1 5 -1 11v11h87q8 0 19 -2.5t19 -2.5q2 0 10.5 1.5t24.5 3.5h94q3 7 3 24v12q-1 4 -1 6v4 q-4 0 -32 5q-24 6 -46 4l-77 -6h-16q-23 5 -41 5q-26 8 -46 8v36l2 37v71v21q-8 3 -24 3q-4 0 -12 -1t-10 -1q0 -4 -1.5 -13t-3 -19.5t-3 -22.5t-1.5 -22l1 -90q-6 0 -14.5 -1t-17.5 -2.5t-17.5 -2.5t-12.5 -1l-32 6l-57 -6l-68 7h-62v-57zM19 55q5 0 16 3q6 1 15 -3 q6 0 53 -3q23 -1 37.5 -1.5t19.5 -0.5h31q21 0 39 5h40q15 -4 28 -6q3 0 7.5 -1.5t6.5 -1.5q6 0 14 4h20t20 1h31h44q9 0 19.5 -2.5t17.5 -2.5q2 0 11 1.5t25 3.5h94q3 9 3 24q0 4 -1 12t-1 11q-4 0 -11.5 1.5t-20.5 3.5q-24 6 -45 4l-78 -6h-15q-23 6 -42 6q-20 6 -32 6 q-7 0 -14.5 -3t-14.5 -3v-16q-13 0 -32 16q-3 0 -13 1.5t-20 1.5q-9 0 -17 -1.5t-16 -1.5l-32 4l-57 -6l-67 7h-63v-57z" />
<glyph unicode="&#xb2;" horiz-adv-x="583" d="M33 26q0 -11 7.5 -18t32.5 -8q18 -2 45 0h26h17h43h23q-2 0 6 0t25 -1t33 -1h33q8 0 20 0.5t29 1.5t28.5 1.5t18.5 0.5q74 0 73 -1q14 11 23 48q10 43 24 90q4 19 3 46l-7 7h-9q-23 -23 -24 -31q-5 -11 -9.5 -19t-6.5 -13q-15 -18 -29 -22q-11 -4 -39 -5l-71 2h-196 q-4 -2 -13.5 1.5t-12.5 8.5q33 90 154 151l68 34q63 32 117 76q65 53 78 109q10 36 10 67q0 61 -50 123q-19 23 -44 41.5t-56 32.5q-74 33 -162 27q-72 -5 -111 -27q-41 -23 -71 -74q-11 -18 -21 -70q-10 -60 0 -88q18 -43 26 -51q10 -8 26 -14l11.5 -3l19.5 -5q5 -1 9 -1.5 t9 -0.5q39 0 61 22q28 28 24 60q-3 20 -14 31q-14 14 -30 14q-6 -2 -10.5 -10.5t-13.5 -15.5q-13 -10 -32 4q-27 22 -21 67q9 69 76 102q5 4 46 8q20 2 31 3.5t13 1.5q14 -2 42 -13q29 -10 47 -21q40 -25 54 -52q18 -37 17 -87q-2 -51 -10 -69l-27 -35t-22 -23 q-31 -40 -62 -70.5t-63 -52.5l-43 -29q-66 -44 -89 -72q-14 -17 -28 -48l-10 -25.5l-10 -25.5q-3 -8 -17 -31q-11 -18 -12 -28t-3 -20z" />
<glyph unicode="&#xb3;" horiz-adv-x="588" d="M28 198q0 -65 28 -105q74 -104 259 -103q53 0 109 29q32 17 56.5 39t40.5 50q38 67 38 141q0 51 -19 86q-56 102 -166 108q51 26 65 37q39 26 61 65q21 36 21 73q0 32 -16 63q-43 84 -151 91q-15 1 -28.5 1.5t-26.5 0.5q-154 0 -218 -87q-26 -35 -26 -79 q0 -24 14.5 -44.5t37.5 -24.5q25 -4 43.5 10.5t19.5 39.5q1 24 -10 31h-10q-14 6 -14 24q-1 10 7 25q32 56 129 62q68 5 107 -47q29 -38 29 -85q0 -27 -11 -57q-28 -76 -159 -118q-38 -12 -44 -31q-5 -14 4 -22q10 -9 30 0q8 2 20.5 8l29.5 14q25 13 43 13q14 0 31 -6 q34 -13 64 -58q22 -36 29 -68q2 -11 3.5 -22t1.5 -22q0 -82 -67 -152q-39 -41 -123 -41q-8 0 -14.5 0.5t-11.5 1.5q-33 6 -72 26q-54 28 -67 62q-11 29 -7 41q9 27 23 37l25 -11q13 5 25 11t19 24q10 25 -10 51q-22 30 -71 25q-39 -5 -61 -53q-10 -20 -10 -54z" />
<glyph unicode="&#xb4;" horiz-adv-x="248" d="M16 671h29q6 0 29 9l55 31l50 25q40 20 44 33q5 14 -3.5 27.5t-30.5 17.5q-21 1 -46 -27q-17 -14 -28 -24.5t-18 -16.5l-33 -35l-30 -24t-18 -16z" />
<glyph unicode="&#xb5;" horiz-adv-x="607" d="M33 -28q0 -20 2 -39q0 -3 -1 -21.5t-1 -31.5q0 -71 26 -85q8 -5 22 -5t22 5q12 7 13 32v51q1 47 12 76q4 23 6 38q0 1 -0.5 6.5t-1.5 11t-1.5 10.5t-0.5 7q0 17 -0.5 33.5t-1.5 31.5q6 -11 15 -36q8 -22 15 -29q22 -27 92 -29q72 -2 110 56l14 29t8 20q27 -104 106 -104 q48 0 75.5 28t29.5 76v37q0 29 -14 29q-3 0 -5 -1q-10 -7 -10 -25q-3 -9 -5 -16t-3 -12q-8 -38 -34 -50q-34 -16 -60 4q-20 12 -27 54q-4 30 -6 68q-2 17 -2.5 35t0.5 38q3 27 6 42q0 7 3 48q3 28 0 43l-7 40q-22 13 -36 13q-21 2 -57 -13q-1 -19 -2 -33.5t-2 -25.5 q-2 -30 1 -62t3 -67q1 -14 1 -25v-17q0 -110 -47 -137q-20 -11 -46 -11q-28 0 -47 12q-46 27 -53 70q-1 21 -1 42t-1 42q-5 37 -2 72q1 5 2.5 13.5t4.5 22.5q6 24 5 34q-3 23 -5.5 39.5t-4.5 27.5q-29 6 -44 6q-17 0 -45 -6q-2 -28 -2.5 -49t-1.5 -36l-7 -32.5t-7 -23.5 q-1 -18 -0.5 -42.5t2.5 -55.5q6 -71 6 -97q0 -9 -1.5 -20.5t-3.5 -25.5t-3 -23.5t-1 -14.5q-1 -22 -1 -42z" />
<glyph unicode="&#xb6;" horiz-adv-x="488" d="M20 572q0 -9 4.5 -27t4.5 -27q4 -37 9 -61t10 -35q16 -33 45 -59q11 -9 20 -15t18.5 -9.5t21 -5t26.5 -2.5h24t23 -1q1 -82 0 -152q0 -7 -1.5 -16l-3.5 -22q-2 -12 -3 -21t-1 -14q0 -72 9 -196h34q-2 76 0 171v22t1 34t1.5 35.5t0.5 26.5q0 37 -3 156q-1 51 -1.5 89.5 t0.5 67.5q-3 70 -6 105q2 32 4 54.5t3 36.5q0 5 3 5q2 0 8 -2.5t10 -2.5h75q-2 -105 -2.5 -200.5t-1.5 -183.5v-36q0 -23 -1 -58q-1 -29 -1 -51v-36l6 -233h35q-2 40 -2.5 83t0.5 91q0 11 3 34q2 12 3 21t1 16q0 8 -0.5 21.5t-1.5 30.5q-1 18 -1 31v23q0 17 3 52q3 34 3 51 q0 10 -1 23.5t-3 31.5q-3 37 -3 53l3.5 48.5t3.5 34.5q-2 54 -4 92t-4 61h71v26q-71 6 -110 6q-28 0 -76 -6q-28 -2 -54 -5.5t-51 -8.5q-84 -16 -122 -72q-27 -52 -29 -75z" />
<glyph unicode="&#xb8;" horiz-adv-x="297" d="M19 -162v-7q72 -39 153 -39q65 0 91 53q14 29 -1 62q-14 23 -52 31l-27.5 4l-27.5 4l10 26v21q-31 0 -33 -1q-6 -12 -6 -22l-6.5 -13l-3.5 -7q-3 -16 -4.5 -26t-2.5 -15q42 0 46 -1q7 -1 16.5 -5t22.5 -11q0 -37 -9 -46q-17 -15 -38 -15q-13 0 -29 4q-11 2 -19 3t-13 2 q-1 3 -26 14q-20 11 -21 10q-4 -2 -6 -2z" />
<glyph unicode="&#xb9;" horiz-adv-x="425" d="M27 36q-6 -11 1 -22q10 -19 72 -19l6 5q4 0 16 1.5t32 3.5q14 2 25.5 3t21.5 1q33 0 46 -5l29 -3.5t18 -2.5q90 -3 103 12q8 13 8 21q-3 8 -10 10.5t-14 4.5q-9 2 -44 -1q-27 -2 -41 9q-21 16 -25 56q-1 4 -1 18v37v56v27l12 417q3 12 1 52q-1 49 -13 58q-5 3 -12 3 q-16 0 -46 -10q-10 -4 -19 -7l-18 -6l-49 -12l-26 -6l-26 -6q-33 -11 -39 -21q-5 -11 0 -21q3 -5 16 -8l14 3q8 1 25.5 5.5t26.5 4.5q17 0 28 -10q27 -21 27 -80q0 -17 -3 -38q-1 -5 -1 -11t-1 -11l-5 -162v-20v-30q0 -2 -3 -14t-3 -22v-15l5 -55v-18v-36q0 -6 -2.5 -17 t-2.5 -16q0 -26 -4 -42.5t-11 -26.5t-16 -14.5t-21 -5.5q-11 -1 -23 -1.5t-23 -2t-19.5 -4t-11.5 -6.5z" />
<glyph unicode="&#xba;" horiz-adv-x="449" d="M29 196q-2 -29 3 -41q1 -20 17 -56q19 -46 54 -70q44 -31 133 -31q40 0 64 9q24 10 58 36q28 22 42 48q8 16 16 53q8 44 -4 91q-14 53 -43 81q-22 20 -78 40q-62 21 -95 15q-65 -22 -83 -34q-31 -20 -54 -53q-29 -41 -30 -88zM111 208q0 32 14 66q9 20 20.5 32.5t24.5 20 t26 10.5t24 3q24 0 48 -15q8 -8 14 -15.5l10 -12.5q25 -32 36 -63q8 -24 8 -56q0 -35 -3 -51q-11 -57 -47 -83q-13 -7 -23.5 -12t-18.5 -8q-2 -1 -44 7q-61 23 -80 110q-9 39 -9 67z" />
<glyph unicode="&#xbb;" horiz-adv-x="395" d="M31 346q0 -8 10 -27q1 -5 9 -13q5 -10 6 -13l10 -18q2 -3 6.5 -8.5t10 -11.5t10 -12t6.5 -9l23 -38q0 -2 -15 -18q-7 -8 -11 -12l-5 -5l-21 -36l-24 -36q-6 -8 -14 -34l5 -6h16q18 16 22 22l35 31q7 6 11 10.5t6 6.5q8 10 17 15l20 20q17 14 27 17q10 7 15 12l14 11 l-13 19q-11 8 -19.5 13.5l-14.5 9.5l-29 29q-19 15 -29 19l-30 28q-8 9 -13 17.5t-10.5 14.5t-12 8.5t-15.5 -0.5zM187 61q0 -3 3 -10l17 -5q18 7 34 34l30 27l8 6q2 4 3.5 5.5l2.5 2.5q5 4 9.5 7t6.5 5l22 23q5 4 15 7q6 1 12 9l26 23q-19 18 -26 23l-12 10l-7 4l-5 1 l-28 32q-6 5 -11.5 9t-10.5 8l-35 34q-18 18 -23 27q-7 7 -26 7l-4 -1q-3 -11 4 -23q0 -6 12 -22l16 -21l26 -37l19 -32q10 -7 10 -8l1 -5l3 -5q-8 -14 -14 -18l-4 -6l-4 -4l-2 -4t-3 -5l-14.5 -18t-10.5 -14q-5 -10 -11 -19.5t-11 -19.5q-18 -26 -18 -27z" />
<glyph unicode="&#xbf;" horiz-adv-x="395" d="M22 115q5 -49 23 -69q15 -11 27 -19t22 -13q39 -19 80 -22q59 -3 105 22q21 13 49 48q10 16 18 27t13 19q8 29 10 45q4 51 -41 86q-25 19 -53 19q-53 0 -63 -42q-5 -21 12 -38q10 -11 24 -15q6 -1 12.5 2.5t11.5 5.5h4l4 -1l6 -5l3 -5l6 -10q6 -14 5 -30q-5 -39 -61 -76 q-36 -3 -47 1q-58 21 -73 64q-6 16 -6 35q0 67 67 162l38 55q59 86 59 138q0 20 -8 41q-5 12 -9 15.5t-15 4.5q-21 0 -28 -18q-5 -12 -5 -50q-5 -38 -10 -50l-40.5 -54l-34.5 -43l-13 -19l-33.5 -49t-21.5 -33q-31 -47 -36 -62q-6 -18 -1 -67zM170 741q0 -16 14 -35 q27 -32 58 -28q14 3 29 16t20 28q3 7 3 17q0 25 -16 44q-20 26 -56 21q-34 -5 -47 -40q-5 -13 -5 -23z" />
<glyph unicode="&#xc0;" horiz-adv-x="972" d="M18 23l14 -23h166q5 0 15.5 -1.5t13.5 -1.5q20 0 29 14v6q-8 17 -36 17q-29 9 -36 21q-6 9 -6 20q0 15 12 35l30 51q6 10 25 53q15 33 24 42q18 16 48 15q17 -1 29 -1.5t18 0.5h46h33h46q22 0 26 -4h17q40 4 58 6t14 2q18 0 32 -11q6 -12 11 -23l10 -21l16 -31.5 l12 -23.5q26 -55 31 -83q1 -30 -22 -44q-12 -8 -38 -3q-3 0 -19 6q-15 7 -18 7q-16 1 -24 -10q-7 -9 7 -26q13 -16 67 -16q21 0 53 3l26 1.5t11 0.5h32q7 1 11 0q9 -3 24 -3h22q5 0 11 -3.5t12 -3.5h16q33 0 43 2q26 9 26 20q0 5 -3 11q-12 7 -32 7t-33 4q-32 10 -54 48 q-11 15 -27 60l-7 18l-5 22l-5 13.5t-3 7.5l-14 36t-15 36l-24 48l-17 34l-24.5 63.5t-16.5 43.5l-6 12l-1 6l-3 5q-31 73 -47 115.5t-23 62.5q-21 58 -21 67q0 20 53 56q0 21 -30 21q-20 0 -40 -14l-29 -20q-19 -11 -37 -23l-36 -23q-16 -11 -41 -66l-19 -40.5t-14 -29.5 l-29.5 -54.5l-21.5 -39.5l-58 -119l-42 -77l-29 -52l-25.5 -51.5t-12.5 -27.5q-41 -86 -61 -106q-21 -21 -85 -43zM319 327q-7 7 1 31q25 73 55 115q20 29 37.5 58t31.5 58l22 45q13 13 17 15q13 -14 15 -21l11 -23q7 -7 7 -22q3 -8 5 -14t3 -10l6 -17q5 -11 8.5 -18 t5.5 -10l20 -47l6 -33l15 -33q18 -39 21 -68q-11 -11 -28 -11l-29 -3h-48q-20 0 -28 -2h-49h-53q-43 0 -52 10zM328 981l10 -5l7 -5.5t3 -2.5l130 -61q22 -11 51 -9l-71 70l-27 19q-13 19 -21 22q-38 29 -54 31q-18 1 -28 -12q-9 -11 0 -47z" />
<glyph unicode="&#xc1;" horiz-adv-x="972" d="M15 23l15 -23h165q5 0 15.5 -1.5t14.5 -1.5q18 0 29 14v6q-8 17 -37 17q-27 9 -35 21q-14 24 5 55l30 51q3 5 9 18.5l16 34.5q15 34 24 42q18 16 49 15q17 -1 29 -1.5t18 0.5h45h33h47q19 0 26 -4h16q40 4 58 6t14 2q19 0 33 -11q6 -12 11 -23l10 -21q8 -18 15 -31.5 l12 -23.5q13 -31 20.5 -51.5l11.5 -31.5q1 -31 -23 -44q-8 -5 -19 -5q-4 0 -8.5 0.5t-9.5 1.5q-3 0 -19 6q-15 7 -18 7q-16 1 -24 -10q-7 -8 7 -25t66 -17q21 0 53 3q17 1 26.5 1.5t11.5 0.5h32q7 1 11 0q9 -3 23 -3h23q5 0 11 -3.5t12 -3.5h15q17 0 28 0.5t16 1.5 q26 9 26 20q0 5 -3 11q-12 7 -32 7t-33 4q-32 10 -54 48q-11 16 -27 60l-7 18l-6 22q-2 8 -4 13.5t-3 7.5l-14 36t-15 36l-24 48l-17 34l-24.5 63.5t-16.5 43.5l-6 12l-1 6l-3 5q-31 73 -47 115.5t-23 62.5q-21 58 -21 67q0 20 53 56q0 21 -30 21q-20 0 -40 -14l-29 -20 l-36 -23t-37 -23q-16 -11 -41 -66l-34 -70l-29.5 -54.5l-21.5 -39.5l-33 -69.5l-24 -49.5l-42 -77l-29 -52l-25.5 -51.5t-12.5 -27.5q-41 -86 -61 -106q-10 -10 -31 -21t-55 -22zM316 327q-7 7 1 31q25 73 55 115q20 29 38 58t32 58l22 45q10 13 16 15q13 -13 16 -21l11 -23 q7 -7 7 -22q2 -8 4 -14t3 -10l7 -17l8 -17.5l5 -10.5l20 -47l7 -33l15 -33q16 -36 21 -68q-13 -11 -28 -11l-29 -3h-49q-20 0 -28 -2h-48h-53q-43 0 -53 10zM466 906h26q8 0 3 -1q8 2 29 10l55 31l25 12l25 12q39 19 45 33q5 17 -4 27q-9 17 -31 18q-21 1 -45 -27 q-17 -14 -28.5 -24.5l-18.5 -16.5l-33 -34l-30 -24t-18 -16z" />
<glyph unicode="&#xc2;" horiz-adv-x="974" d="M17 23l15 -23h165q5 0 15.5 -1.5t14.5 -1.5q18 0 29 14v6q-8 17 -37 17q-27 9 -35 21q-14 24 5 55l30 51q3 5 9 18.5l16 34.5q15 34 24 42q18 16 49 15q17 -1 29 -1.5t18 0.5h45h33h47q19 0 26 -4h16q40 4 58 6t14 2q19 0 33 -11q6 -12 11 -23l10 -21q8 -18 15 -31.5 l12 -23.5q13 -31 20.5 -51.5l11.5 -31.5q1 -31 -23 -44q-8 -5 -19 -5q-4 0 -8.5 0.5t-9.5 1.5q-3 0 -19 6q-15 7 -18 7q-16 1 -24 -10q-7 -8 7 -25t66 -17q21 0 53 3q17 1 26.5 1.5t11.5 0.5h32q7 1 11 0q9 -3 23 -3h23q5 0 11 -3.5t12 -3.5h15q17 0 28 0.5t16 1.5 q26 9 26 20q0 5 -3 11q-12 7 -32 7t-33 4q-32 10 -54 48q-11 16 -27 60l-7 18l-6 22q-2 8 -4 13.5t-3 7.5l-14 36t-15 36l-24 48l-17 34l-24.5 63.5t-16.5 43.5l-6 12l-1 6l-3 5q-31 73 -47 115.5t-23 62.5q-21 58 -21 67q0 20 53 56q0 21 -30 21q-20 0 -40 -14l-29 -20 l-36 -23t-37 -23q-16 -11 -41 -66l-34 -70l-29.5 -54.5l-21.5 -39.5l-33 -69.5l-24 -49.5l-42 -77l-29 -52l-25.5 -51.5t-12.5 -27.5q-41 -86 -61 -106q-10 -10 -31 -21t-55 -22zM318 327q-7 7 1 31q25 73 55 115q20 29 38 58t32 58l22 45q10 13 16 15q13 -13 16 -21l11 -23 q7 -7 7 -22q2 -8 4 -14t3 -10l7 -17l8 -17.5l5 -10.5l20 -47l7 -33l15 -33q16 -36 21 -68q-13 -11 -28 -11l-29 -3h-49q-20 0 -28 -2h-48h-53q-43 0 -53 10zM351 916l2 -9q11 1 17.5 1.5t10.5 0.5q18 12 29 17.5t14 8.5l8.5 3.5t5.5 2.5q4 3 13.5 7.5t12.5 9.5q3 1 8.5 2.5 t7.5 2.5q12 9 17 10q83 -65 130 -68q1 4 -6 13l-25 36l-7 2l-3 4l-1 8l-4 5q-4 5 -7.5 10t-5.5 9l-7 5l-5 3l-3 7l-4 4l-4 7l-6 10l-6 4q-2 4 -3 7t-3 7q-2 2 -10 2q-21 0 -23 -1q-8 -1 -15.5 -1.5t-15.5 -1.5q-4 -1 -22 -25q-17 -23 -26 -29q-7 -10 -12 -16.5l-9 -11.5 l-31 -35l-5 -2l-1 -5z" />
<glyph unicode="&#xc3;" horiz-adv-x="971" d="M16 23l14 -23h166q5 0 15.5 -1.5t14.5 -1.5q18 0 29 14v6q-8 17 -37 17q-27 9 -36 21q-14 23 6 55l30 51q6 10 25 53q15 33 24 42q18 16 49 15q17 -1 28.5 -1.5t17.5 0.5h46h33h47q21 0 25 -4h17q40 4 58 6t14 2q18 0 32 -11q13 -22 21 -44l16 -31.5l12 -23.5 q26 -55 31 -83q1 -30 -22 -44q-12 -8 -38 -3q-3 0 -19 6q-14 7 -18 7q-16 1 -24 -10q-6 -10 7 -26t67 -16q21 0 53 3l26 1.5t11 0.5h33q6 2 11 0q7 -3 23 -3h22q5 0 11 -3.5t12 -3.5h16q33 0 43 2q26 9 26 21q0 2 -2 10q-12 7 -33 7q-20 0 -33 4q-32 10 -54 48 q-11 15 -27 60l-7 18l-5 22q-4 15 -8 21l-14 36t-15 36l-24 48l-17 34l-41 107l-5 12l-2 6l-3 5l-27.5 65.5l-19.5 49.5l-23 63q-21 58 -21 66q0 21 53 57q0 21 -30 21q-20 0 -40 -14l-28 -20q-19 -11 -37 -23l-36 -23q-17 -12 -42 -66l-19.5 -40.5t-13.5 -29.5l-28.5 -54.5 t-22.5 -39.5l-58 -119l-42 -77l-29 -52l-25.5 -51.5t-12.5 -27.5q-41 -86 -61 -106q-21 -21 -85 -43zM317 327q-7 7 1 31q13 38 27 66.5t28 48.5q20 29 37.5 58t31.5 58l22 45q13 13 17 15q13 -13 16 -21l11 -23q6 -8 6 -22q3 -8 5 -14t3 -10l7 -17q4 -8 7 -15t6 -13l20 -47 l7 -33l14 -33q18 -44 21 -68q-11 -11 -28 -11l-28 -3h-49q-20 0 -28 -2h-49h-52q-44 0 -53 10zM370 902h22q4 13 9 25.5t22 17.5q12 4 47 -10q42 -19 54 -20q40 -7 66 16q3 8 4 9h5l4 5l6 7q0 8 1 9q9 9 13 22v27h-18q-13 -40 -46 -41q-5 0 -17 4t-18 4l-11 4q-7 10 -29 10 q-7 10 -26 10q-5 0 -14 -0.5t-18 -2t-17.5 -3.5t-11.5 -5q-27 -23 -27 -88z" />
<glyph unicode="&#xc4;" horiz-adv-x="971" d="M16 23l14 -23h166q5 0 15.5 -1.5t14.5 -1.5q18 0 29 14v6q-8 17 -37 17q-27 9 -35 21q-14 24 5 55l30 51q3 5 9 18.5l16 34.5q15 33 24 42q18 16 49 15q17 -1 28.5 -1.5t17.5 0.5h46h33h47q21 0 25 -4h17q40 4 58 6t14 2q18 0 32 -11q13 -22 21 -44l16 -31.5l12 -23.5 q26 -55 31 -83q1 -30 -22 -44q-12 -8 -38 -3q-3 0 -19 6q-14 7 -17 7q-17 1 -25 -10q-6 -10 7 -26t67 -16q21 0 53 3l26 1.5t11 0.5h33q7 1 11 0q7 -3 23 -3h22q5 0 11.5 -3.5t12.5 -3.5h15q33 0 43 2q26 9 26 21q0 2 -2 10q-12 7 -33 7q-20 0 -33 4q-50 15 -81 108l-6 18 l-6 22q-4 15 -8 21l-14 36t-15 36l-24 48l-17 34l-41 107l-5 12l-1 6l-4 5q-31 73 -46.5 115.5t-23.5 62.5q-22 56 -22 66q0 21 54 57q0 21 -29 21q-20 0 -40 -14l-29 -20q-19 -11 -37 -23t-37 -23q-16 -13 -41 -66l-19.5 -40.5t-13.5 -29.5l-28.5 -54.5t-22.5 -39.5 l-58 -119l-42 -77l-29 -52q-30 -61 -37 -79q-40 -84 -60 -106q-21 -21 -87 -43zM317 327q-7 7 1 31q13 38 27 66.5t28 48.5q20 29 37.5 58t31.5 58l22 45q13 13 17 15q13 -13 16 -21l11 -23q6 -8 6 -22q3 -8 5 -14t3 -10l7 -17q4 -8 7 -15t6 -13l20 -47l7 -33l14 -33 q18 -44 21 -68q-11 -11 -27 -11l-29 -3h-49q-20 0 -28 -2h-49h-52q-44 0 -53 10zM397 962q-2 -34 20 -47q20 -18 44 -6q28 11 32 33q3 14 -1 26t-12 20t-20 12t-24 1q-38 -8 -39 -39zM568 958q0 -4 0.5 -7.5t1.5 -8.5q7 -29 37 -40q25 -5 45 15q20 21 12 50q-4 18 -25 28 q-10 4 -36 8q-35 -29 -35 -45z" />
<glyph unicode="&#xc5;" horiz-adv-x="977" d="M19 23l14 -23h166q5 0 15.5 -1.5t14.5 -1.5q18 0 29 14v6q-8 17 -37 17q-27 9 -36 21q-14 23 6 55l30 51q6 10 25 53q15 33 24 42q18 16 49 15q17 -1 28.5 -1.5t17.5 0.5h46h33h47q21 0 25 -4h17q40 4 58 6t14 2q18 0 32 -11q13 -22 21 -44l16 -31.5l12 -23.5 q26 -55 31 -83q1 -30 -22 -44q-12 -8 -38 -3q-3 0 -19 6q-14 7 -18 7q-16 1 -24 -10q-6 -10 7 -26t67 -16q21 0 53 3l26 1.5t11 0.5h33q6 2 11 0q7 -3 23 -3h22q5 0 11 -3.5t12 -3.5h16q33 0 43 2q26 9 26 21q0 2 -2 10q-12 7 -33 7q-20 0 -33 4q-32 10 -54 48 q-11 15 -27 60l-7 18l-5 22q-4 15 -8 21l-14 36t-15 36l-24 48l-17 34l-41 107l-5 12l-2 6l-3 5l-27.5 65.5l-19.5 49.5l-23 63q-21 58 -21 66q0 21 53 57q0 21 -30 21q-20 0 -40 -14l-28 -20q-19 -11 -37 -23l-36 -23q-17 -12 -42 -66l-19.5 -40.5t-13.5 -29.5l-28.5 -54.5 t-22.5 -39.5l-58 -119l-42 -77l-29 -52l-25.5 -51.5t-12.5 -27.5q-41 -86 -61 -106q-21 -21 -85 -43zM320 327q-7 7 1 31q13 38 27 66.5t28 48.5q20 29 37.5 58t31.5 58l22 45q13 13 17 15q13 -13 16 -21l11 -23q6 -8 6 -22q3 -8 5 -14t3 -10l7 -17q4 -8 7 -15t6 -13l20 -47 l7 -33l14 -33q18 -44 21 -68q-11 -11 -28 -11l-28 -3h-49q-20 0 -28 -2h-49h-52q-44 0 -53 10zM395 981q11 -50 58 -69q30 -13 51 -13q24 0 55 19q44 27 45 73q0 18 -8 48q-10 34 -27 46q-33 24 -91 24q-10 0 -18 -2q-26 -9 -41 -25.5t-22 -53.5q-5 -32 -2 -47zM436 1038 q10 7 12 17l8 11t5 6q8 8 16 10q1 1 20 -1q12 -1 19 -3t12 -6.5t9 -12.5l10 -21q10 -21 10 -45q0 -28 -16 -47q-15 -28 -45 -23q-29 12 -30 13q-9 7 -11 13.5l-4 13.5q0 4 -7 35q-4 17 -5.5 27t-2.5 13z" />
<glyph unicode="&#xc6;" horiz-adv-x="1320" d="M21 23l14 -23h166q5 0 15 -1.5t15 -1.5q18 0 29 14v6q-5 8 -44 20q-34 10 -34 39q0 15 11 34l30 51q2 3 7.5 15.5l15.5 34.5q17 37 26 45q16 15 41 15q6 0 17 -1t16 -1h11q5 1 10 1h69q75 0 82 -4q8 0 19.5 1t25.5 3q15 2 26 3t18 1q18 0 32 -11q13 -23 21 -44 q9 -19 16 -32.5l12 -22.5q11 -23 18 -41.5t11 -32.5q-9 -37 -32 -46q-7 -2 -37 -6q-24 9 -28 9q-24 0 -24 -16q0 -5 1 -7q-1 -2 -1 -13q10 -14 38 -16h7q5 0 10 1q5 -1 10 -1h11q14 0 43 3q1 -1 28 2h19h33q2 0 3 1h3q4 0 13.5 -2t14.5 -2h7q5 0 11 1h17q6 0 23 -4l-7 7 l249 -3h29t19 1q6 -1 12 -1.5t11 -1.5q12 -1 21 4q7 6 18 45l6 23l6 23l18 45q20 52 20 85q0 19 -6 31q-9 18 -19 18q-9 2 -17 -12l-13 -43l-27 -43l-25.5 -43t-33.5 -40q-37 -34 -89 -44q-45 -9 -69 -8q-9 0 -30 3.5t-34 3.5q-20 -1 -31.5 -0.5t-16.5 1.5q-23 3 -37 21 q-4 6 -5 12q-7 18 -7 64q0 16 1 39.5t3 54.5q4 54 3 64q0 5 1 9v7l-1 4l1 4l-3 8v52l26 24q54 0 67 -4q51 -14 69 -75q2 -7 3.5 -14t3.5 -15q6 -22 15 -23q11 -6 23 6t12 51q0 11 -1 24t-3 28q-3 30 -3 27v27q0 4 -1.5 12.5t-1.5 11.5q3 6 3 25v17q0 27 -10 48t-15 25 q-15 4 -23 1q-6 -8 -6 -24v-21q0 -20 -5 -42q-6 -22 -11 -27q-4 -5 -23 -10.5t-58 -5.5q-40 0 -49 6q-10 8 -11 17q-1 4 -1.5 8t0.5 9q1 8 1 11v4v100q0 9 -0.5 20.5t-0.5 22.5q0 12 -0.5 21t-0.5 13q0 37 17 57q18 20 82 20q11 0 22.5 -0.5t23.5 -1.5h33q60 0 72 -4 q23 -7 58 -48q15 -18 20 -55q1 -12 2 -19.5t2 -9.5q0 -14 14 -25h9q21 9 21 39q2 3 0 74q0 72 -1 73q-17 23 -71 17h-238q-5 0 -13.5 -1t-10.5 -1h-51h-8t-17 1t-20 1h-15h-49q-112 0 -123 -8q-10 -7 -5 -18q4 -13 22 -17q30 1 42 6q4 0 21 -6q17 -4 20 -7q24 -17 28 -67 v-68v-58v-20q0 -11 -1 -27t-1 -28v-20v-99q-45 114 -45 120l-27.5 64l-22.5 56l-30 60l-28 53l-32 60q-26 -26 -48 -39q-17 -10 -27 -16.5t-14 -10.5q-11 -12 -26 -46l-33 -70l-29.5 -55l-21.5 -39l-58 -119l-41 -75l-30 -54l-22 -45.5l-15 -33.5q-19 -41 -32 -65.5 t-20 -32.5q-26 -28 -95 -51zM317 339q0 2 6 19q23 62 37 88l24 35l17 25q11 17 22.5 37.5t23.5 45.5l22 45q6 12 17 15q11 -8 21 -31q12 -23 12 -35q11 -27 15 -41l33 -75q2 -11 4 -19.5t3 -13.5q5 -11 8.5 -19.5l5.5 -13.5q18 -44 21 -68q-10 -10 -27 -11 q-14 -2 -21.5 -2.5l-7.5 -0.5h-49q-5 0 -8 1h-7q-2 0 -7.5 -1.5l-5.5 -1.5h-95q-64 0 -64 22z" />
<glyph unicode="&#xc7;" horiz-adv-x="757" d="M24 372q0 -41 10 -71q0 -4 12 -32q6 -14 9.5 -23.5t4.5 -14.5q13 -58 37 -96q24 -40 85 -78l49 -29t37 -18q49 -18 102 -18q0 -2 -2 -10t-2 -12q-10 -16 -10 -20q-4 -16 -5.5 -26t-2.5 -15q43 0 47 -1q6 -1 15.5 -5t22.5 -11q0 -37 -9 -46q-15 -15 -38 -15q-12 0 -29 4 q-11 2 -19 3t-12 2l-13.5 7.5t-13.5 6.5q-3 0 -16 8h-11l-14 -24v-7q72 -39 153 -39q67 0 91 53q15 34 -1 62q-14 25 -51 32q-14 2 -28 3.5t-28 3.5l10 26v20h11q44 0 65 6q22 6 82 39q75 40 114 105q56 92 56 128q0 32 -5 35q-7 9 -20 1q-12 -6 -31 -55q-24 -62 -44 -91 q-31 -46 -94 -78q-55 -28 -98 -28q-8 0 -20.5 1t-30.5 3q-42 6 -56 12q-40 28 -51 44q-18 13 -27 18q-6 0 -13 7l-13 10q-14 14 -18 31l-8 27.5l-8 27.5q-1 4 -6 13.5l-13 25.5q-7 13 -11 25t-6 23q0 2 -2.5 13.5l-7.5 33.5q-7 28 -7 48q0 43 18 118q7 29 15.5 52.5 t19.5 42.5q19 25 34.5 43.5t26.5 30.5q39 43 120 57q20 4 50.5 5.5t70.5 1.5q26 0 68 -27q41 -25 55 -47q6 -14 6 -59q0 -7 -1 -13.5l-2 -13.5q-1 -6 -6.5 -14t-5.5 -16q0 -14 6 -26q4 -3 24 -3q21 10 34 52l6 26l6 27l13 49q2 7 6 19l10 30q10 27 10 34q0 16 -19 16 q-8 0 -14 -4t-12 -9q-22 -13 -28 -13q-4 0 -67 20q-45 14 -66 14q-5 0 -22 0.5t-46 1.5q-28 1 -44 1.5t-21 0.5q-33 0 -112 -30q-63 -24 -100 -55t-85 -109q-23 -37 -37 -63.5t-19 -42.5q-10 -30 -10 -142z" />
<glyph unicode="&#xc8;" horiz-adv-x="746" d="M25 776q4 -13 22 -17q30 1 42 6q4 0 21 -6q17 -4 20 -7q24 -17 28 -67v-68v-58v-20q0 -11 -1 -27t-1 -28v-20v-113v-24q0 -13 -1 -32q-1 -18 -1 -31v-20q1 -30 2 -48.5t2 -25.5t1.5 -15t0.5 -16q0 -77 -37 -92q-17 -7 -51 -7q-18 -2 -26 -3q-12 -5 -12 -23q10 -14 38 -16 q4 0 10.5 0.5t12.5 0.5t11 0.5l5 0.5h41h6t13 1t12.5 1.5t3.5 0.5q5 0 18 1.5t18 1.5l344 -6h29t19 1q6 -1 12 -1t11 -1q12 -1 21 4q7 6 18 45l6 23l6 23l18 45q20 52 20 85q0 19 -6 31q-9 18 -19 18q-9 2 -17 -12l-13 -43l-27 -43l-25.5 -43t-33.5 -40q-37 -34 -89 -44 q-45 -9 -69 -8q-9 0 -30 3.5t-34 3.5q-20 -1 -31.5 -0.5t-16.5 1.5q-23 3 -37 20q-12 16 -12 77q0 16 1 39.5t3 54.5q4 54 3 64q0 5 1 9v7l-1 4l1 4l-3 8v52l26 24q54 0 67 -4q51 -14 69 -75q2 -7 3.5 -14t3.5 -15q6 -22 15 -23q11 -6 23 6t12 51q0 11 -1 24t-3 28 q-3 30 -3 27v27q0 4 -1.5 12.5t-1.5 11.5q3 6 3 25v17q0 27 -10 48t-15 25q-15 4 -23 1q-6 -8 -6 -24v-21q0 -20 -5 -42q-6 -22 -11 -27q-4 -5 -23 -10.5t-58 -5.5q-40 0 -49 6q-10 8 -11 17q-1 4 -1.5 8t0.5 9q1 8 1 11v4v100q0 9 -0.5 20.5t-0.5 22.5q0 12 -0.5 21 t-0.5 13q0 37 17 57q18 20 82 20q11 0 22.5 -0.5t23.5 -1.5h33q60 0 72 -4q23 -7 58 -48q15 -18 20 -55q1 -12 2 -19.5t2 -9.5q0 -14 14 -25h9q21 9 21 39q2 3 0 74q0 72 -1 73q-17 23 -71 17h-238q-5 0 -13.5 -1t-10.5 -1h-51h-8t-17 1t-20 1h-15h-49q-112 0 -123 -8 q-10 -7 -5 -18zM174 984l10 -5l7 -5.5t3 -2.5l130 -61q22 -11 51 -9l-71 70l-28 19q-14 21 -21 22q-38 31 -53 31q-21 1 -28 -12q-11 -12 0 -47z" />
<glyph unicode="&#xc9;" horiz-adv-x="747" d="M23 776q4 -13 22 -17q30 1 42 6q4 0 21 -6q17 -4 20 -7q24 -17 28 -67v-68v-58v-20q0 -11 -1 -27t-1 -28v-20v-113v-24q0 -13 -1 -32q-1 -18 -1 -31v-20q1 -30 2 -48.5t2 -25.5t1.5 -15t0.5 -16q0 -77 -37 -92q-17 -7 -51 -7q-18 -2 -26 -3q-12 -5 -12 -23q10 -14 38 -16 q4 0 10.5 0.5t12.5 0.5t11 0.5l5 0.5h41h6t13 1t12.5 1.5t3.5 0.5q5 0 18 1.5t18 1.5l344 -6h29t19 1q6 -1 12 -1t11 -1q12 -1 21 4q7 6 18 45l6 23l6 23l18 45q20 52 20 85q0 19 -6 31q-9 18 -19 18q-9 2 -17 -12l-13 -43l-27 -43l-25.5 -43t-33.5 -40q-37 -34 -89 -44 q-45 -9 -69 -8q-9 0 -30 3.5t-34 3.5q-20 -1 -31.5 -0.5t-16.5 1.5q-23 3 -37 20q-12 16 -12 77q0 16 1 39.5t3 54.5q4 54 3 64q0 5 1 9v7l-1 4l1 4l-3 8v52l26 24q54 0 67 -4q51 -14 69 -75q2 -7 3.5 -14t3.5 -15q6 -22 15 -23q11 -6 23 6t12 51q0 11 -1 24t-3 28 q-3 30 -3 27v27q0 4 -1.5 12.5t-1.5 11.5q3 6 3 25v17q0 27 -10 48t-15 25q-15 4 -23 1q-6 -8 -6 -24v-21q0 -20 -5 -42q-6 -22 -11 -27q-4 -5 -23 -10.5t-58 -5.5q-40 0 -49 6q-10 8 -11 17q-1 4 -1.5 8t0.5 9q1 8 1 11v4v100q0 9 -0.5 20.5t-0.5 22.5q0 12 -0.5 21 t-0.5 13q0 37 17 57q18 20 82 20q11 0 22.5 -0.5t23.5 -1.5h33q60 0 72 -4q23 -7 58 -48q15 -18 20 -55q1 -12 2 -19.5t2 -9.5q0 -14 14 -25h9q21 9 21 39q2 3 0 74q0 72 -1 73q-17 23 -71 17h-238q-5 0 -13.5 -1t-10.5 -1h-51h-8t-17 1t-20 1h-15h-49q-112 0 -123 -8 q-10 -7 -5 -18zM269 906h26q8 0 3 -1q8 2 28 10l56 31l25 12l24 12q39 19 45 33q4 16 -3 27q-10 16 -31 18q-21 1 -46 -27q-17 -14 -28 -24.5t-18 -16.5l-34 -34l-29 -24t-18 -16z" />
<glyph unicode="&#xca;" horiz-adv-x="747" d="M24 776q4 -13 22 -17q30 1 42 6q4 0 21 -6q17 -4 20 -7q24 -17 28 -67v-68v-58v-20q0 -11 -1 -27t-1 -28v-20v-113v-24q0 -13 -1 -32q-1 -18 -1 -31v-20q1 -30 2 -48.5t2 -25.5t1.5 -15t0.5 -16q0 -77 -37 -92q-17 -7 -51 -7q-18 -2 -26 -3q-12 -5 -12 -23q10 -14 38 -16 q4 0 10.5 0.5t12.5 0.5t11 0.5l5 0.5h41h6t13 1t12.5 1.5t3.5 0.5q5 0 18 1.5t18 1.5l344 -6h29t19 1q6 -1 12 -1t11 -1q12 -1 21 4q7 6 18 45l6 23l6 23l18 45q20 52 20 85q0 19 -6 31q-9 18 -19 18q-9 2 -17 -12l-13 -43l-27 -43l-25.5 -43t-33.5 -40q-37 -34 -89 -44 q-45 -9 -69 -8q-9 0 -30 3.5t-34 3.5q-20 -1 -31.5 -0.5t-16.5 1.5q-23 3 -37 20q-12 16 -12 77q0 16 1 39.5t3 54.5q4 54 3 64q0 5 1 9v7l-1 4l1 4l-3 8v52l26 24q54 0 67 -4q51 -14 69 -75q2 -7 3.5 -14t3.5 -15q6 -22 15 -23q11 -6 23 6t12 51q0 11 -1 24t-3 28 q-3 30 -3 27v27q0 4 -1.5 12.5t-1.5 11.5q3 6 3 25v17q0 27 -10 48t-15 25q-15 4 -23 1q-6 -8 -6 -24v-21q0 -20 -5 -42q-6 -22 -11 -27q-4 -5 -23 -10.5t-58 -5.5q-40 0 -49 6q-10 8 -11 17q-1 4 -1.5 8t0.5 9q1 8 1 11v4v100q0 9 -0.5 20.5t-0.5 22.5q0 12 -0.5 21 t-0.5 13q0 37 17 57q18 20 82 20q11 0 22.5 -0.5t23.5 -1.5h33q60 0 72 -4q23 -7 58 -48q15 -18 20 -55q1 -12 2 -19.5t2 -9.5q0 -14 14 -25h9q21 9 21 39q2 3 0 74q0 72 -1 73q-17 23 -71 17h-238q-5 0 -13.5 -1t-10.5 -1h-51h-8t-17 1t-20 1h-15h-49q-112 0 -123 -8 q-10 -7 -5 -18zM193 916l1 -9q11 1 18 1.5t11 0.5q18 12 29 17.5t13 8.5l13 5q4 4 16 9q8 3 11 9q3 1 8.5 2.5t8.5 2.5q11 9 16 10q86 -65 130 -68q1 4 -5 13l-26 36l-7 2l-3 4l-1 8l-3 5q-9 10 -14 19l-6 5l-6 3l-2 7l-4 4l-5 7l-2 5l-3 5l-6 4q-3 7 -7 14q-2 2 -10 2 q-21 0 -23 -1q-8 -1 -15.5 -1.5t-15.5 -1.5q-4 -1 -22 -25q-17 -24 -26 -29q-7 -10 -12 -16.5l-9 -11.5l-31 -35l-4 -2l-1 -5z" />
<glyph unicode="&#xcb;" horiz-adv-x="747" d="M24 776q4 -13 22 -17q30 1 42 6q4 0 21 -6q17 -4 20 -7q24 -17 28 -67v-68v-58v-20q0 -11 -1 -27t-1 -28v-20v-113v-24q0 -13 -1 -32q-1 -18 -1 -31v-20q1 -30 2 -48.5t2 -25.5t1.5 -15t0.5 -16q0 -77 -37 -92q-17 -7 -51 -7q-18 -2 -26 -3q-12 -5 -12 -23q10 -14 38 -16 q4 0 10.5 0.5t12.5 0.5t11 0.5l5 0.5h41h6t13 1t12.5 1.5t3.5 0.5q5 0 18 1.5t18 1.5l344 -6h29t19 1q6 -1 12 -1t11 -1q12 -1 21 4q7 6 18 45l6 23l6 23l18 45q20 52 20 85q0 19 -6 31q-9 18 -19 18q-9 2 -17 -12l-13 -43l-27 -43l-25.5 -43t-33.5 -40q-37 -34 -89 -44 q-45 -9 -69 -8q-9 0 -30 3.5t-34 3.5q-20 -1 -31.5 -0.5t-16.5 1.5q-23 3 -37 20q-12 16 -12 77q0 16 1 39.5t3 54.5q4 54 3 64q0 5 1 9v7l-1 4l1 4l-3 8v52l26 24q54 0 67 -4q51 -14 69 -75q2 -7 3.5 -14t3.5 -15q6 -22 15 -23q11 -6 23 6t12 51q0 11 -1 24t-3 28 q-3 30 -3 27v27q0 4 -1.5 12.5t-1.5 11.5q3 6 3 25v17q0 27 -10 48t-15 25q-15 4 -23 1q-6 -8 -6 -24v-21q0 -20 -5 -42q-6 -22 -11 -27q-4 -5 -23 -10.5t-58 -5.5q-40 0 -49 6q-10 8 -11 17q-1 4 -1.5 8t0.5 9q1 8 1 11v4v100q0 9 -0.5 20.5t-0.5 22.5q0 12 -0.5 21 t-0.5 13q0 37 17 57q18 20 82 20q11 0 22.5 -0.5t23.5 -1.5h33q60 0 72 -4q23 -7 58 -48q15 -18 20 -55q1 -12 2 -19.5t2 -9.5q0 -14 14 -25h9q21 9 21 39q2 3 0 74q0 72 -1 73q-17 23 -71 17h-238q-5 0 -13.5 -1t-10.5 -1h-51h-8t-17 1t-20 1h-15h-49q-112 0 -123 -8 q-10 -7 -5 -18zM206 962q-1 -32 19 -48t46 -5q27 12 32 33q5 28 -14 46t-44 13q-38 -8 -39 -39zM377 957q0 -3 0.5 -6.5t1.5 -8.5q7 -29 37 -40q28 -4 44 14q22 19 14 51q-5 20 -25 28q-10 4 -36 8q-36 -30 -36 -46z" />
<glyph unicode="&#xcc;" horiz-adv-x="445" d="M26 984l10 -5l7 -5.5t3 -2.5l130 -61q22 -11 51 -9l-71 70l-27 19q-14 21 -21 22q-38 29 -54 31q-18 1 -28 -12q-9 -12 0 -47zM32 21q-9 -28 43 -28q11 0 25.5 1t33.5 3q39 3 45 3h38q7 1 13 1h14q10 0 22.5 -1t25 -2.5t23.5 -2.5t17 -1q37 0 85 19q3 6 3 11q0 17 -26 17 q-10 1 -28 -2q-20 -3 -27 -3q-20 0 -37 14q-22 19 -22 71q0 7 0.5 17t1.5 19.5t1.5 17t0.5 10.5v16l-2 25q0 4 1 12.5t1 13.5v75l0.5 7.5l1.5 22.5v25q0 6 -1.5 17t-1.5 15v122q3 7 3 41v56v6t-1 15q-2 15 0 27q1 24 5.5 39t13 23.5t21.5 12.5t31 6q9 3 26 3q12 0 25 -5 q17 1 22 12q5 10 -4 20q-5 8 -108 8h-51q-1 0 -11.5 1l-31.5 3h-71q-97 0 -104 -6q-11 -9 -8 -22q2 -12 21 -16q8 -2 47 0q29 2 45 -14q13 -13 14 -67q1 -10 0.5 -21.5t-1.5 -25.5q-1 -8 -1 -15t-1 -15q-1 -26 -1 -47v-36v-45q0 -25 1 -58q0 -7 2.5 -21.5t2.5 -20.5v-32 l-3 -5l1 -4v-7q-1 -23 -1.5 -40.5t-0.5 -30.5q0 -14 0.5 -33t1.5 -42q1 -5 1.5 -11t1.5 -11q1 -11 1.5 -20t-0.5 -17q-5 -55 -34 -77q-17 -12 -31 -12q-6 0 -19 2.5t-21 2.5q-7 0 -11 -1q-22 -8 -23 -15z" />
<glyph unicode="&#xcd;" horiz-adv-x="447" d="M19 21q-9 -28 43 -28q11 0 25.5 1t33.5 3q39 3 45 3h38q7 1 13 1h14q10 0 22.5 -1t25 -2.5t23.5 -2.5t17 -1q37 0 85 19q3 6 3 11q0 17 -26 17q-10 1 -28 -2q-20 -3 -27 -3q-20 0 -37 14q-22 19 -22 71q0 7 0.5 17t1.5 19.5t1.5 17t0.5 10.5v16l-2 25q0 4 1 12.5t1 13.5 v75l0.5 7.5l1.5 22.5v25q0 6 -1.5 17t-1.5 15v122q3 7 3 41v56v6t-1 15q-2 15 0 27q1 24 5.5 39t13 23.5t21.5 12.5t31 6q9 3 26 3q12 0 25 -5q17 1 22 12q5 10 -4 20q-5 8 -108 8h-51q-1 0 -11.5 1l-31.5 3h-71q-97 0 -104 -6q-11 -9 -8 -22q2 -12 21 -16q8 -2 47 0 q29 2 45 -14q13 -13 14 -67q1 -10 0.5 -21.5t-1.5 -25.5q-1 -8 -1 -15t-1 -15q-1 -26 -1 -47v-36v-45q0 -25 1 -58q0 -7 2.5 -21.5t2.5 -20.5v-32l-3 -5l1 -4v-7q-1 -23 -1.5 -40.5t-0.5 -30.5q0 -14 0.5 -33t1.5 -42q1 -5 1.5 -11t1.5 -11q1 -11 1.5 -20t-0.5 -17 q-5 -55 -34 -77q-17 -12 -31 -12q-6 0 -19 2.5t-21 2.5q-7 0 -11 -1q-22 -8 -23 -15zM217 902h29q5 0 28 9l56 31l25 12l25 12q38 22 44 34q4 16 -3 27q-11 16 -31 17q-21 2 -46 -26q-17 -14 -28 -24.5t-18 -16.5l-34 -35q-11 -8 -23 -18t-24 -22z" />
<glyph unicode="&#xce;" horiz-adv-x="440" d="M23 21q-9 -28 43 -28q11 0 25.5 1t33.5 3q39 3 45 3h38q7 1 13 1h14q10 0 22.5 -1t25 -2.5t23.5 -2.5t17 -1q37 0 85 19q3 6 3 11q0 17 -26 17q-10 1 -28 -2q-20 -3 -27 -3q-20 0 -37 14q-22 19 -22 71q0 7 0.5 17t1.5 19.5t1.5 17t0.5 10.5v16l-2 25q0 4 1 12.5t1 13.5 v75l0.5 7.5l1.5 22.5v25q0 6 -1.5 17t-1.5 15v122q3 7 3 41v56v6t-1 15q-2 15 0 27q1 24 5.5 39t13 23.5t21.5 12.5t31 6q9 3 26 3q12 0 25 -5q17 1 22 12q5 10 -4 20q-5 8 -108 8h-51q-1 0 -11.5 1l-31.5 3h-71q-97 0 -104 -6q-11 -9 -8 -22q2 -12 21 -16q8 -2 47 0 q29 2 45 -14q13 -13 14 -67q1 -10 0.5 -21.5t-1.5 -25.5q-1 -8 -1 -15t-1 -15q-1 -26 -1 -47v-36v-45q0 -25 1 -58q0 -7 2.5 -21.5t2.5 -20.5v-32l-3 -5l1 -4v-7q-1 -23 -1.5 -40.5t-0.5 -30.5q0 -14 0.5 -33t1.5 -42q1 -5 1.5 -11t1.5 -11q1 -11 1.5 -20t-0.5 -17 q-5 -55 -34 -77q-17 -12 -31 -12q-6 0 -19 2.5t-21 2.5q-7 0 -11 -1q-22 -8 -23 -15zM81 912l1 -9q21 3 29 3q7 7 27 16q12 7 15 9q11 5 21 10.5t19 12.5q5 2 9.5 3.5t6.5 2.5q12 9 17 10q14 -11 30 -22t35 -22q43 -24 65 -25q2 5 -6 14l-25 36l-7 1l-3 5l-1 7l-4 6 q-4 5 -7.5 10t-5.5 9l-12 8l-2 6l-5 5l-4 6l-2 6l-9 9l-3.5 7t-3.5 6q-2 2 -10 2q-21 0 -23 -1q-8 -1 -16 -1q-7 0 -15 -1q-3 -1 -20 -24t-28 -30q-7 -10 -12 -16.5l-9 -11.5l-31 -36l-5 -2l-1 -4z" />
<glyph unicode="&#xcf;" horiz-adv-x="439" d="M23 21q-9 -28 43 -28q11 0 25.5 1t33.5 3q39 3 45 3h38q7 1 13 1h14q10 0 22.5 -1t25 -2.5t23.5 -2.5t17 -1q37 0 85 19q3 6 3 11q0 17 -26 17q-10 1 -28 -2q-20 -3 -27 -3q-20 0 -37 14q-22 19 -22 71q0 7 0.5 17t1.5 19.5t1.5 17t0.5 10.5v16l-2 25q0 4 1 12.5t1 13.5 v75l0.5 7.5l1.5 22.5v25q0 6 -1.5 17t-1.5 15v122q3 7 3 41v56v6t-1 15q-2 15 0 27q1 24 5.5 39t13 23.5t21.5 12.5t31 6q9 3 26 3q12 0 25 -5q17 1 22 12q5 10 -4 20q-5 8 -108 8h-51q-1 0 -11.5 1l-31.5 3h-71q-97 0 -104 -6q-11 -9 -8 -22q2 -12 21 -16q8 -2 47 0 q29 2 45 -14q13 -13 14 -67q1 -10 0.5 -21.5t-1.5 -25.5q-1 -8 -1 -15t-1 -15q-1 -26 -1 -47v-36v-45q0 -25 1 -58q0 -7 2.5 -21.5t2.5 -20.5v-32l-3 -5l1 -4v-7q-1 -23 -1.5 -40.5t-0.5 -30.5q0 -14 0.5 -33t1.5 -42q1 -5 1.5 -11t1.5 -11q1 -11 1.5 -20t-0.5 -17 q-5 -55 -34 -77q-17 -12 -31 -12q-6 0 -19 2.5t-21 2.5q-7 0 -11 -1q-22 -8 -23 -15zM91 962q-2 -34 20 -47q20 -18 44 -6q28 11 32 33q3 14 -1 26t-12 20t-20 12t-24 1q-38 -8 -39 -39zM262 958q0 -4 0.5 -7.5t1.5 -8.5q7 -29 37 -40q25 -5 45 15q20 21 12 50q-4 18 -25 28 q-10 4 -36 8q-35 -29 -35 -45z" />
<glyph unicode="&#xd1;" horiz-adv-x="956" d="M25 27q-3 -9 3 -20q13 -15 69 -10l15 3h12q11 2 25 0l26 -2q8 -1 15 -1h12q7 0 25 -3q10 -1 26 1t25 5q14 5 22 17l-11 22q-42 0 -54 5q-31 18 -33 86q-1 21 -1 37v28q0 7 0.5 17t1.5 24t1.5 25t0.5 19q0 6 -1 15.5l-2 19t-2 17.5t-1 11q-2 32 3 61l6 38v24l-3.5 43 t-1.5 29v26q0 2 1 10.5t3 23.5q0 25 10 31l17 -14q16 -19 26 -32t15 -21q12 -12 14 -13l6 -6l4 -7l14.5 -14t10.5 -10l14 -16q3 -3 9 -8.5l13 -11.5t14 -11l11 -8q28 -32 36 -45l13.5 -12t9.5 -9q16 -22 16 -23q5 -8 9 -13.5t6 -9.5q3 -12 14 -23q34 -33 51 -51 q10 -12 16.5 -21.5l11.5 -16.5l32.5 -32.5t23.5 -22.5l35.5 -37.5t19.5 -21.5q11 -11 22 -27.5l24 -36.5l9 -15q32 -51 79 -50q23 1 34 1t9 0q41 9 42 13q0 17 -4 21.5t-22 11.5q-16 10 -20 16q-2 5 -5 10.5t-5 10.5q-17 36 -17 86v51q0 26 -3 35v36q5 33 6 64q1 19 1 33v23 l5 55t4 37q0 5 -1 7.5t-1 6.5q4 6 0 15v59q5 15 5 32v57q0 57 18 74l21 8.5t16 4.5q22 0 36 18l-1 14q-8 9 -28 9l-7 1h-7h-7q-3 -1 -6 -1h-14q-5 -1 -8 -1h-4l-28 -3l-81 5q-12 1 -21.5 0.5t-17.5 -1.5q-24 0 -33 -17q0 -16 15 -16q4 -1 9 -1.5t13 -0.5q29 -5 44 -15 q29 -23 29 -57q0 -9 -2 -27t-2 -28q-1 -23 -1.5 -40t-0.5 -29q0 -7 2.5 -25.5t1.5 -30.5q-4 -48 -6 -74q-2 -65 -3 -83q1 -17 2 -30t2 -23q-4 -9 -4 -26q0 -23 -1 -25v-26l-7 -10q-14 0 -39 31l-27 34l-5 6l-7 5l-8 11q-6 9 -10.5 15t-6.5 9l-26.5 28.5t-17.5 16.5l-16 15 l-15.5 24t-10.5 17l-45 49l-26 26l-11 14l-5 7l-55 50q-38 35 -52 53l-20 28.5l-20 28.5l-17 17q-3 3 -48 64q-24 30 -59 35q4 -1 -2 -1h-23q-3 0 -11 -1t-12 -1q2 0 -9.5 1t-37.5 3q-13 2 -24 3.5t-22 1.5h-25q-16 -10 -20 -17q0 -9 11 -22q5 0 13.5 -2l8.5 -2 q43 -14 44 -14q53 -32 53 -114v-16q-4 -12 -4 -41v-125v-7t1 -12v-17l-7 -97q1 -4 1 -23v-41q0 -157 -36 -194q-16 -17 -35 -22q-10 -6 -34 2q-16 -1 -18 -14zM357 899h22q7 24 11 30q9 13 28 13q13 0 45 -15q17 -7 28.5 -11t19.5 -5q40 -7 66 17q3 8 4 9h5l4 4l6 8q0 8 1 9 q6 4 13 22v27h-18q-13 -40 -46 -41q-5 0 -17 3.5t-18 3.5l-11 5q-10 10 -29 10q-7 10 -26 10q-7 1 -30 -2q-23 -4 -31 -9q-27 -26 -27 -88z" />
<glyph unicode="&#xd2;" horiz-adv-x="905" d="M24 398q0 -27 21 -97l13.5 -47l9.5 -34q30 -53 36 -60q49 -60 91 -88q22 -15 76 -36l40 -14t40 -15q54 -20 174 -18q69 2 174 62q47 40 65 63q62 65 76 90q17 33 28 67q14 47 14 100v35q0 22 -30 150l-9 38q-7 32 -29.5 56.5l-46.5 48.5q-31 34 -49 47q-17 14 -56 34 q-33 17 -70 22l-67 8q-72 8 -119 2h-29q-66 0 -139 -35q-54 -25 -77 -47q-37 -45 -57 -74q-13 -19 -23 -35.5t-17 -30.5q-9 -21 -15 -44q-2 -7 -4 -19.5t-5 -29.5q-2 -12 -5 -24t-5 -25q-6 -29 -6 -50zM154 410q-1 49 0 74q-2 58 12 96q10 27 34 66q38 61 79 89q15 10 60 24 q20 6 35 10t26 6q7 1 13 1.5t12 0.5q8 0 16.5 -1t18.5 -3q16 -4 25.5 -5.5t14.5 -2.5q13 -2 25 -3.5t25 -3.5q8 -2 21 -10t30 -21q11 -8 60 -65q47 -55 55 -70q19 -77 33 -141v-35q-1 -9 -0.5 -18t2.5 -17q4 -26 6 -36q3 -38 -5 -71q-19 -75 -64 -143q-31 -45 -100 -76 q-39 -17 -57 -17q-5 0 -20.5 1.5t-28.5 1.5q-80 3 -125 27q-14 8 -29.5 18l-32.5 21q-23 16 -29 25q-5 19 -16 31l-16 20q-13 16 -15 20q-15 31 -18 40q-10 24 -13 40q-10 36 -12 40q-8 22 -14 43.5t-8 43.5zM284 984l5 -3l5 -2q4 -4 6.5 -5.5t3.5 -2.5l129 -61 q22 -11 51 -9l-71 70l-27 19q-14 21 -21 22q-38 29 -54 31q-20 1 -27 -12q-11 -12 0 -47z" />
<glyph unicode="&#xd3;" horiz-adv-x="905" d="M22 398q0 -27 21 -97l13.5 -47l9.5 -34q30 -53 36 -60q49 -60 91 -88q22 -15 76 -36l40 -14t40 -15q54 -20 174 -18q69 2 174 62q47 40 65 63q62 65 76 90q17 33 28 67q14 47 14 100v35q0 22 -30 150l-9 38q-7 32 -29.5 56.5l-46.5 48.5q-31 34 -49 47q-17 14 -56 34 q-33 17 -70 22l-67 8q-72 8 -119 2h-29q-66 0 -139 -35q-54 -25 -77 -47q-37 -45 -57 -74q-13 -19 -23 -35.5t-17 -30.5q-9 -21 -15 -44q-2 -7 -4 -19.5t-5 -29.5q-2 -12 -5 -24t-5 -25q-6 -29 -6 -50zM152 410q-1 49 0 74q-2 58 12 96q10 27 34 66q38 61 79 89q15 10 60 24 q20 6 35 10t26 6q7 1 13 1.5t12 0.5q8 0 16.5 -1t18.5 -3q16 -4 25.5 -5.5t14.5 -2.5q13 -2 25 -3.5t25 -3.5q8 -2 21 -10t30 -21q11 -8 60 -65q47 -55 55 -70q19 -77 33 -141v-35q-1 -9 -0.5 -18t2.5 -17q4 -26 6 -36q3 -38 -5 -71q-19 -75 -64 -143q-31 -45 -100 -76 q-39 -17 -57 -17q-5 0 -20.5 1.5t-28.5 1.5q-80 3 -125 27q-14 8 -29.5 18l-32.5 21q-23 16 -29 25q-5 19 -16 31l-16 20q-13 16 -15 20q-15 31 -18 40q-10 24 -13 40q-10 36 -12 40q-8 22 -14 43.5t-8 43.5zM428 902h29q6 0 29 9l55 31l50 25q39 19 45 33q5 17 -4 27 q-8 15 -31 17t-45 -26q-17 -14 -28.5 -24.5l-18.5 -16.5l-33 -35l-30 -24t-18 -16z" />
<glyph unicode="&#xd4;" horiz-adv-x="905" d="M23 398q0 -27 21 -97l13.5 -47l9.5 -34q15 -35 36 -60q26 -31 48.5 -53t42.5 -35q21 -14 76 -36q2 -1 22 -8l58 -21q11 -4 33 -7.5t54 -5.5l48.5 -3.5t38.5 -1.5q69 2 174 62q47 40 65 63q61 63 75 90q20 38 29 67q14 47 14 100v35q0 22 -30 150l-9 38q-7 32 -29.5 56.5 l-46.5 48.5q-31 34 -49 47q-17 14 -56 34q-33 17 -70 22l-67 8q-72 8 -119 2h-29q-66 0 -139 -35q-54 -25 -77 -47q-37 -45 -57 -74q-14 -20 -24 -36.5t-16 -29.5q-9 -21 -15 -44q-2 -7 -4 -19.5t-5 -29.5q-2 -12 -5 -24t-5 -25q-6 -29 -6 -50zM153 410q-1 49 0 74 q-1 34 3 61q8 45 43 102q19 29 38.5 51.5t40.5 36.5q15 10 60 24q20 6 35 10t26 6q7 1 13 1.5t12 0.5q8 0 16.5 -1t18.5 -3q16 -4 25.5 -5.5t14.5 -2.5q13 -2 25 -3.5t25 -3.5q8 -2 21 -10t30 -21q11 -8 60 -65q47 -55 55 -70q2 -4 6 -21l11 -49q13 -57 15 -71v-35 q-1 -9 -0.5 -18t2.5 -17q3 -12 4.5 -21l2.5 -15q3 -38 -5 -71q-10 -38 -26 -73.5t-39 -69.5q-30 -44 -99 -76q-39 -17 -57 -17q-6 0 -21 1.5t-28 1.5q-80 3 -125 27q-14 8 -29.5 18l-32.5 21q-23 16 -29 25q-3 17 -16 31l-17 20l-8.5 11.5t-5.5 8.5q-17 30 -18 40 q-10 21 -13 40q-10 36 -12 40q-8 22 -14 43.5t-8 43.5zM332 919l1 -9q11 1 18 1.5t11 0.5q18 12 29 17.5t14 8.5q12 5 21 10t18 13q15 4 17 6l17 10q81 -66 130 -69q1 6 -6 13l-25 37l-7 1l-3 4l-2 8l-3 6q-2 2 -5.5 6.5t-7.5 12.5l-7 4l-5 3l-3 7l-4 4l-5 7l-2 6l-3 4l-6 5 q-2 5 -6 13q-2 2 -10 2q-21 0 -24 -1q-8 -1 -15 -1t-15 -1q-2 -1 -23 -25l-15 -18.5t-10 -11.5l-21 -27l-32 -36l-4 -2l-1 -5z" />
<glyph unicode="&#xd5;" horiz-adv-x="906" d="M24 398q0 -27 21 -97l13.5 -47l9.5 -34q30 -53 36 -60q49 -60 91 -88q22 -15 76 -36l40 -14t40 -15q54 -20 174 -18q69 2 174 62q47 40 65 63q62 65 76 90q17 33 28 67q14 47 14 100v35q0 22 -30 150l-9 38q-7 32 -29.5 56.5l-46.5 48.5q-31 34 -49 47q-17 14 -56 34 q-33 17 -70 22l-67 8q-72 8 -119 2h-29q-66 0 -139 -35q-54 -25 -77 -47q-37 -45 -57 -74q-13 -19 -23 -35.5t-17 -30.5q-9 -21 -15 -44q-2 -7 -4 -19.5t-5 -29.5q-2 -12 -5 -24t-5 -25q-6 -29 -6 -50zM154 410q-1 49 0 74q-2 58 12 96q10 27 34 66q38 61 79 89q15 10 60 24 q20 6 35 10t26 6q7 1 13 1.5t12 0.5q8 0 16.5 -1t18.5 -3q16 -4 25.5 -5.5t14.5 -2.5q13 -2 25 -3.5t25 -3.5q8 -2 21 -10t30 -21q11 -8 60 -65q47 -55 55 -70q19 -77 33 -141v-35q-1 -9 -0.5 -18t2.5 -17q4 -26 6 -36q3 -38 -5 -71q-19 -75 -64 -143q-31 -45 -100 -76 q-39 -17 -57 -17q-5 0 -20.5 1.5t-28.5 1.5q-80 3 -125 27q-14 8 -29.5 18l-32.5 21q-23 16 -29 25q-5 19 -16 31l-16 20q-13 16 -15 20q-15 31 -18 40q-10 24 -13 40q-10 36 -12 40q-8 22 -14 43.5t-8 43.5zM297 899h22q4 13 9 25.5t22 16.5q3 1 9 1q14 0 44 -13 q34 -17 48 -18q40 -7 66 17q3 8 4 9h4l5 4l5 8q0 5 2 9q6 4 13 22v27h-18q-15 -40 -46 -41q-5 0 -17 3.5t-18 3.5l-11 5q-11 10 -29 10q-7 10 -26 10q-9 2 -32 -3q-21 -3 -30 -8q-26 -26 -26 -88z" />
<glyph unicode="&#xd6;" horiz-adv-x="906" d="M24 398q0 -27 21 -97l13.5 -47l9.5 -34q30 -53 36 -60q49 -60 91 -88q22 -15 76 -36l40 -14t40 -15q54 -19 175 -18q68 2 173 62q47 40 65 63q62 65 76 90q18 35 29 67q13 38 13 100v35q0 22 -30 150l-9 38q-7 32 -29.5 56.5l-45.5 48.5q-31 34 -49 47q-8 6 -22.5 14.5 l-34.5 19.5q-32 17 -70 22l-66 8q-73 8 -120 2h-29q-66 0 -139 -35q-53 -26 -76 -47q-20 -23 -34.5 -41.5t-23.5 -32.5q-15 -22 -25 -38.5t-15 -27.5q-10 -19 -14 -44q-3 -13 -9 -49l-11 -49q-6 -30 -6 -50zM154 410q-1 49 0 74q-2 58 12 96q7 22 35 66q39 63 78 89 q15 10 60 24q20 6 35 10t26 6q7 1 13 1.5t12 0.5q8 0 16.5 -1t18.5 -3q16 -4 25.5 -5.5t14.5 -2.5q13 -2 25 -3.5t25 -3.5q13 -4 51 -31q11 -8 61 -65q47 -55 55 -70q4 -8 17 -70q14 -59 15 -71v-35q-1 -9 -0.5 -18t2.5 -17q3 -12 4.5 -21l2.5 -15q3 -36 -6 -71 q-19 -75 -64 -143q-31 -45 -100 -76q-39 -17 -57 -17q-5 0 -20.5 1.5t-28.5 1.5q-80 3 -125 27q-14 8 -29.5 18l-32.5 21q-23 16 -29 25q-5 19 -16 31l-16 20l-9.5 13t-5.5 7q-7 15 -11 25l-6 15q-13 32 -14 40q-7 27 -12 40q-17 43 -22 87zM297 962q-2 -34 20 -47 q20 -18 44 -6q25 10 33 33q3 15 -1.5 27t-12.5 20t-20 11.5t-24 0.5q-38 -8 -39 -39zM467 958q0 -7 3 -16q7 -29 37 -40q28 -5 44 14q22 19 14 51q-5 20 -25 28q-10 4 -36 8q-37 -30 -37 -45z" />
<glyph unicode="&#xd7;" horiz-adv-x="540" d="M31 153l55 -55q4 4 9 14q4 5 12 10q2 2 12 10.5t27 24.5l28.5 25t13.5 13l22 22q8 8 14.5 15.5t10.5 14.5q0 1 14 16q6 7 9 10l4 4q8 2 11 6l4 -5q7 -6 14.5 -10t12.5 -9l19 -27l45 -37l42 -52l44 -44l57 56q-4 5 -12.5 8.5t-12.5 12.5q-4 3 -35 38q-32 34 -39 42l-21 22 q-17 17 -32 24l-32 33l59 59q6 6 15.5 12t15.5 12q5 8 10.5 14.5t10.5 13.5l66 66q-5 8 -8.5 12.5t-5.5 6.5l-16.5 16.5t-14.5 13.5q-3 -3 -10.5 -8.5l-16.5 -12l-18.5 -14t-16.5 -14.5l-50 -59l-11 -11q-10 -6 -17.5 -12.5t-14.5 -13.5q-17 -5 -32 -20l-59 58 q-5 6 -10.5 15.5t-11.5 15.5l-30 21l-65 66q-8 -5 -12.5 -8.5t-6.5 -5.5q-4 -6 -16 -18l-9 -10.5t-4 -4.5q2 -2 7 -9l11.5 -16.5t14 -19t15.5 -15.5l58 -51l11 -10q13 -20 27 -33q11 -22 24 -35l-6 -6q-6 -7 -10.5 -14.5t-9.5 -12.5l-26 -18l-36 -45l-54 -43z" />
<glyph unicode="&#xd9;" horiz-adv-x="861" d="M21 778q5 -13 21 -17q17 -5 22 -3q43 -8 44 -8q28 -15 23 -92v-30q4 -40 6 -67.5t2 -41.5v-20q0 -24 -4 -47q-3 -18 1 -45l9 -62q6 -43 9 -68l6 -49q3 -33 9 -52q22 -68 48 -102q18 -23 52 -44q31 -20 97 -32q78 -17 140 -3q35 6 57 16q34 15 75 60q23 26 40 53.5 t27 56.5q10 39 16 68.5t9 49.5l9 48l10 245q4 15 4 21q0 5 1 12.5t1 9.5v16v50q1 19 13 32q7 8 41 19l23 8q9 4 9 16l-22 22l-8 -4h-42q-17 0 -29 -4q-25 0 -27 -1h-15q-21 0 -73 3q-29 2 -34 -3q-13 -10 -10 -20q0 -9 17 -17q19 0 30 4q16 0 30 -10q30 -21 30 -109v-83v-14 q0 -6 1 -13q1 -10 0 -23l-6 -83q-2 -35 -3.5 -50t-1.5 -10v-32q0 -22 -16 -85q-20 -78 -36 -106q-17 -29 -54 -54q-17 -7 -30 -11t-24 -6q-56 -15 -71 -15q-38 0 -77 18q-67 31 -82 84q-9 46 -12 72l-9 27l-12 72v36q-6 40 -6 55q3 42 3 53v90q-2 6 -2 23l-1.5 5t-3.5 15v43 q-2 19 1 51q2 21 5.5 32.5t8.5 17t11 7t13 1.5q8 0 22.5 -3t21.5 -3q24 1 30 12q7 11 -1 22q-6 7 -54 12l-27 2l-26 2h-24l-45 -3h-20q-2 0 -9 0.5l-20 1.5q-26 3 -27 3h-61q-17 0 -23 -11v-11zM252 981l5 -3l5 -2q4 -4 6.5 -5.5t3.5 -2.5l129 -61q22 -11 51 -9l-71 70 l-27 19q-13 19 -21 22q-38 29 -54 31q-20 1 -27 -12q-11 -12 0 -47z" />
<glyph unicode="&#xda;" horiz-adv-x="862" d="M19 778q3 -10 20 -18q19 -3 23 -2l45 -8q27 -15 22 -92v-30q9 -90 9 -109v-20q-2 -11 -3 -23t-3 -24q-2 -14 3 -45l8 -62q2 -11 4 -28t6 -40q0 -1 1.5 -13.5t3.5 -35.5q2 -16 4.5 -29t5.5 -23q19 -66 48 -102q18 -23 52 -44q33 -20 96 -32q78 -17 140 -3q17 3 32 7t26 9 q34 14 74 60q48 54 68 110q18 79 24 118l9 48l4 60l6 185q5 18 5 21q0 5 1 12.5t1 9.5v16v50q2 20 12 32q10 9 41 19q11 4 17 6l6 2q9 4 9 16l-22 22l-8 -4h-42q-17 0 -29 -4q-25 0 -26 -1h-16q-21 0 -73 3q-29 1 -33 -3q-13 -10 -10 -20q0 -10 16 -17q19 0 30 4 q16 0 30 -10q30 -21 30 -109v-83v-14q0 -6 1 -13q1 -10 0 -23l-5 -83q-1 -8 -1.5 -15.5t-2.5 -15.5q-1 -6 -1.5 -13.5t-0.5 -15.5v-32q0 -21 -15 -85q-8 -35 -17.5 -62t-19.5 -44q-16 -29 -53 -54q-17 -7 -30.5 -11t-24.5 -6q-56 -15 -71 -15q-37 0 -76 18q-65 30 -82 84 q-3 10 -6 35q-3 27 -7 37l-8 27l-13 72v36q-6 40 -6 55q3 42 3 53v90q-1 3 -1 23q0 -4 -6 20v43q-2 19 1 51q2 21 5.5 32.5t8.5 17t11.5 7t13.5 1.5t22 -3t22 -3q22 1 30 12q7 13 -2 22q-4 7 -53 12l-27 2l-26 2h-25l-45 -3h-20q-1 0 -8 0.5l-21 1.5q-26 3 -27 3h-61 q-15 0 -23 -11v-11zM433 906h27q8 0 3 -1q8 2 28 10l55 31l25 12l25 12q39 19 45 33q5 17 -4 27q-9 17 -31 18q-21 1 -45 -27q-17 -14 -28.5 -24.5l-18.5 -16.5l-33 -34l-29 -24z" />
<glyph unicode="&#xdb;" horiz-adv-x="862" d="M20 778q5 -13 21 -17q17 -5 22 -3q43 -8 44 -8q28 -15 23 -92v-30q4 -40 6 -67.5t2 -41.5v-20q0 -24 -4 -47q-3 -18 1 -45l9 -62q6 -43 9 -68l6 -49q3 -33 9 -52q22 -68 48 -102q18 -23 52 -44q31 -20 97 -32q78 -17 140 -3q35 6 57 16q34 15 75 60q23 26 40 53.5 t27 56.5q10 39 16 68.5t9 49.5l9 48l10 245q4 15 4 21q0 5 1 12.5t1 9.5v16v50q1 19 13 32q7 8 41 19l23 8q9 4 9 16l-22 22l-8 -4h-42q-17 0 -29 -4q-25 0 -27 -1h-15q-21 0 -73 3q-29 2 -34 -3q-13 -10 -10 -20q0 -9 17 -17q19 0 30 4q16 0 30 -10q30 -21 30 -109v-83v-14 q0 -6 1 -13q1 -10 0 -23l-6 -83q-2 -35 -3.5 -50t-1.5 -10v-32q0 -22 -16 -85q-20 -78 -36 -106q-17 -29 -54 -54q-17 -7 -30 -11t-24 -6q-56 -15 -71 -15q-38 0 -77 18q-67 31 -82 84q-9 46 -12 72l-9 27l-12 72v36q-6 40 -6 55q3 42 3 53v90q-2 6 -2 23l-1.5 5t-3.5 15v43 q-2 19 1 51q2 21 5.5 32.5t8.5 17t11 7t13 1.5q8 0 22.5 -3t21.5 -3q24 1 30 12q7 11 -1 22q-6 7 -54 12l-27 2l-26 2h-24l-45 -3h-20q-2 0 -9 0.5l-20 1.5q-26 3 -27 3h-61q-17 0 -23 -11v-11zM327 912l1 -9q22 3 29 3q5 4 11.5 8t16.5 8q13 6 14 9q11 4 21.5 10t18.5 13 l10.5 3.5t6.5 2.5q12 9 17 10q81 -66 129 -69q2 6 -5 14l-26 36l-6 1l-4 5l-1 7l-3 6q-4 5 -7.5 10t-5.5 9l-7 4l-6 4l-2 6l-4 5l-5 6l-2 6l-3 4l-6 5q-3 8 -7 13q-2 2 -9 2q-22 0 -24 -1q-8 -1 -15 -1t-15 -1q-5 -2 -22 -26q-17 -23 -27 -28q-7 -10 -12 -16.5l-9 -11.5 l-31 -36l-4 -2l-1 -4z" />
<glyph unicode="&#xdc;" horiz-adv-x="863" d="M21 778q5 -13 21 -17q17 -5 22 -3q43 -8 44 -8q28 -15 23 -92v-30q4 -40 6 -67.5t2 -41.5v-20q0 -24 -4 -47q-3 -18 1 -45l9 -62q6 -43 9 -68l6 -49q3 -33 9 -52q22 -68 48 -102q18 -23 52 -44q31 -20 97 -32q78 -17 140 -3q35 6 57 16q34 15 75 60q23 26 40 53.5 t27 56.5q10 39 16 68.5t9 49.5l9 48l10 245q4 15 4 21q0 5 1 12.5t1 9.5v16v50q1 19 13 32q7 8 41 19l23 8q9 4 9 16l-22 22l-8 -4h-42q-17 0 -29 -4q-25 0 -27 -1h-15q-21 0 -73 3q-29 2 -34 -3q-13 -10 -10 -20q0 -9 17 -17q19 0 30 4q16 0 30 -10q30 -21 30 -109v-83v-14 q0 -6 1 -13q1 -10 0 -23l-6 -83q-2 -35 -3.5 -50t-1.5 -10v-32q0 -22 -16 -85q-20 -78 -36 -106q-17 -29 -54 -54q-17 -7 -30 -11t-24 -6q-56 -15 -71 -15q-38 0 -77 18q-67 31 -82 84q-9 46 -12 72l-9 27l-12 72v36q-6 40 -6 55q3 42 3 53v90q-2 6 -2 23l-1.5 5t-3.5 15v43 q-2 19 1 51q2 21 5.5 32.5t8.5 17t11 7t13 1.5q8 0 22.5 -3t21.5 -3q24 1 30 12q7 11 -1 22q-6 7 -54 12l-27 2l-26 2h-24l-45 -3h-20q-2 0 -9 0.5l-20 1.5q-26 3 -27 3h-61q-17 0 -23 -11v-11zM321 966q-1 -16 4.5 -28t15 -19.5t21.5 -9.5t24 3q27 10 32 34q3 14 -1 25.5 t-12.5 20t-20 12t-24.5 0.5q-37 -7 -39 -38zM493 962q0 -45 38 -56q25 -7 45 13q20 22 13 51q-4 18 -25 28q-5 1 -36 9q-35 -32 -35 -45z" />
<glyph unicode="&#xdd;" horiz-adv-x="929" d="M12 782q0 -23 31 -23q10 4 43 -7q48 -18 81 -57l90 -107q11 -14 20 -24t16 -17l35 -48l41 -51l41 -51q9 -17 9 -105v-126q-5 -8 -5 -26v-10t-1 -16q-1 -41 -13 -53q-9 -9 -47 -14q-9 -1 -15 -1h-8q-15 -6 -21 -15q0 -25 19 -25q12 -6 31 -6h172l29 1q24 0 28 -1 q22 1 28 6q19 6 19 20q-8 17 -39 17q-22 0 -40 8q-21 15 -21 63v58q0 5 1 8v14q-1 3 -1 7v51l5 23v20q0 19 -1 40t-1 25q0 19 10 35q4 6 45 63l143 197q47 65 68 79q22 16 81 21q15 -6 25 9q5 8 -4 19q-8 11 -110 11h-67h-6q-3 0 -7 1h-12h-20q-24 0 -26 -1q-16 0 -16 -18 q20 -15 26 -16q9 -2 15 -2q7 0 12 -1.5t10 -6t11 -14.5q2 -11 -28 -43q-16 -21 -17 -24q-4 -7 -6 -12t-4 -9l-60 -73q-23 -34 -38.5 -54.5t-22.5 -28.5l-26 -33q-13 0 -30 20l-24 29q-28 35 -36 41q-15 10 -19.5 21t-9.5 22l-41 42l-41.5 50.5t-19.5 34.5q0 7 4 15 q0 11 15 16q13 8 22 8q14 0 24 2q10 7 14.5 10.5t5.5 4.5v10q-10 8 -17 8q-7 1 -12 1q-4 0 -6 1h-34h-28q-6 0 -19.5 -1.5t-19.5 -1.5l-176 6q-5 0 -14.5 -1t-14.5 -1q-18 -6 -25 -14zM483 902h29q6 0 29 9l55 31l50 25q39 19 45 33q5 17 -4 27q-8 15 -31 17t-45 -26 q-17 -14 -28.5 -24.5l-18.5 -16.5l-33 -35l-30 -24t-18 -16z" />
<glyph unicode="&#xdf;" horiz-adv-x="458" d="M24 18q0 -17 4 -21q23 -5 32 -2h32q4 0 8 -2h3l4 -1l16 5q5 0 15.5 1.5t14.5 1.5h19l11 6q0 11 -0.5 17.5t-1.5 10.5v158q0 48 -9 102l8 8v146q0 5 -3 14t-3 15v24q0 2 6 22v21q0 19 4 42t9 46q5 12 36 32q34 -8 42 -12q7 -5 30 -30q10 -59 10 -57q0 -17 -9 -42 q-16 -47 -51 -85q-29 -30 -36 -43q-6 -10 -12 -43l10 -12q36 0 65 -16q5 0 8 -5l8 -6l2 -2h5l4 -1l5 -4q9 -9 11 -16t4 -15q14 -9 15 -17t4 -20q10 -38 12 -42q1 -5 1.5 -11t0.5 -13q0 -84 -56 -123l-18 16q-4 15 -25 23q-15 5 -28 -4q-22 -13 -25 -38q-3 -27 37 -55 q54 -2 91 25q96 73 96 203q0 31 -6 61q-13 61 -49 91q-28 24 -91 39q112 102 106 198q-1 25 -25 58q-21 27 -49 44l-30 6q-26 4 -60 0l-7 -6h-11q-8 -8 -45 -33q-14 -11 -33 -39q-15 -23 -25 -62q-1 -3 -3 -15t-7 -32q-11 -55 -11 -56q0 -5 2.5 -14.5t2.5 -12.5l-2 -298 q-4 -23 -4 -28v-42q-13 -19 -21 -23q-13 -11 -22 -14q-12 -7 -13 -10q-1 -5 -3 -13z" />
<glyph unicode="&#xe0;" horiz-adv-x="435" d="M35 518l10 -5l7 -5.5t3 -2.5l130 -61q22 -11 51 -9l-71 70l-28 19q-14 21 -21 22q-38 29 -53 31q-19 1 -28 -12q-11 -12 0 -47zM75 206q7 -12 15 -15q2 -1 17 -1q30 -2 44 20q7 10 6 32q-2 26 0 34q2 9 9 17.5t16.5 16t20 13t19.5 6.5q30 4 53 -20q19 -20 10 -58 q-6 -23 -58 -50l-69 -33q-34 -20 -45 -29q-32 -27 -35 -64q-1 -22 12 -44q7 -12 24 -24q22 -15 46 -15q13 0 72 18q11 11 23 11q8 5 14 8t8 5q15 -11 18 -18q22 -21 46 -21q17 0 35 9q27 14 35 30q6 11 7 37l-7 6q-5 -6 -8.5 -11t-5.5 -9q-11 -15 -20 -18q-17 0 -17 20 q0 5 1.5 14.5t1.5 11.5q5 50 3 79q-1 20 -3 31q-2 26 -3.5 41t-1.5 19q0 55 -16 72q-35 39 -90 39q-10 0 -15 -1q-22 -3 -61 -25q-45 -25 -66.5 -43.5t-34.5 -44.5q-13 -25 0 -46zM161 82q-5 50 35 73q20 13 39.5 21.5t39.5 13.5q8 -8 8 -31q3 -9 2 -35q-2 -31 -4 -37 q-4 -16 -22 -32q-20 -19 -49 -19q-45 0 -49 46z" />
<glyph unicode="&#xe1;" horiz-adv-x="399" d="M25 206q7 -11 16 -15q2 -1 17 -1q29 -2 43 20q6 10 6 30q-2 27 0 32q1 9 8 18.5t16.5 18t20.5 14t20 6.5q30 4 52 -19q21 -23 11 -59q-6 -23 -58 -50l-34 -16.5l-34 -16.5q-20 -11 -31 -18.5t-15 -10.5q-33 -28 -34 -64q-1 -22 9 -41q8 -13 26 -27q22 -15 46 -15 q13 0 72 18q11 11 23 11q8 5 14 8t8 5q16 -11 18 -18q22 -21 46 -21q17 0 35 9q27 14 35 30q6 11 7 37l-6 6q-10 -11 -15 -20q-10 -15 -20 -18q-16 0 -16 20q0 5 1 14.5t1 11.5q5 50 3 79q-1 20 -3 31q-2 26 -3.5 41t-1.5 19q0 55 -16 72q-35 39 -89 39q-27 0 -77 -26 q-42 -22 -65.5 -42.5t-35.5 -45.5q-11 -23 0 -46zM111 82q-4 48 37 74q36 23 77 34q8 -8 8 -31q3 -8 2 -35q-2 -31 -4 -37q-4 -15 -21 -32q-23 -19 -51 -19q-44 0 -48 46zM155 440h29q8 0 1 -1q6 1 28 9l56 31l25 12l25 12q38 22 44 34q4 16 -3 27q-9 15 -32 18 q-20 1 -45 -27q-17 -14 -28.5 -24.5l-18.5 -16.5l-33 -35q-35 -27 -48 -39z" />
<glyph unicode="&#xe2;" horiz-adv-x="401" d="M35 206q7 -12 15 -15q2 -1 17 -1q30 -2 44 20q7 10 6 32q-2 26 0 34q2 9 9 17.5t16.5 16t20 13t19.5 6.5q30 4 53 -20q19 -20 10 -58q-6 -23 -58 -50l-69 -33q-34 -20 -45 -29q-32 -27 -35 -64q-1 -22 12 -44q7 -12 24 -24q22 -15 46 -15q13 0 72 18q11 11 23 11 q8 5 14 8t8 5q15 -11 18 -18q22 -21 46 -21q17 0 35 9q27 14 35 30q6 11 7 37l-7 6q-5 -6 -8.5 -11t-5.5 -9q-11 -15 -20 -18q-17 0 -17 20q0 5 1.5 14.5t1.5 11.5q5 50 3 79q-1 20 -3 31q-2 26 -3.5 41t-1.5 19q0 55 -16 72q-35 39 -90 39q-10 0 -15 -1q-22 -3 -61 -25 q-45 -25 -66.5 -43.5t-34.5 -44.5q-13 -25 0 -46zM45 446l1 -9q24 1 29 3q11 10 28 16q12 7 14 9q11 4 21.5 10t18.5 13l10.5 3.5t6.5 2.5l17 10q81 -66 129 -69q1 4 -5 13l-26 37l-6 1l-4 5l-1 7l-3 6q-2 2 -5.5 6.5t-7.5 12.5l-7 4l-6 4l-2 6l-4 5l-5 6l-2 6l-3 4l-6 5 q-3 8 -7 13q-2 2 -9 2q-22 0 -24 -1q-8 -1 -15 -1t-15 -1q-4 -1 -22 -25q-17 -25 -27 -29q-7 -10 -12 -16.5l-9 -11.5l-31 -36l-4 -2l-1 -4zM121 82q-5 50 35 73q20 13 39.5 21.5t39.5 13.5q8 -8 8 -31q3 -9 2 -35q-2 -31 -4 -37q-4 -16 -22 -32q-20 -19 -49 -19 q-45 0 -49 46z" />
<glyph unicode="&#xe3;" horiz-adv-x="406" d="M37 206q7 -12 15 -15q2 -1 17 -1q30 -2 44 20q7 10 6 32q-2 26 0 34q2 9 9 17.5t16.5 16t20 13t19.5 6.5q30 4 53 -20q19 -20 10 -58q-6 -23 -58 -50l-69 -33q-34 -20 -45 -29q-32 -27 -35 -64q-1 -22 12 -44q7 -12 24 -24q22 -15 46 -15q13 0 72 18q11 11 23 11 q8 5 14 8t8 5q15 -11 18 -18q22 -21 46 -21q17 0 35 9q27 14 35 30q6 11 7 37l-7 6q-5 -6 -8.5 -11t-5.5 -9q-11 -15 -20 -18q-17 0 -17 20q0 5 1.5 14.5t1.5 11.5q5 50 3 79q-1 20 -3 31q-2 26 -3.5 41t-1.5 19q0 55 -16 72q-35 39 -90 39q-10 0 -15 -1q-22 -3 -61 -25 q-45 -25 -66.5 -43.5t-34.5 -44.5q-13 -25 0 -46zM60 433h23q6 21 11 30q9 13 28 13q12 0 45 -14q35 -14 48 -17q39 -6 65 17q5 12 5 9h4l5 4l5 8q0 8 1 9q12 15 14 22v27h-18q-15 -40 -47 -42q-5 0 -16.5 4t-17.5 4l-11 5q-11 10 -29 10q-10 10 -27 10q-7 1 -30 -2 q-23 -4 -31 -9q-27 -27 -27 -88zM123 82q-5 50 35 73q20 13 39.5 21.5t39.5 13.5q8 -8 8 -31q3 -9 2 -35q-2 -31 -4 -37q-4 -16 -22 -32q-20 -19 -49 -19q-45 0 -49 46z" />
<glyph unicode="&#xe4;" horiz-adv-x="408" d="M38 206q7 -12 15 -15q2 -1 17 -1q30 -2 44 20q7 10 6 32q-2 26 0 34q2 9 9 17.5t16.5 16t20 13t19.5 6.5q30 4 53 -20q19 -20 10 -58q-6 -23 -58 -50l-69 -33q-34 -20 -45 -29q-32 -27 -35 -64q-1 -22 12 -44q7 -12 24 -24q22 -15 46 -15q13 0 72 18q11 11 23 11 q8 5 14 8t8 5q15 -11 18 -18q22 -21 46 -21q17 0 35 9q27 14 35 30q6 11 7 37l-7 6q-5 -6 -8.5 -11t-5.5 -9q-11 -15 -20 -18q-17 0 -17 20q0 5 1.5 14.5t1.5 11.5q5 50 3 79q-1 20 -3 31q-2 26 -3.5 41t-1.5 19q0 55 -16 72q-35 39 -90 39q-10 0 -15 -1q-22 -3 -61 -25 q-45 -25 -66.5 -43.5t-34.5 -44.5q-13 -25 0 -46zM58 493q-2 -35 20 -48q20 -17 44 -5q25 7 33 33q5 29 -13.5 46.5t-44.5 12.5q-38 -8 -39 -39zM124 82q-5 50 35 73q20 13 39.5 21.5t39.5 13.5q8 -8 8 -31q3 -9 2 -35q-2 -31 -4 -37q-4 -16 -22 -32q-20 -19 -49 -19 q-45 0 -49 46zM228 489q0 -19 11.5 -35.5t28.5 -20.5q25 -6 45 14q20 22 13 50q-4 18 -25 28q-5 1 -36 9q-26 -23 -27 -23q-10 -10 -10 -22z" />
<glyph unicode="&#xe5;" horiz-adv-x="402" d="M35 206q7 -12 15 -15q2 -1 17 -1q30 -2 44 20q7 10 6 32q-2 26 0 34q2 9 9 17.5t16.5 16t20 13t19.5 6.5q30 4 53 -20q19 -20 10 -58q-6 -23 -58 -50l-69 -33q-34 -20 -45 -29q-32 -27 -35 -64q-1 -22 12 -44q7 -12 24 -24q22 -15 46 -15q13 0 72 18q11 11 23 11 q8 5 14 8t8 5q15 -11 18 -18q22 -21 46 -21q17 0 35 9q27 14 35 30q6 11 7 37l-7 6q-5 -6 -8.5 -11t-5.5 -9q-11 -15 -20 -18q-17 0 -17 20q0 5 1.5 14.5t1.5 11.5q5 50 3 79q-1 20 -3 31q-2 26 -3.5 41t-1.5 19q0 55 -16 72q-35 39 -90 39q-10 0 -15 -1q-22 -3 -61 -25 q-45 -25 -66.5 -43.5t-34.5 -44.5q-13 -25 0 -46zM95 488q9 -49 58 -68q30 -13 52 -13q24 0 54 18q44 27 45 73q0 19 -8 49q-10 34 -27 46q-33 24 -90 24q-13 0 -20 -3q-20 -7 -40 -27q-15 -15 -22 -52q-5 -32 -2 -47zM121 82q-5 50 35 73q20 13 39.5 21.5t39.5 13.5 q8 -8 8 -31q3 -9 2 -35q-2 -31 -4 -37q-4 -16 -22 -32q-20 -19 -49 -19q-45 0 -49 46zM136 545q10 7 12 18q10 13 13 16q8 8 16 10q1 1 20 -1q12 -1 19 -3t12 -6.5t9 -12.5l10 -21q10 -21 10 -44q0 -28 -17 -48q-14 -23 -35 -23q-6 0 -9 1q-16 6 -24.5 11t-12.5 9t-5 9 t-3 11q0 3 -7 34q-4 17 -5.5 27t-2.5 13z" />
<glyph unicode="&#xe6;" horiz-adv-x="617" d="M37 206q7 -11 16 -15q2 -1 17 -1q29 -2 43 20q6 10 6 30q-2 27 0 32q1 9 8 18.5t16.5 18t20.5 14t20 6.5q30 4 52 -19q21 -23 11 -59q-6 -23 -58 -50l-34 -16.5l-34 -16.5q-20 -11 -31 -18.5t-15 -10.5q-33 -28 -34 -64q-1 -22 9 -41q8 -13 26 -27q22 -15 46 -15 q13 0 72 18q11 11 23 11q8 5 14 8t8 5q16 -11 18 -18q22 -21 46 -21q20 0 46 15q39 -16 80 -16q25 0 48 6q26 11 42.5 19t24.5 13q25 15 34 28q10 19 6 33q-9 0 -22 -10q-8 -10 -20 -14q-44 -30 -84 -30q-50 0 -78 30v2l-6 6l-1 -1l-11 15t-12 18q-9 15 -12 27q-6 11 5 25 q57 -5 75 -3q41 4 85 21q13 5 22 9.5t16 8.5l8 3q24 24 27 28q8 13 7 37q-2 25 -20 50q-18 27 -38.5 38t-55.5 13q-96 4 -157 -51q-6 12 -16.5 21t-24 16t-28 10.5t-28.5 3.5q-27 0 -77 -26q-42 -22 -65.5 -42.5t-35.5 -45.5q-11 -23 0 -46zM123 82q-4 48 37 74q36 23 77 34 q8 -8 8 -31q3 -8 2 -35q-2 -31 -4 -37q-4 -15 -21 -32q-23 -19 -51 -19q-44 0 -48 46zM332 215q0 14 5 32q10 36 39 63q13 12 37 21.5t40 6.5q31 -6 45 -38q15 -36 -7 -69q-30 -47 -102 -48q2 2 -49 2q-8 5 -8 30z" />
<glyph unicode="&#xe7;" horiz-adv-x="395" d="M24 165q0 -35 3 -45q12 -40 31 -62q12 -14 45 -37q41 -26 80 -26q55 2 88.5 9.5t53 20.5t28 32.5t13.5 46.5l-7 6q-7 0 -19 -16q-11 -16 -11 -20q-16 -19 -54 -31q-38 -11 -57 -7q-49 7 -79 53q-13 19 -16 28q-10 21 -10 86l25 86q28 46 77 46q44 0 64 -26q6 -8 6 -23 q0 -7 -5 -14t-10 -7q-8 0 -14 2.5t-8 2.5q-5 0 -12.5 -5t-7.5 -29q0 -26 35 -40q31 -12 62 10t31 64q0 52 -58 83q-25 13 -69 13q-69 0 -112 -23q-35 -19 -51 -40q-19 -25 -29 -59q-13 -42 -13 -79zM90 -162v-7q72 -39 152 -39q66 0 92 53q14 29 -1 62q-14 23 -52 31 l-27.5 4l-27.5 4l10 26v21q-31 0 -32 -1q-1 -2 -4 -10t-3 -12q-10 -17 -10 -20q-4 -16 -5.5 -26t-2.5 -15q43 0 47 -1q7 -1 16.5 -5t22.5 -11q0 -37 -9 -46q-17 -15 -38 -15q-13 0 -29 4q-11 2 -19 3t-13 2q-14 8 -26 14q-5 0 -16 8q-4 3 -5 2q-4 -2 -6 -2z" />
<glyph unicode="&#xe8;" horiz-adv-x="402" d="M34 515l6 -3l4 -3q4 -3 6.5 -4.5t3.5 -2.5l130 -61q22 -11 51 -9l-71 70l-27 19q-13 19 -21 22q-38 29 -54 31q-18 1 -28 -12q-9 -11 0 -47zM46 150q6 -40 12 -53q28 -63 97 -90q33 -12 70 -12q27 0 48 6q26 11 43 19t25 13q26 15 33 28q11 21 7 33q-11 0 -22 -10 q-8 -10 -20 -14q-44 -30 -83 -30q-32 0 -67 20q-18 11 -42 50l-7.5 13.5t-5.5 13.5q-5 14 6 25q56 -5 74 -3q44 5 86 21q24 10 37 18l8 3q13 11 20 18.5t9 11.5q8 11 6 35q-2 25 -20 50q-18 27 -38.5 38t-56.5 13q-101 5 -163 -57q-11 -11 -20 -22.5t-16 -24.5 q-19 -34 -20 -63q-5 -23 0 -50zM129 216q0 17 4 32q18 42 39 63q13 13 37.5 22t40.5 6q30 -5 44 -38q16 -36 -6 -69q-30 -47 -103 -48q2 2 -48 2q-8 5 -8 30z" />
<glyph unicode="&#xe9;" horiz-adv-x="427" d="M21 150q6 -40 12 -53q28 -63 97 -90q33 -12 70 -12q27 0 48 6q26 11 43 19t25 13q26 15 33 28q11 21 7 33q-11 0 -22 -10q-8 -10 -20 -14q-44 -30 -83 -30q-32 0 -67 20q-18 11 -42 50l-7.5 13.5t-5.5 13.5q-5 14 6 25q56 -5 74 -3q44 5 86 21q24 10 37 18l8 3 q13 11 20 18.5t9 11.5q8 11 6 35q-2 25 -20 50q-18 27 -38.5 38t-56.5 13q-101 5 -163 -57q-11 -11 -20 -22.5t-16 -24.5q-19 -34 -20 -63q-5 -23 0 -50zM104 216q0 17 4 32q18 42 39 63q13 13 37.5 22t40.5 6q30 -5 44 -38q16 -36 -6 -69q-30 -47 -103 -48q2 2 -48 2 q-8 5 -8 30zM189 430h29q8 0 1 -1q6 1 28 9l55 31l50 25q39 19 45 33q4 16 -3 27q-9 15 -32 18q-21 1 -45 -27q-17 -14 -28.5 -24.5l-18.5 -16.5l-33 -35q-35 -27 -48 -39z" />
<glyph unicode="&#xea;" horiz-adv-x="392" d="M27 150q6 -40 12 -53q28 -63 97 -90q33 -12 70 -12q27 0 48 6q26 11 43 19t25 13q26 15 33 28q11 21 7 33q-11 0 -22 -10q-8 -10 -20 -14q-44 -30 -83 -30q-32 0 -67 20q-18 11 -42 50l-7.5 13.5t-5.5 13.5q-5 14 6 25q56 -5 74 -3q44 5 86 21q24 10 37 18l8 3 q13 11 20 18.5t9 11.5q8 11 6 35q-2 25 -20 50q-18 27 -38.5 38t-56.5 13q-101 5 -163 -57q-11 -11 -20 -22.5t-16 -24.5q-19 -34 -20 -63q-5 -23 0 -50zM72 450l1 -9q11 1 18 1.5t11 0.5q18 12 29 17t13 8q8 3 20.5 9.5t19.5 14.5q3 1 8.5 2.5t8.5 2.5q12 9 16 10 q86 -65 130 -69q2 6 -5 14l-26 36l-6 1l-4 5l-1 8l-3 5q-4 5 -7.5 10t-5.5 9l-7 5l-6 3l-2 7l-4 4l-5 7l-2 5l-3 5l-6 4q-3 7 -7 14q-2 2 -10 2q-17 0 -23 -2q-8 -1 -15 -1t-15 -1q-5 -2 -22 -26q-17 -23 -27 -28q-7 -10 -12 -16.5l-9 -11.5l-31 -35l-4 -3l-1 -4zM110 216 q0 17 4 32q18 42 39 63q13 13 37.5 22t40.5 6q30 -5 44 -38q16 -36 -6 -69q-30 -47 -103 -48q2 2 -48 2q-8 5 -8 30z" />
<glyph unicode="&#xeb;" horiz-adv-x="397" d="M30 150q6 -40 12 -53q28 -63 97 -90q33 -12 70 -12q27 0 48 6q26 11 43 19t25 13q26 15 33 28q11 21 7 33q-11 0 -22 -10q-8 -10 -20 -14q-44 -30 -83 -30q-32 0 -67 20q-18 11 -42 50l-7.5 13.5t-5.5 13.5q-5 14 6 25q56 -5 74 -3q44 5 86 21q24 10 37 18l8 3 q13 11 20 18.5t9 11.5q8 11 6 35q-2 25 -20 50q-18 27 -38.5 38t-56.5 13q-101 5 -163 -57q-11 -11 -20 -22.5t-16 -24.5q-19 -34 -20 -63q-5 -23 0 -50zM78 493q-2 -32 20 -48t45 -5q27 9 32 33q5 28 -14 46t-44 13q-38 -8 -39 -39zM113 216q0 17 4 32q18 42 39 63 q13 13 37.5 22t40.5 6q30 -5 44 -38q16 -36 -6 -69q-30 -47 -103 -48q2 2 -48 2q-8 5 -8 30zM250 489q0 -19 10.5 -35.5t27.5 -20.5q13 -3 25 1t20.5 13t12 22t0.5 28q-4 18 -25 28q-5 1 -36 9q-35 -32 -35 -45z" />
<glyph unicode="&#xec;" horiz-adv-x="362" d="M27 518l5 -3l5 -2q4 -4 6 -5.5t3 -2.5l130 -61q22 -11 51 -9l-71 70l-28 19q-14 21 -21 22q-38 31 -53 31q-20 1 -27 -12q-11 -12 0 -47zM115 301q5 -8 22 -8q5 0 19 3.5t21 3.5q9 0 13 -4q9 -7 10 -35q1 -17 0 -39q-1 -14 -1 -20t0 -4v-47q1 2 1 -22v-48q0 -31 -7 -38 t-62 -7l-11 -10q0 -23 36 -23q4 0 11.5 -1.5t11.5 -1.5h6l5 6l2.5 -1.5l7.5 -4.5h97q18 0 26 3q12 0 23 14q-4 13 -11 15q1 -1 -14 -1h-5q-3 0 -10 1q-10 0 -14 4q-12 9 -13 22q1 -15 1.5 -9.5t0.5 31.5v108v20q-1 6 -1 10v8v86q0 40 -3 43q-7 7 -16 7q-2 0 -23 -6 q-20 -7 -35 -11.5t-26 -8.5q-17 -5 -32 -9l-29 -8q-9 -10 -1 -18z" />
<glyph unicode="&#xed;" horiz-adv-x="337" d="M19 301q5 -8 23 -8q5 0 19 3.5t21 3.5q9 0 13 -4q8 -7 10 -35q1 -17 0 -39q-1 -14 -1 -20t0 -4v-47q1 1 1 -22v-48q0 -31 -7 -38t-62 -7l-11 -10q0 -13 12 -20q4 -3 23 -3q4 0 12 -1.5t12 -1.5h5l6 6l2.5 -1.5l7.5 -4.5h96q19 0 27 3q11 0 22 14q-5 14 -10 15 q1 -1 -14 -1h-5q-3 0 -10 1q-10 0 -14 4q-12 9 -13 22q1 -15 1.5 -9.5t0.5 31.5v108v20q-1 6 -1 10v8v86q0 40 -4 43q-7 7 -16 7q-1 0 -22 -6q-20 -7 -35 -11.5t-26 -8.5q-17 -5 -32.5 -9t-29.5 -8q-7 -10 -1 -18zM104 436h29q5 0 28 9l56 31l50 25q40 20 44 33q6 15 -3 26 q-11 17 -31 18q-17 1 -46 -26l-28 -25.5t-18 -15.5l-34 -35l-29 -24t-18 -16z" />
<glyph unicode="&#xee;" horiz-adv-x="318" d="M19 445l1 -9q11 1 18 1.5t11 0.5q17 12 28 17.5t14 8.5l8.5 3.5t5.5 2.5q4 3 13.5 7.5t12.5 9.5q3 1 8.5 3t7.5 3l17 10q14 -11 30 -22t35 -22q43 -24 65 -25q1 6 -6 13l-25 37l-7 1l-3 4l-1 8l-4 6q-2 2 -5.5 6.5t-7.5 12.5l-6 4l-6 3l-2 7l-5 5l-4 6l-2 6l-9 9l-3.5 7 t-3.5 6q-2 2 -10 2q-21 0 -23 -1q-8 -1 -15 -1t-15 -1q-2 -1 -23 -25l-15.5 -18.5t-10.5 -11.5l-21 -27l-31 -36l-5 -2l-1 -4zM59 301q5 -8 22 -8q5 0 19 3.5t21 3.5q9 0 13 -4q9 -7 10 -35q1 -17 0 -39q-1 -14 -1 -20t0 -4v-47q1 2 1 -22v-48q0 -31 -7 -38t-62 -7l-11 -10 q0 -23 36 -23q4 0 11.5 -1.5t11.5 -1.5h6l5 6l2.5 -1.5l7.5 -4.5h97q18 0 26 3q12 0 23 14q-4 13 -11 15q1 -1 -14 -1h-5q-3 0 -10 1q-10 0 -14 4q-12 9 -13 22q1 -15 1.5 -9.5t0.5 31.5v108v20q-1 6 -1 10v8v86q0 40 -3 43q-7 7 -16 7q-2 0 -23 -6q-20 -7 -35 -11.5 t-26 -8.5q-17 -5 -32 -9l-29 -8q-9 -10 -1 -18z" />
<glyph unicode="&#xef;" horiz-adv-x="329" d="M23 495q-2 -35 20 -48q20 -17 44 -5q25 7 33 33q4 27 -13.5 46t-44.5 13q-38 -8 -39 -39zM71 301q5 -8 22 -8q5 0 19 3.5t21 3.5q9 0 13 -4q9 -7 10 -35q1 -17 0 -39q-1 -14 -1 -20t0 -4v-47q1 2 1 -22v-48q0 -31 -7 -38t-62 -7l-11 -10q0 -23 36 -23q4 0 11.5 -1.5 t11.5 -1.5h6l5 6l2.5 -1.5l7.5 -4.5h97q18 0 26 3q12 0 23 14q-4 13 -11 15q1 -1 -14 -1h-5q-3 0 -10 1q-10 0 -14 4q-12 9 -13 22q1 -15 1.5 -9.5t0.5 31.5v108v20q-1 6 -1 10v8v86q0 40 -3 43q-7 7 -16 7q-2 0 -23 -6q-20 -7 -35 -11.5t-26 -8.5q-17 -5 -32 -9l-29 -8 q-9 -10 -1 -18zM193 491q0 -7 3 -16q7 -29 37 -40q13 -3 25 1t20 13t11.5 22t0.5 28q-5 20 -25 28q-9 4 -36 9q-36 -30 -36 -45z" />
<glyph unicode="&#xf1;" horiz-adv-x="504" d="M25 16q6 -13 25 -13q6 -2 12 -2q12 3 13 3q5 1 17.5 1.5t33.5 0.5h38q41 -6 47 -5q11 1 23 6t21 16v10q-13 12 -30 7q-1 0 -14 -3q-10 -2 -15 2q-12 5 -17 38q-2 13 -1.5 27t2.5 30q1 26 1.5 46t0.5 34q10 64 60 91q22 11 38 11q12 0 20 -5t12 -21q4 -11 5 -31 q1 -9 1.5 -29t0.5 -52v-43q0 -23 0.5 -39t1.5 -26q5 -47 19 -58t106 -11q22 3 26 5q8 8 8 23q-17 9 -26 5h-26q-11 5 -15 10q-1 1 -6 16q0 20 -5 30v100v60t-1 27q-5 44 -7 51q-8 21 -31 33q-16 8 -35 8q-31 0 -73 -20q-47 -30 -69 -48q-2 5 -2.5 9.5t-1.5 6.5l3 9v7 q-5 20 -19 30q-12 8 -49 -7q-19 -7 -31.5 -12l-19.5 -8h-16q-18 -6 -21 -10q-6 -12 1 -21l4 -2l5 -1h7l5 1l4 2h7q-4 0 0.5 0.5t15.5 1.5q8 1 16 -5q7 -6 7 -49q0 -5 1 -13.5t1 -9.5v-24v-31v-34q0 -16 -1 -33q-2 -55 -16 -65q-21 -6 -36 -4q-25 0 -25 -23zM120 433h22 q6 21 11 30q9 13 28 13q12 0 45 -14q35 -14 48 -17q39 -6 65 17q5 8 5 9h4l5 4l5 8q0 8 1 9q12 15 14 22v27h-18q-15 -40 -47 -42q-5 0 -16.5 4t-17.5 4l-11 5q-11 10 -29 10q-10 10 -27 10q-7 1 -30 -2q-23 -4 -31 -9q-26 -26 -26 -88z" />
<glyph unicode="&#xf2;" horiz-adv-x="445" d="M36 196q0 -20 2 -41t18 -56q20 -45 53 -70q43 -31 133 -31q40 0 66 9q13 5 27 13.5t29 21.5q30 25 43 49q12 34 15 53q8 44 -4 91q-14 52 -42 81q-20 20 -78 40q-63 21 -95 15q-61 -18 -84 -34q-14 -10 -27.5 -23t-25.5 -30q-29 -42 -30 -88zM37 508l10 -5l7 -5.5t3 -2.5 l130 -61q22 -11 51 -9l-71 70l-28 19q-14 21 -21 22q-38 31 -53 31q-19 1 -28 -12q-11 -12 0 -47zM118 208q0 36 13 66q17 40 47 53q26 13 49 13q22 0 48 -15q8 -8 14 -15.5l10 -12.5q25 -32 36 -63q7 -21 7 -56q0 -20 -0.5 -33t-1.5 -18q-10 -57 -48 -83q-22 -14 -42 -20 q-8 -2 -43 7q-61 23 -80 110q-9 39 -9 67z" />
<glyph unicode="&#xf3;" horiz-adv-x="440" d="M19 196q0 -20 2 -41t18 -56q20 -45 53 -70q43 -31 133 -31q40 0 66 9q13 5 27 13.5t29 21.5q30 25 43 49q12 34 15 53q8 44 -4 91q-14 52 -42 81q-20 20 -78 40q-63 21 -95 15q-61 -18 -84 -34q-14 -10 -27.5 -23t-25.5 -30q-29 -42 -30 -88zM101 208q0 36 13 66 q17 40 47 53q26 13 49 13q22 0 48 -15q8 -8 14 -15.5l10 -12.5q25 -32 36 -63q7 -21 7 -56q0 -20 -0.5 -33t-1.5 -18q-10 -57 -48 -83q-22 -14 -42 -20q-8 -2 -43 7q-61 23 -80 110q-9 39 -9 67zM190 433h26q8 0 3 -1q8 2 29 10l55 31l25 12l25 12q38 19 45 34q5 17 -4 26 q-9 17 -31 18q-21 1 -45 -27q-41 -35 -47 -41l-33 -34l-30 -24t-18 -16z" />
<glyph unicode="&#xf4;" horiz-adv-x="442" d="M27 196q0 -20 2 -41t18 -56q20 -45 53 -70q43 -31 133 -31q40 0 66 9q13 5 27 13.5t29 21.5q30 25 43 49q12 34 15 53q8 44 -4 91q-14 52 -42 81q-20 20 -78 40q-63 21 -95 15q-61 -18 -84 -34q-14 -10 -27.5 -23t-25.5 -30q-29 -42 -30 -88zM61 450l2 -9q11 1 17.5 1.5 t10.5 0.5q18 12 29 17.5t14 7.5q8 3 20 9.5t20 14.5q3 1 8.5 2.5t7.5 2.5q12 9 17 10q83 -65 130 -69q2 5 -6 14l-25 36l-7 1l-3 5l-1 8l-4 5q-4 5 -7.5 10t-5.5 9l-7 5l-5 3l-3 7l-4 4l-4 7l-6 10l-6 4q-2 4 -3 7t-3 7q-2 2 -10 2q-17 0 -23 -2q-8 -1 -16 -1q-7 0 -15 -1 q-4 -1 -22 -25q-17 -23 -26 -29q-7 -10 -12 -16.5l-9 -11.5l-31 -35l-5 -3l-1 -4zM109 208q0 36 13 66q17 40 47 53q26 13 49 13q22 0 48 -15q8 -8 14 -15.5l10 -12.5q25 -32 36 -63q7 -21 7 -56q0 -20 -0.5 -33t-1.5 -18q-10 -57 -48 -83q-22 -14 -42 -20q-8 -2 -43 7 q-61 23 -80 110q-9 39 -9 67z" />
<glyph unicode="&#xf5;" horiz-adv-x="446" d="M29 196q0 -20 2 -41t18 -56q20 -45 53 -70q43 -31 133 -31q40 0 66 9q13 5 27 13.5t29 21.5q30 25 43 49q12 34 15 53q8 44 -4 91q-14 52 -42 81q-20 20 -78 40q-63 21 -95 15q-61 -18 -84 -34q-14 -10 -27.5 -23t-25.5 -30q-29 -42 -30 -88zM70 430h22q4 12 9 24.5 t22 17.5q12 4 47 -10q42 -19 54 -20q40 -6 66 16q3 8 4 9h5l4 5l6 7q0 8 1 9q7 5 13 23v26h-18q-13 -40 -46 -41q-5 0 -16.5 4t-18.5 4l-11 4q-7 10 -29 10q-7 10 -26 10q-5 0 -14 -0.5t-18 -2t-17.5 -3.5t-11.5 -5q-27 -23 -27 -87zM111 208q0 36 13 66q17 40 47 53 q26 13 49 13q22 0 48 -15q8 -8 14 -15.5l10 -12.5q25 -32 36 -63q7 -21 7 -56q0 -20 -0.5 -33t-1.5 -18q-10 -57 -48 -83q-22 -14 -42 -20q-8 -2 -43 7q-61 23 -80 110q-9 39 -9 67z" />
<glyph unicode="&#xf6;" horiz-adv-x="447" d="M29 196q0 -20 2 -41t18 -56q20 -45 53 -70q43 -31 133 -31q40 0 66 9q13 5 27 13.5t29 21.5q30 25 43 49q12 34 15 53q8 44 -4 91q-14 52 -42 81q-20 20 -78 40q-63 21 -95 15q-61 -18 -84 -34q-14 -10 -27.5 -23t-25.5 -30q-29 -42 -30 -88zM80 491q-2 -35 20 -48 q19 -16 44 -6q27 10 33 34q5 29 -15 46q-16 16 -43 12q-37 -7 -39 -38zM111 208q0 36 13 66q17 40 47 53q26 13 49 13q22 0 48 -15q8 -8 14 -15.5l10 -12.5q25 -32 36 -63q7 -21 7 -56q0 -20 -0.5 -33t-1.5 -18q-10 -57 -48 -83q-22 -14 -42 -20q-8 -2 -43 7q-61 23 -80 110 q-9 39 -9 67zM250 487q0 -19 11.5 -35t28.5 -21q24 -7 44 13q21 21 14 51q-4 18 -25 28q-5 1 -36 9q-26 -23 -27 -23q-10 -10 -10 -22z" />
<glyph unicode="&#xf9;" horiz-adv-x="540" d="M31 344q0 -7 4 -19q51 -12 55 -15q10 -8 15 -54l7 -61q4 -35 9.5 -61t12.5 -43q20 -50 68 -80q26 -14 54 -14q26 0 52 10q35 15 64 47q7 -22 6 -31q9 -23 25 -23q5 -1 9.5 -1.5t9.5 -0.5q27 0 64 31l16.5 16t10.5 10q11 19 11 30l-16 7q-6 -5 -10.5 -9.5t-8.5 -7.5 q-17 -11 -23 -8q-11 5 -12 11q-2 5 -3 11t-3 11q4 5 2 19q-1 11 -1.5 15.5t-0.5 2.5v79q0 12 1 28.5t3 37.5q5 51 -4 62q-8 12 -28 12l-33 -3h-30q-4 0 -14.5 1t-15.5 1q-29 -6 -30 -9q-5 -11 5 -20q15 -7 26 -9h15q7 1 14 -4q12 -10 14 -79q1 -59 -3 -87q-3 -41 -10 -56 q-11 -26 -41 -40q-14 -6 -26 -6q-20 0 -40 14q-30 23 -45 77q-2 9 -5.5 28.5l-8.5 48.5l-10 69q-6 43 -7 44q-6 19 -24 27h-55q-64 0 -54 2q-11 0 -11 -11zM32 508l10 -5l7 -5.5t3 -2.5l130 -61q22 -11 51 -9l-71 70l-28 19q-14 21 -21 22q-38 31 -53 31q-21 1 -28 -12 q-11 -12 0 -47z" />
<glyph unicode="&#xfa;" horiz-adv-x="535" d="M17 344q0 -7 4 -19q51 -12 55 -15q10 -8 15 -54l7 -61q4 -35 9.5 -61t12.5 -43q20 -50 68 -80q26 -14 54 -14q26 0 52 10q32 14 64 47q7 -22 6 -31q9 -23 25 -23q5 -1 9.5 -1.5t9.5 -0.5q27 0 64 31l16.5 16t10.5 10q11 19 11 30l-16 7q-7 -5 -11.5 -9.5l-7.5 -7.5 q-17 -11 -23 -8q-11 5 -12 11q-2 5 -3 11t-3 11q4 5 2 19q-1 11 -1.5 15.5t-0.5 2.5v79q0 34 3 66q5 53 -4 63q-8 11 -28 11q-8 -1 -16 -1.5t-16 -1.5h-30q-4 0 -14.5 1t-15.5 1q-29 -6 -30 -9q-5 -11 5 -20q15 -7 26 -9h15q7 1 14 -4q24 -18 11 -166q-3 -41 -10 -56 q-11 -26 -41 -40q-14 -6 -26 -6q-20 0 -40 14q-30 23 -45 77q-2 9 -5.5 28.5l-8.5 48.5l-10 69q-3 20 -4.5 31t-2.5 13q-6 19 -24 27h-55q-64 0 -54 2q-11 0 -11 -11zM194 433h27q8 0 3 -1q8 2 28 10l56 31l25 12l25 12q38 20 44 34q5 17 -3 26q-10 16 -31 18q-21 1 -46 -27 q-41 -35 -47 -41l-33 -34l-25 -19.5t-23 -20.5z" />
<glyph unicode="&#xfb;" horiz-adv-x="537" d="M23 344q0 -7 4 -19q51 -12 55 -15q10 -8 15 -54l7 -61q4 -35 9.5 -61t12.5 -43q20 -50 68 -80q26 -14 54 -14q26 0 52 10q35 15 64 47q7 -22 6 -31q9 -23 25 -23q5 -1 9.5 -1.5t9.5 -0.5q27 0 64 31l16.5 16t10.5 10q11 19 11 30l-16 7q-6 -5 -10.5 -9.5t-8.5 -7.5 q-17 -11 -23 -8q-11 5 -12 11q-2 5 -3 11t-3 11q4 5 2 19q-1 11 -1.5 15.5t-0.5 2.5v79q0 12 1 28.5t3 37.5q5 51 -4 62q-8 12 -28 12l-33 -3h-30q-4 0 -14.5 1t-15.5 1q-29 -6 -30 -9q-5 -11 5 -20q15 -7 26 -9h15q7 1 14 -4q12 -10 14 -79q1 -59 -3 -87q-3 -41 -10 -56 q-11 -26 -41 -40q-14 -6 -26 -6q-20 0 -40 14q-30 23 -45 77q-2 9 -5.5 28.5l-8.5 48.5l-10 69q-6 43 -7 44q-6 19 -24 27h-55q-64 0 -54 2q-11 0 -11 -11zM67 443l1 -9q11 1 18 1.5t11 0.5q18 12 29 17.5t13 8.5q11 3 21.5 9t18.5 14q15 4 17 6l17 10q81 -66 130 -69 q1 3 -6 13l-25 37l-7 1l-3 4l-2 8l-3 6l-7.5 9.5t-5.5 8.5l-7 5l-5 3l-3 7l-4 4l-5 7l-2 6l-3 4l-6 4q-3 7 -7 14q-2 2 -9 2q-21 0 -24 -1q-8 -1 -15 -1t-15 -1q-3 -1 -22 -26q-17 -23 -26 -29q-7 -10 -12 -16.5l-9 -11.5l-32 -35l-4 -2l-1 -5z" />
<glyph unicode="&#xfc;" horiz-adv-x="540" d="M24 344q0 -7 4 -19q51 -12 55 -15q10 -8 15 -54l7 -61q4 -35 9.5 -61t12.5 -43q20 -50 68 -80q26 -14 54 -14q26 0 52 10q35 15 64 47q7 -22 6 -31q9 -23 25 -23q5 -1 9.5 -1.5t9.5 -0.5q27 0 64 31l16.5 16t10.5 10q11 19 11 30l-16 7q-6 -5 -10.5 -9.5t-8.5 -7.5 q-17 -11 -23 -8q-11 5 -12 11q-2 5 -3 11t-3 11q4 5 2 19q-1 11 -1.5 15.5t-0.5 2.5v79q0 12 1 28.5t3 37.5q5 51 -4 62q-8 12 -28 12l-33 -3h-30q-4 0 -14.5 1t-15.5 1q-29 -6 -30 -9q-5 -11 5 -20q15 -7 26 -9h15q7 1 14 -4q12 -10 14 -79q1 -59 -3 -87q-3 -41 -10 -56 q-11 -26 -41 -40q-14 -6 -26 -6q-20 0 -40 14q-30 23 -45 77q-2 9 -5.5 28.5l-8.5 48.5l-10 69q-6 43 -7 44q-6 19 -24 27h-55q-64 0 -54 2q-11 0 -11 -11zM88 489q-1 -31 20 -46.5t45 -6.5q27 10 32 33q5 29 -15 47q-16 18 -43 12q-38 -8 -39 -39zM259 484q0 -3 0.5 -6.5 t1.5 -8.5q11 -32 37 -39q25 -6 45 14t13 50q-4 18 -25 28q-5 1 -36 9q-24 -21 -27 -24q-9 -11 -9 -23z" />
<glyph unicode="&#xfd;" horiz-adv-x="545" d="M14 345q0 -6 6 -13q31 -7 38 -7h6t12 1q7 0 17 -7q21 -23 27 -36q10 -9 17 -18t12 -17l10 -18l27 -45l50 -88q45 -80 45 -102q0 -5 -2 -13q-13 -31 -33 -55q-26 -33 -51 -37q-22 4 -40 9t-32 10q-28 -3 -40 -28q-8 -14 6 -32q19 -28 65 -23q63 6 106 58q16 18 75 122 l33 58l18 38.5t9 22.5l48 103q16 35 28 68q8 13 12 16.5t18 10.5q10 4 15 5.5l5 1.5q5 3 5 12q-13 12 -23 14q-3 1 -24 1h-32q-28 0 -31 1q-25 0 -31 -2q-21 -9 -14 -25q11 -8 26 -6q7 -2 11 -3t6 -2.5t3.5 -4t4.5 -8.5q-6 -48 -24 -88l-20 -44l-20 -44l-23 -37 q-44 65 -51 80l-24 42q-10 17 -14.5 26t-5.5 10l-26 39q-11 17 -11 22l8 10q10 4 25 -1q16 0 24 9v6q-39 27 -78 27q-12 0 -61 -6h-21q-24 0 -70 10q-16 -16 -16 -23zM275 436h30q5 0 28 9l55 31l50 25q39 19 45 33q5 17 -4 26q-7 16 -31 18q-21 1 -45 -26 q-17 -14 -28.5 -24.5l-18.5 -16.5l-33 -35l-25 -19.5t-23 -20.5z" />
<glyph unicode="&#xff;" horiz-adv-x="549" d="M19 345q0 -6 6 -13q17 -4 26.5 -5.5t11.5 -1.5h6t12 1q6 1 18 -7q21 -24 26 -36q23 -21 29 -35l10 -18l16.5 -27t11.5 -18l50 -88q44 -79 44 -102q0 -5 -2 -13q-11 -30 -33 -55q-26 -33 -50 -37q-9 -2 -39 9q-27 10 -34 10q-30 -3 -39 -28q-8 -15 5 -32q19 -28 66 -23 q61 6 105 59q13 16 75 121l34 58l17.5 39t8.5 22l48 103q16 35 28 68q8 13 12 16.5t18 10.5l16.5 6t8.5 13q-3 7 -11 10q0 1 -12 4q-3 1 -23 1h-32q-28 0 -31 1q-26 0 -32 -2q-20 -8 -14 -25q10 -8 27 -6q16 -5 24 -18q-6 -46 -24.5 -88.5l-38.5 -87.5l-24 -37l-34.5 53 t-16.5 27l-24 42q-10 17 -14.5 26t-5.5 10l-25 39q-12 15 -12 22l8 10q11 4 26 -1q15 0 23 9v6q-39 27 -78 27q-12 0 -61 -6h-21q-24 0 -70 10q-16 -16 -16 -23zM174 483q-2 -35 20 -48q20 -17 44 -5q25 7 33 33q5 29 -13.5 46.5t-44.5 12.5q-38 -8 -39 -39zM344 479 q0 -19 11.5 -35.5t28.5 -20.5q24 -6 44 14t13 50q-4 18 -25 28l-36 9q-13 -11 -19.5 -17l-6.5 -6q-10 -10 -10 -22z" />
<glyph unicode="&#x152;" horiz-adv-x="1275" d="M30 398q0 -27 21 -97l13.5 -47l9.5 -34q15 -35 36 -60q26 -31 48.5 -53t42.5 -35q21 -14 76 -36q2 -1 22 -8l58 -21q11 -4 33 -7.5t54 -5.5l48.5 -3.5t38.5 -1.5q26 0 47 9q3 -1 12 -1q4 0 10.5 0.5l12.5 1t11 1l5 0.5h41q2 -2 19 0q8 1 12.5 1.5t3.5 0.5q5 0 18 1.5 t18 1.5l344 -5h48q6 0 12 -0.5t11 -1.5q12 -1 21 4q7 6 18 45l6 23l6 23l18 45q20 52 20 85q0 19 -6 31q-9 18 -19 18q-9 2 -17 -12l-13 -43l-27 -43l-25.5 -43t-33.5 -40q-37 -34 -89 -44q-45 -9 -69 -8q-9 0 -30 3.5t-34 3.5q-20 -1 -31.5 -0.5t-16.5 1.5q-23 3 -37 20 q-12 16 -12 77q0 16 1 39t3 54q4 54 3 64q2 11 3 26.5t1 35.5v29l20 18q54 0 67 -4q51 -14 69 -75q2 -7 3.5 -14t3.5 -15q6 -22 15 -23q11 -6 23 6t12 51q0 11 -1 24t-3 28q-3 30 -3 27v27q0 4 -1.5 12.5t-1.5 11.5q3 6 3 25v17q0 27 -10 48t-15 25q-15 4 -23 1 q-6 -8 -6 -24v-21q0 -20 -5 -42q-6 -22 -11 -27q-4 -5 -23 -10.5t-58 -5.5q-40 0 -49 6q-10 8 -11 17q-1 4 -1.5 8t0.5 9q1 8 1 11v4v100q0 9 -0.5 20.5t-0.5 22.5q0 12 -0.5 21t-0.5 13q0 37 17 57q18 20 82 20q11 0 22.5 -0.5t23.5 -1.5h33q60 0 72 -4q23 -7 58 -48 q15 -18 20 -55q1 -12 2 -19.5t2 -9.5q0 -14 14 -25h9q21 9 21 39q2 3 0 74q0 72 -1 73q-17 23 -71 17h-238q-5 0 -13.5 -1t-10.5 -1h-51h-8t-17 1t-20 1h-15h-49h-35t-30 -1l-8 2l-67 8q-72 8 -119 2h-29q-66 0 -139 -35q-54 -25 -77 -47q-37 -45 -57 -74q-14 -20 -24 -36.5 t-16 -29.5q-9 -21 -15 -44q-2 -7 -4 -19.5t-5 -29.5q-2 -12 -5 -24t-5 -25q-6 -29 -6 -50zM160 410q-1 49 0 74q-1 34 3 61q8 45 43 102q19 29 38.5 51.5t40.5 36.5q15 10 60 24q20 6 35 10t26 6q7 1 13 1.5t12 0.5q8 0 16.5 -1t18.5 -3q16 -4 25.5 -5.5t14.5 -2.5 q31 -4 43 -15q11 -10 22 -19t22 -19q10 -7 41 -56q14 -22 23 -37.5t14 -25.5q1 -2 2 -6t3 -11v-18v-20q0 -11 -1 -27t-1 -28v-20v-113v-24q0 -13 -1 -32q-1 -18 -1 -31v-20q0 -14 0.5 -27t1.5 -26q-8 -18 -16 -32.5t-16 -25.5q-5 -9 -11 -18t-11 -19q-9 -12 -34.5 -24 t-49.5 -25q-15 -6 -48 -5q-80 3 -125 27q-14 8 -29.5 18l-32.5 21q-23 16 -29 25q-3 17 -16 31l-17 20l-8.5 11.5t-5.5 8.5q-17 30 -18 40q-10 21 -13 40q-10 36 -12 40q-8 22 -14 43.5t-8 43.5z" />
<glyph unicode="&#x153;" horiz-adv-x="706" d="M31 196q-2 -29 3 -41q1 -20 17 -56q19 -46 54 -70q44 -31 133 -31q39 0 65 9q34 14 73 50q14 -16 36.5 -31t35.5 -20q34 -12 70 -12q25 0 48 6q26 11 42.5 19t24.5 13q25 15 34 28q10 19 6 33q-9 0 -22 -10q-8 -10 -20 -14q-44 -30 -84 -30q-32 0 -66 20q-18 11 -42 50 q-9 15 -12 27q-6 11 5 25q57 -5 75 -3q41 4 85 21q13 5 22 9.5t16 8.5l8 3q24 24 27 28q8 13 7 37q-2 25 -20 50q-18 27 -38.5 38t-55.5 13q-31 2 -61.5 -5t-66.5 -25q-20 -9 -45 -37q-24 34 -92 57q-62 21 -95 15q-65 -22 -83 -34q-31 -20 -54 -53q-29 -41 -30 -88z M113 208q0 32 14 66q9 20 20.5 32.5t24.5 20t26 10.5t24 3q24 0 48 -15q8 -8 14 -15.5l10 -12.5q25 -32 36 -63q7 -20 8 -41q-1 -25 0 -43q-5 -74 -50 -106q-13 -7 -23.5 -12t-18.5 -8q-2 -1 -44 7q-61 23 -80 110q-9 39 -9 67zM421 215q0 14 5 32q10 36 39 63 q13 12 37 21.5t40 6.5q31 -6 45 -38q15 -36 -7 -69q-30 -47 -102 -48q2 2 -49 2q-8 5 -8 30z" />
<glyph unicode="&#x178;" horiz-adv-x="929" d="M13 782q0 -23 32 -23q9 4 42 -7q48 -18 81 -57l90 -107q11 -14 20 -24t16 -17l35 -48l41 -51l41 -51q9 -17 9 -105v-126q-5 -8 -5 -26v-10t-1 -16q-1 -41 -13 -53q-9 -9 -47 -14q-9 -1 -15 -1h-8q-15 -6 -21 -15q0 -25 19 -25q12 -6 31 -6h172l29 1q25 0 29 -1q21 1 27 6 q19 4 19 20q-8 17 -39 17q-22 0 -40 8q-21 15 -21 63v58q0 5 1 8v14q-1 3 -1 7v51l5 23v20q0 19 -1 40t-1 25q0 19 10 35q4 6 45 63l143 197q47 65 68 79q22 16 81 21q15 -6 25 9q5 8 -4 19q-8 11 -110 11h-67q-7 0 -12 1h-13h-20q-24 0 -26 -1q-16 0 -16 -18q20 -15 26 -16 q9 -2 16 -2t12.5 -1.5t10 -6t9.5 -14.5q2 -11 -28 -43q-16 -21 -17 -24q-4 -7 -6 -12t-4 -9l-60 -73l-38 -54.5t-23 -28.5l-26 -33q-13 0 -30 20l-24 29q-28 35 -36 41q-15 10 -19 20q-9 22 -10 23l-41 42l-41.5 50.5t-19.5 34.5q0 7 4 15q0 11 15 16q13 8 22 8q14 0 24 2 q10 7 14.5 10.5t5.5 4.5v10q-10 8 -17 8q-7 1 -12 1q-4 0 -6 1h-34h-28q-6 0 -19.5 -1.5t-19.5 -1.5l-176 6q-5 0 -14.5 -1t-14.5 -1q-18 -6 -25 -14zM374 962q0 -16 5.5 -28.5t14.5 -20t21 -9t24 4.5q26 11 32 33q3 15 -1.5 27t-12.5 20t-20 11.5t-24 0.5q-38 -8 -39 -39z M545 957q0 -3 0.5 -6.5t1.5 -8.5q7 -29 37 -40q28 -4 44 14q22 19 14 51q-5 20 -25 28q-10 4 -36 8q-36 -30 -36 -46z" />
<glyph unicode="&#x2c6;" horiz-adv-x="324" d="M23 686l2 -9q11 1 17.5 1.5t10.5 0.5q18 12 29 17.5t14 8.5l8.5 3.5t5.5 2.5q4 3 13.5 7.5t12.5 9.5q5 2 9.5 3.5t6.5 2.5l17 10q14 -11 30 -22t35 -22q43 -24 65 -25q1 6 -6 13l-25 37l-7 1l-3 4l-1 8l-4 6l-7.5 9.5t-5.5 8.5l-7 5l-5 3l-3 7l-4 4l-4 7l-3 6l-3 4l-5 4 q-4 7 -7 14q-2 2 -10 2q-21 0 -23 -1q-8 -1 -16 -1q-7 0 -15 -1q-3 -1 -22 -26q-17 -23 -26 -29l-21 -27l-31 -36l-5 -2l-1 -5z" />
<glyph unicode="&#x2dc;" horiz-adv-x="309" d="M29 706h22q6 21 11 30q9 13 28 13q12 0 45 -14q35 -14 48 -17q39 -6 65 17q3 3 5 9h4l5 4l5 8q0 8 1 9q12 15 14 22v27h-18q-15 -40 -47 -42q-5 0 -16.5 4t-17.5 4l-11 5q-11 10 -29 10q-10 10 -27 10q-7 1 -30 -2q-23 -4 -31 -9q-26 -26 -26 -88z" />
<glyph unicode="&#x2000;" horiz-adv-x="554" />
<glyph unicode="&#x2001;" horiz-adv-x="1109" />
<glyph unicode="&#x2002;" horiz-adv-x="554" />
<glyph unicode="&#x2003;" horiz-adv-x="1109" />
<glyph unicode="&#x2004;" horiz-adv-x="369" />
<glyph unicode="&#x2005;" horiz-adv-x="277" />
<glyph unicode="&#x2006;" horiz-adv-x="184" />
<glyph unicode="&#x2007;" horiz-adv-x="184" />
<glyph unicode="&#x2008;" horiz-adv-x="138" />
<glyph unicode="&#x2009;" horiz-adv-x="221" />
<glyph unicode="&#x200a;" horiz-adv-x="61" />
<glyph unicode="&#x2010;" d="M32 153q0 -13 9 -13q13 -1 23 -1.5t18 -0.5q19 0 45.5 0.5t60.5 1.5l51 5q26 52 26 60q7 15 -7 21q-7 5 -14 5t-19 -4l-15 -5q-20 -2 -31.5 -3t-15.5 -1q-10 2 -27 2q-2 -2 -27 0l-13.5 2l-13.5 2q-18 2 -26 -6q-11 -21 -17.5 -37.5t-6.5 -27.5z" />
<glyph unicode="&#x2011;" d="M32 153q0 -13 9 -13q13 -1 23 -1.5t18 -0.5q19 0 45.5 0.5t60.5 1.5l51 5q26 52 26 60q7 15 -7 21q-7 5 -14 5t-19 -4l-15 -5q-20 -2 -31.5 -3t-15.5 -1q-10 2 -27 2q-2 -2 -27 0l-13.5 2l-13.5 2q-18 2 -26 -6q-11 -21 -17.5 -37.5t-6.5 -27.5z" />
<glyph unicode="&#x2012;" d="M32 153q0 -13 9 -13q13 -1 23 -1.5t18 -0.5q19 0 45.5 0.5t60.5 1.5l51 5q26 52 26 60q7 15 -7 21q-7 5 -14 5t-19 -4l-15 -5q-20 -2 -31.5 -3t-15.5 -1q-10 2 -27 2q-2 -2 -27 0l-13.5 2l-13.5 2q-18 2 -26 -6q-11 -21 -17.5 -37.5t-6.5 -27.5z" />
<glyph unicode="&#x2013;" horiz-adv-x="657" d="M33 277q2 0 6.5 0.5t9.5 1.5q6 1 16 -2q5 0 52 -3q23 -1 37.5 -1.5t19.5 -0.5h31q21 0 39 5h40q6 -3 28 -6q5 -2 8.5 -2.5t5.5 -1.5q8 5 15 5q17 3 40 1h31h43q34 -6 38 -6q1 0 18 3q16 3 17 3h74h21q2 10 2 24v12q-1 4 -1 6v4q-3 0 -11.5 1.5l-20 3.5t-24 3.5t-22.5 1.5 l-77 -7h-16q-7 1 -17 3t-24 4q-20 6 -30 6q-7 0 -15.5 -3.5t-15.5 -2.5v-16q-16 1 -34 16q-10 4 -32 3q-35 -3 -33 -3l-32 4l-57 -7l-68 8h-62q-3 -23 0 -57z" />
<glyph unicode="&#x2014;" horiz-adv-x="834" d="M35 196q8 0 17 4q7 4 16 1h30h15l6 -5h4l8 3h15q10 0 30 -4h31q13 2 22.5 3t16.5 2q37 0 40 1q17 -6 27.5 -7.5t14.5 -2.5q9 4 16 4q4 1 55 1h158q3 0 7 -0.5t9 -1.5q4 -1 15 2h44q14 -2 23.5 -3.5t13.5 -1.5q2 0 6.5 0.5t12.5 1.5q16 3 18 3h92q3 9 3 24q0 5 -1 13t-1 9 q-4 0 -32 5t-45 5l-76 -7h-16l-42 6q-18 6 -31 6q-10 0 -30 -5t-38 -4l-31 7q-3 1 -8 1l-6 1h-16q-8 0 -19 -1t-24 -3q-24 -3 -32 -2v-15q-19 5 -33 16q-11 4 -33 3q-5 -1 -17 -3q-4 -1 -7.5 -1.5t-8.5 0.5l-32 5h-41q-1 -1 -22 -1h-18q-6 0 -11 1h-11q-2 0 -5 1h-5l-7 -2 l-4 2h-63q-3 -24 0 -61z" />
<glyph unicode="&#x2018;" horiz-adv-x="182" d="M27 698q0 -30 17 -55t46 -26q35 -2 56 27q17 23 1 57q-10 22 -23 27q-2 1 -30 3q-11 5 -11 13q0 4 8.5 17.5t29.5 32.5l-1 13q-15 11 -40 2q-14 -4 -31 -32q-22 -37 -22 -79z" />
<glyph unicode="&#x2019;" horiz-adv-x="182" d="M24 752q0 -17 9 -32q13 -25 59 -25l8 -8v-10q-15 -22 -16 -22q-19 -19 -20 -21v-10q8 -11 16 -11t25 11q17 10 21 14q5 5 13 20q15 28 15 65q0 33 -19 60t-51 28t-52 -31q-8 -14 -8 -28z" />
<glyph unicode="&#x201a;" horiz-adv-x="187" d="M36 -84q27 -7 43 -7q38 0 66 49q14 25 14 60q0 34 -12 57q-17 31 -51 33q-39 1 -58 -28q-15 -23 1 -54q10 -21 27 -26q6 -1 35 -3q4 -2 2 -13q-2 -10 -6 -14q-7 -13 -22 -19l-26 -11q-17 -11 -13 -24z" />
<glyph unicode="&#x201c;" horiz-adv-x="349" d="M31 712q0 -27 14.5 -47.5t41.5 -22.5q31 -3 48 23q15 19 1 51q-9 20 -20 23q-14 1 -25.5 3.5t-11.5 9.5q0 6 8 17l27 27l-2 11q-13 10 -34 2q-15 -5 -28 -28q-19 -32 -19 -69zM205 710q0 -27 15 -45q15 -21 41 -23q31 -3 48 23q15 19 1 51q-8 18 -20 23q-7 1 -14 1 q-6 0 -13 1q-10 4 -10 11q0 4 8 17q4 7 27 27l-1 11q-12 10 -35 2q-13 -4 -27 -28q-20 -37 -20 -71z" />
<glyph unicode="&#x201d;" horiz-adv-x="354" d="M39 781q-16 -23 1 -52q12 -22 51 -22l7 -7v-9q-9 -16 -13 -18q-13 -15 -18 -19v-9q6 -9 14 -9t21 10q22 14 30 29q14 26 14 58q0 29 -16.5 52t-44.5 24q-27 1 -46 -28zM216 781q-15 -23 1 -52q12 -22 51 -22l6 -7v-9q-11 -17 -13 -18q-8 -8 -12 -12.5t-6 -6.5v-9 q6 -9 14 -9q9 0 22 10q22 14 30 29q13 23 13 57q0 28 -15 51q-17 24 -46 26q-29 1 -45 -28z" />
<glyph unicode="&#x201e;" horiz-adv-x="381" d="M39 -84q27 -7 43 -7q38 0 66 49q14 25 14 60q0 34 -12 57q-17 31 -51 33q-39 1 -58 -28q-15 -23 1 -54q10 -21 27 -26q6 -1 35 -3q4 -2 2 -13q-2 -10 -6 -14q-7 -13 -22 -19l-26 -11q-17 -11 -13 -24zM228 27q10 -22 27 -28q9 -4 37 -4q6 -10 -8 -27q-9 -9 -15.5 -13.5 t-11.5 -6.5l-10 -4t-11 -7q-13 -4 -8 -24q7 -5 24 -6q9 -1 14.5 -0.5t7.5 1.5q26 4 45 25q31 35 31 76q0 26 -10 53q-15 40 -47 45q-42 4 -64 -25q-16 -22 -1 -55z" />
<glyph unicode="&#x2022;" horiz-adv-x="179" d="M29 312q6 -33 39 -50q26 -13 56 4q25 15 27 50q1 33 -27 55q-25 19 -51 10q-21 -7 -34 -29t-10 -40z" />
<glyph unicode="&#x2026;" horiz-adv-x="584" d="M33 55q8 -32 37 -45q15 -6 30 -4.5t27 9t19.5 20t7.5 29.5q1 31 -26 51q-21 15 -42 15q-13 0 -23.5 -7t-17.5 -17.5t-10.5 -24t-1.5 -26.5zM233 55q8 -32 37 -45q15 -6 30 -4.5t27 9t19.5 20t7.5 29.5q1 31 -26 51q-21 15 -42 15q-13 0 -23.5 -7t-17.5 -17.5t-10.5 -24 t-1.5 -26.5zM433 55q8 -32 37 -45q15 -6 30 -4.5t27 9t19.5 20t7.5 29.5q1 31 -26 51q-21 15 -42 15q-13 0 -23.5 -7t-17.5 -17.5t-10.5 -24t-1.5 -26.5z" />
<glyph unicode="&#x202f;" horiz-adv-x="221" />
<glyph unicode="&#x2039;" horiz-adv-x="231" d="M10 203q17 -17 28 -27t16 -13l34 -33q13 -13 29 -19l8.5 -8.5l5.5 -5.5q5 -5 9 -8.5t6 -5.5q10 -13 10 -15l8.5 -10.5t5.5 -6.5q14 -12 29 -5q0 17 -5 24l-7 12.5l-6 10.5l-19 29l-10 15q-6 10 -10 13l-28 40q-2 5 -2.5 9.5t-1.5 6.5q43 44 87 128v15q-15 6 -32 -9 q-8 -9 -15.5 -16.5t-12.5 -13.5l-38 -36q-3 -2 -12.5 -10l-25.5 -21l-28.5 -22.5z" />
<glyph unicode="&#x203a;" horiz-adv-x="235" d="M36 65q-2 -8 2 -18h18l67 61l18 18t9 11l22 22q18 13 27 17q13 10 19 15l6 5l-14 19l-6 3l-5 4q-2 2 -5 4.5t-5 4.5q-14 8 -21 10l-18 23q-8 7 -14.5 11.5l-12.5 8.5l-30 31l-27 30q-3 3 -28 9q-10 -16 2 -23q5 -11 7.5 -17.5t3.5 -7.5l18 -26q21 -21 26 -34l9 -15 q3 -8 12 -17l10 -18l-34.5 -45.5l-20.5 -28.5q-3 -10 -21 -38q-7 -8 -10 -12.5t-4 -6.5z" />
<glyph unicode="&#x205f;" horiz-adv-x="277" />
<glyph unicode="&#x2122;" horiz-adv-x="794" d="M30 727q3 -21 3 -38q0 -34 3 -38h10l15 17q8 14 8 17q16 9 23 9l10 4l5 5l5 2l25 -24q0 -6 1 -12.5t1 -12.5v-179q0 -48 -2 -56q-5 -18 -32 -39l9 -14q37 10 132 0q3 13 -7 19q-12 9 -21 13q-12 16 -12 41v16v13q-1 5 -1 8v5v6t-1 18v156q0 28 5 40q4 0 20 -4 q14 -5 19 -1q19 -4 29 -19q3 -5 14 -34l14 2q4 7 4 14q-3 7 0 15q10 26 10 29v15l-6 6l-6 -1l-4 -1h-7h-9t-8 -1l-1.5 -0.5l-4.5 -1.5q-4 -1 -10 0l-16 5q-22 3 -67 -3h-28q-6 2 -19 3q-7 4 -21 4h-11q-4 -1 -8 -1l-6 -3l-4 -1l-10 2h-43zM339 725q0 -15 13 -22 q9 -5 13.5 -8.5l9.5 -7.5q0 -19 2 -23q10 -11 10 -22l-8 -37q7 -10 7 -23v-51v-7q0 -4 1 -9v-13q-3 -14 -5.5 -27.5t-2.5 -27.5v-24q-5 -24 -30 -43q0 -8 20 -8h26h12q5 -1 7 -1h5q5 1 26 1q2 6 2 7l-2.5 4.5t-7.5 12.5q-7 9 -9 14l-8 7l-3 5q0 28 -2 34v46q0 5 -1.5 15 t-1.5 14v23q0 4 0.5 13.5t1.5 24.5q1 5 -0.5 14l-3.5 22l20 -25q7 -12 11.5 -21t8.5 -15l19 -32q6 -24 14 -35.5t14 -15.5q7 -14 6 -18l22 -23l-4 -9q5 -11 7.5 -18.5t3.5 -12.5q18 -26 19 -30q10 16 15 27l14 24l2 8l1 6q6 10 6 14l42 84q10 43 10 39l32 70l8 -8 q-9 -57 -9 -69v-81q-2 -10 -2 -16l-1 -3l-1 -4v-23q5 -17 1 -26q-12 -18 -19 -21v-21q2 -1 33 -1h6q5 0 10 1h15l7.5 3t3.5 2h14q15 0 20 8l-24 27q1 19 0 34q-3 19 -3 23q0 17 7 41q-4 15 -4 53v29q0 7 2 20t2 19v25q0 18 4 23q17 15 19 16v24h-19l-35 5h-35l-26 -64.5 t-15 -33.5q-20 -48 -20 -50q0 -3 -2 -10.5t-2 -12.5q-6 -20 -6 -23l-11 -39q-5 -20 -30 -9q-14 16 -19 28q-3 10 -5.5 17.5t-4.5 12.5q-7 23 -12 31v14l-24 28q-23 43 -30 54q-8 6 -8 13q-1 6 0 13q5 18 1 27q-15 5 -19 2q-15 0 -20 1t-17 2h-19l-7 -3q-23 7 -38 2z" />
<glyph unicode="&#xe000;" horiz-adv-x="365" d="M0 365h365v-365h-365v365z" />
<glyph unicode="&#xfb01;" horiz-adv-x="715" d="M467 301q5 -8 22 -8q5 0 19 3.5t21 3.5q9 0 13 -4q9 -7 10 -35q1 -17 0 -39q-1 -14 -1 -20t0 -4v-47q1 2 1 -22v-48q0 -31 -7 -38t-62 -7l-11 -10q0 -23 36 -23q4 0 11.5 -1.5t11.5 -1.5h6l5 6l2.5 -1.5l7.5 -4.5h97q18 0 26 3q12 0 23 14q-4 13 -11 15q1 -1 -14 -1h-5 q-3 0 -10 1q-10 0 -14 4q-12 9 -13 22q1 -15 1.5 -9.5t0.5 31.5v108v20q-1 6 -1 10v8v86q0 40 -3 43q-7 7 -16 7q-2 0 -23 -6q-20 -7 -35 -11.5t-26 -8.5q-17 -5 -32 -9l-29 -8q-9 -10 -1 -18zM538 720q1 -23 24 -36q22 -13 43 -1q27 11 29 40q3 13 -2 24t-14 17t-21.5 7.5 t-24.5 -2.5q-37 -13 -34 -49zM21 20q-3 -8 3.5 -15t14.5 -7q-2 0 2.5 -0.5t15.5 -1.5q6 -1 15 4h153q22 -2 31 -3t7 -2q26 0 36 16v6q-9 13 -37 13t-37 6q-17 12 -17 91v93q0 92 12 103q4 4 55 2q4 0 14 -1.5t14 -1.5h7q2 -1 6 -1q6 1 9.5 2t5.5 2v24q-23 12 -30 12 q-5 0 -15.5 -1.5t-14.5 -1.5h-15q-5 -1 -9 -1h-6q-18 0 -26 11v114v46q0 14 -1 8q5 45 18 91q17 55 51 83q16 13 33 13q9 0 24 -5q42 -19 53 -19q9 0 18 6q20 13 19 28q-1 18 -17.5 28t-35.5 10q-39 0 -66 -15q-39 -22 -61 -38q-41 -32 -63 -77q-16 -33 -30 -95l-8.5 -33 t-5.5 -24l-13 -65q-1 -3 -1 -31q-1 -2 -1 -16q0 -7 -5 -15q-5 -4 -43 -4q-7 0 -21 2t-20 2l-17 -21q14 -14 20 -15h6q6 0 17 1q34 2 45 -5q21 -13 14 -89q0 -5 0.5 -16.5t1.5 -30.5q3 -38 3 -44q-2 -16 -5 -22l-1 -8t-1 -15l-2 -23.5l-2 -22.5q-4 -6 -17 -9q-3 -1 -11 -2 t-22 -3q-4 1 -11 0q-9 -3 -14 -3l-14 -7t-8 -7z" />
<glyph unicode="&#xfb02;" horiz-adv-x="739" d="M473 700q7 -6 34 -6q25 7 33 4q15 -9 15 -64v-80q2 -18 3 -30t1 -17q3 -41 3 -61v-39q-1 -14 -1 -25v-16v-18t1 -25t1 -25v-16q-1 -25 -2 -40.5t-2 -21.5v-32v-68q0 -59 -8 -70t-19 -14q-5 -2 -17 -3q-2 -1 -4 -1t-4 1h-8q-8 0 -18 -9q0 -17 13 -24q3 -2 27 0q16 -2 54 3 q39 1 66 0.5t42 -2.5q31 7 34 16q5 12 -4 19q-5 5 -27 5q-15 -4 -26 2q-14 7 -18 24q-1 3 -1 11t-1 21v37q0 15 1 20q-1 23 -1 40v30v25t1 31q-1 9 -5 20q2 27 2.5 54t-0.5 54q0 11 -3 52q-1 16 -1.5 28.5t-0.5 20.5q2 32 3 46t4 20v92l-3 36.5t-1 14.5t3 16q1 5 1.5 9 t0.5 8q0 22 -20 22q-12 0 -39 -13q-38 -18 -65 -23.5t-32 -9.5q-20 -12 -12 -29zM21 20q-3 -8 3.5 -15t14.5 -7q-2 0 2.5 -0.5t15.5 -1.5q6 -1 15 4h153q22 -2 31 -3t7 -2q26 0 36 16v6q-9 13 -37 13t-37 6q-17 12 -17 91v93q0 92 12 103q4 4 55 2q4 0 14 -1.5t14 -1.5h7 q2 -1 6 -1q6 1 9.5 2t5.5 2v24q-23 12 -30 12q-5 0 -15.5 -1.5t-14.5 -1.5h-15q-5 -1 -9 -1h-6q-18 0 -26 11v114v46q0 14 -1 8q5 45 18 91q17 55 51 83q16 13 33 13q9 0 24 -5q42 -19 53 -19q9 0 18 6q20 13 19 28q-1 18 -17.5 28t-35.5 10q-39 0 -66 -15q-39 -22 -61 -38 q-41 -32 -63 -77q-16 -33 -30 -95l-8.5 -33t-5.5 -24l-13 -65q-1 -3 -1 -31q-1 -2 -1 -16q0 -7 -5 -15q-5 -4 -43 -4q-7 0 -21 2t-20 2l-17 -21q14 -14 20 -15h6q6 0 17 1q34 2 45 -5q21 -13 14 -89q0 -5 0.5 -16.5t1.5 -30.5q3 -38 3 -44q-2 -16 -5 -22l-1 -8t-1 -15 l-2 -23.5l-2 -22.5q-4 -6 -17 -9q-3 -1 -11 -2t-22 -3q-4 1 -11 0q-9 -3 -14 -3l-14 -7t-8 -7z" />
<glyph unicode="&#xfb03;" horiz-adv-x="1163" d="M915 301q5 -8 22 -8q5 0 19 3.5t21 3.5q9 0 13 -4q9 -7 10 -35q1 -17 0 -39q-1 -14 -1 -20t0 -4v-47q1 2 1 -22v-48q0 -31 -7 -38t-62 -7l-11 -10q0 -23 36 -23q4 0 11.5 -1.5t11.5 -1.5h6l5 6l2.5 -1.5l7.5 -4.5h97q18 0 26 3q12 0 23 14q-4 13 -11 15q1 -1 -14 -1h-5 q-3 0 -10 1q-10 0 -14 4q-12 9 -13 22q1 -15 1.5 -9.5t0.5 31.5v108v20q-1 6 -1 10v8v86q0 40 -3 43q-7 7 -16 7q-2 0 -23 -6q-20 -7 -35 -11.5t-26 -8.5q-17 -5 -32 -9l-29 -8q-9 -10 -1 -18zM986 720q1 -23 24 -36q22 -13 43 -1q27 11 29 40q3 13 -2 24t-14 17t-21.5 7.5 t-24.5 -2.5q-37 -13 -34 -49zM469 20q-3 -8 3.5 -15t14.5 -7q-2 0 2.5 -0.5t15.5 -1.5q6 -1 15 4h153q22 -2 31 -3t7 -2q26 0 36 16v6q-9 13 -37 13t-37 6q-17 12 -17 91v93q0 92 12 103q4 4 55 2q4 0 14 -1.5t14 -1.5h7q2 -1 6 -1q6 1 9.5 2t5.5 2v24q-23 12 -30 12 q-5 0 -15.5 -1.5t-14.5 -1.5h-15q-5 -1 -9 -1h-6q-18 0 -26 11v114v46q0 14 -1 8q5 45 18 91q17 55 51 83q16 13 33 13q9 0 24 -5q42 -19 53 -19q9 0 18 6q20 13 19 28q-1 18 -17.5 28t-35.5 10q-39 0 -66 -15q-39 -22 -61 -38q-41 -32 -63 -77q-16 -33 -30 -95l-8.5 -33 t-5.5 -24l-13 -65q-1 -3 -1 -31q-1 -2 -1 -16q0 -7 -5 -15q-5 -4 -43 -4q-7 0 -21 2t-20 2l-17 -21q14 -14 20 -15h6q6 0 17 1q34 2 45 -5q21 -13 14 -89q0 -5 0.5 -16.5t1.5 -30.5q3 -38 3 -44q-2 -16 -5 -22l-1 -8t-1 -15l-2 -23.5l-2 -22.5q-4 -6 -17 -9q-3 -1 -11 -2 t-22 -3q-4 1 -11 0q-9 -3 -14 -3l-14 -7t-8 -7zM21 20q-3 -8 3.5 -15t14.5 -7q-2 0 2.5 -0.5t15.5 -1.5q6 -1 15 4h153q22 -2 31 -3t7 -2q26 0 36 16v6q-9 13 -37 13t-37 6q-17 12 -17 91v93q0 92 12 103q4 4 55 2q4 0 14 -1.5t14 -1.5h7q2 -1 6 -1q6 1 9.5 2t5.5 2v24 q-23 12 -30 12q-5 0 -15.5 -1.5t-14.5 -1.5h-15q-5 -1 -9 -1h-6q-18 0 -26 11v114v46q0 14 -1 8q5 45 18 91q17 55 51 83q16 13 33 13q9 0 24 -5q42 -19 53 -19q9 0 18 6q20 13 19 28q-1 18 -17.5 28t-35.5 10q-39 0 -66 -15q-39 -22 -61 -38q-41 -32 -63 -77 q-16 -33 -30 -95l-8.5 -33t-5.5 -24l-13 -65q-1 -3 -1 -31q-1 -2 -1 -16q0 -7 -5 -15q-5 -4 -43 -4q-7 0 -21 2t-20 2l-17 -21q14 -14 20 -15h6q6 0 17 1q34 2 45 -5q21 -13 14 -89q0 -5 0.5 -16.5t1.5 -30.5q3 -38 3 -44q-2 -16 -5 -22l-1 -8t-1 -15l-2 -23.5l-2 -22.5 q-4 -6 -17 -9q-3 -1 -11 -2t-22 -3q-4 1 -11 0q-9 -3 -14 -3l-14 -7t-8 -7z" />
<glyph unicode="&#xfb04;" horiz-adv-x="1187" d="M921 700q7 -6 34 -6q25 7 33 4q15 -9 15 -64v-80q2 -18 3 -30t1 -17q3 -41 3 -61v-39q-1 -14 -1 -25v-16v-18t1 -25t1 -25v-16q-1 -25 -2 -40.5t-2 -21.5v-32v-68q0 -59 -8 -70t-19 -14q-5 -2 -17 -3q-2 -1 -4 -1t-4 1h-8q-8 0 -18 -9q0 -17 13 -24q3 -2 27 0q16 -2 54 3 q39 1 66 0.5t42 -2.5q31 7 34 16q5 12 -4 19q-5 5 -27 5q-15 -4 -26 2q-14 7 -18 24q-1 3 -1 11t-1 21v37q0 15 1 20q-1 23 -1 40v30v25t1 31q-1 9 -5 20q2 27 2.5 54t-0.5 54q0 11 -3 52q-1 16 -1.5 28.5t-0.5 20.5q2 32 3 46t4 20v92l-3 36.5t-1 14.5t3 16q1 5 1.5 9 t0.5 8q0 22 -20 22q-12 0 -39 -13q-38 -18 -65 -23.5t-32 -9.5q-20 -12 -12 -29zM469 20q-3 -8 3.5 -15t14.5 -7q-2 0 2.5 -0.5t15.5 -1.5q6 -1 15 4h153q22 -2 31 -3t7 -2q26 0 36 16v6q-9 13 -37 13t-37 6q-17 12 -17 91v93q0 92 12 103q4 4 55 2q4 0 14 -1.5t14 -1.5h7 q2 -1 6 -1q6 1 9.5 2t5.5 2v24q-23 12 -30 12q-5 0 -15.5 -1.5t-14.5 -1.5h-15q-5 -1 -9 -1h-6q-18 0 -26 11v114v46q0 14 -1 8q5 45 18 91q17 55 51 83q16 13 33 13q9 0 24 -5q42 -19 53 -19q9 0 18 6q20 13 19 28q-1 18 -17.5 28t-35.5 10q-39 0 -66 -15q-39 -22 -61 -38 q-41 -32 -63 -77q-16 -33 -30 -95l-8.5 -33t-5.5 -24l-13 -65q-1 -3 -1 -31q-1 -2 -1 -16q0 -7 -5 -15q-5 -4 -43 -4q-7 0 -21 2t-20 2l-17 -21q14 -14 20 -15h6q6 0 17 1q34 2 45 -5q21 -13 14 -89q0 -5 0.5 -16.5t1.5 -30.5q3 -38 3 -44q-2 -16 -5 -22l-1 -8t-1 -15 l-2 -23.5l-2 -22.5q-4 -6 -17 -9q-3 -1 -11 -2t-22 -3q-4 1 -11 0q-9 -3 -14 -3l-14 -7t-8 -7zM21 20q-3 -8 3.5 -15t14.5 -7q-2 0 2.5 -0.5t15.5 -1.5q6 -1 15 4h153q22 -2 31 -3t7 -2q26 0 36 16v6q-9 13 -37 13t-37 6q-17 12 -17 91v93q0 92 12 103q4 4 55 2q4 0 14 -1.5 t14 -1.5h7q2 -1 6 -1q6 1 9.5 2t5.5 2v24q-23 12 -30 12q-5 0 -15.5 -1.5t-14.5 -1.5h-15q-5 -1 -9 -1h-6q-18 0 -26 11v114v46q0 14 -1 8q5 45 18 91q17 55 51 83q16 13 33 13q9 0 24 -5q42 -19 53 -19q9 0 18 6q20 13 19 28q-1 18 -17.5 28t-35.5 10q-39 0 -66 -15 q-39 -22 -61 -38q-41 -32 -63 -77q-16 -33 -30 -95l-8.5 -33t-5.5 -24l-13 -65q-1 -3 -1 -31q-1 -2 -1 -16q0 -7 -5 -15q-5 -4 -43 -4q-7 0 -21 2t-20 2l-17 -21q14 -14 20 -15h6q6 0 17 1q34 2 45 -5q21 -13 14 -89q0 -5 0.5 -16.5t1.5 -30.5q3 -38 3 -44q-2 -16 -5 -22 l-1 -8t-1 -15l-2 -23.5l-2 -22.5q-4 -6 -17 -9q-3 -1 -11 -2t-22 -3q-4 1 -11 0q-9 -3 -14 -3l-14 -7t-8 -7z" />
</font>
</defs>
</svg>
